<svg xmlns="http://www.w3.org/2000/svg" width="600" height="600" viewBox="0 0 158.75 158.75"><defs><linearGradient id="a"><stop offset="0" stop-color="#a8a100"/><stop offset="1" stop-color="#cad000"/></linearGradient></defs><rect width="158.75" height="158.75" rx="14.249" ry="14.249" fill="#00251b"/><path style="line-height:1.25;-inkscape-font-specification:'Mgen+ 1c Ultra-Bold';text-align:center" d="M45.557 5.656c-10.772 0-21.751 1.606-32.938 4.816v18.49c12.222-3.522 22.839-5.284 31.85-5.284 4.868 0 8.338.933 10.41 2.797 2.071 1.76 3.107 4.661 3.107 8.7v2.02h-7.302c-28.588 0-42.88 9.633-42.88 28.898 0 7.561 2.33 13.725 6.99 18.49 4.765 4.66 10.824 6.99 18.178 6.99 10.876 0 19.577-4.195 26.102-12.584h.31l.311 11.03h23.926v-.003h15.745v31.228c0 12.015 2.174 20.353 6.525 25.014 4.454 4.557 12.067 6.836 22.839 6.836 7.56 0 14.397-.674 20.508-2.02v-19.265c-4.454 1.45-9.167 2.175-14.139 2.175-4.246 0-6.991-.88-8.234-2.641-1.243-1.761-1.864-6.008-1.864-12.74V90.015h25.946V71.993H125V41.697H99.366v30.296H83.62v-34.02c0-11.498-2.9-19.732-8.7-24.704-5.697-5.075-15.485-7.613-29.364-7.613zm5.127 46.455h7.302v3.418c0 5.386-1.605 9.684-4.816 12.895-3.211 3.21-7.354 4.816-12.43 4.816-2.9 0-5.178-.777-6.836-2.33-1.657-1.658-2.485-3.936-2.485-6.836-.104-7.976 6.318-11.963 19.265-11.963z" font-weight="800" font-size="159.094" font-family="Mgen+ 1c" letter-spacing="0" word-spacing="0" text-anchor="middle" fill="#fff"/></svg>