<svg xmlns="http://www.w3.org/2000/svg" viewBox="0 0 158.75 158.75" height="600" width="600"><defs><linearGradient id="a"><stop offset="0" stop-color="#a8a100"/><stop offset="1" stop-color="#cad000"/></linearGradient></defs><g font-weight="400" stroke="#fff" paint-order="markers stroke fill"><g style="line-height:70.1559906px;-inkscape-font-specification:'Nu Hanafudaya';text-align:center"><path d="M43.395 13.134c-17.398 0-28.529 7.296-29.838 14.03h21.326c.187-4.302 2.619-7.857 8.512-7.857 6.36 0 8.511 3.555 8.885 12.908h-9.634c-20.577 0-30.773 8.138-30.773 18.333 0 9.821 9.26 17.21 23.384 17.21 6.922 0 12.814-1.87 17.023-5.144v3.648h22.262V38.575c0-17.678-12.253-25.441-31.147-25.441zm.467 46.58c-4.864 0-8.418-4.302-8.418-8.698v-2.339c0-5.425 3.742-9.166 12.347-9.166h4.49v10.57c0 4.863-3.555 9.633-8.419 9.633z" style="-inkscape-font-specification:'Nu Hanafudaya';text-align:center" aria-label="a" font-size="61.653" font-family="Nu Hanafudaya" letter-spacing="0" word-spacing="0" text-anchor="middle" stroke-width="16.93398182"/></g><g style="line-height:70.1559906px;-inkscape-font-specification:'Nu Hanafudaya';text-align:center"><path d="M143.363 95.988v-7.296h-12.346V78.403h-22.262v10.289H96.41v7.296h12.346v50.321h22.262V95.988z" style="-inkscape-font-specification:'Nu Hanafudaya';text-align:center" aria-label="t" font-size="61.653" font-family="Nu Hanafudaya" letter-spacing="0" word-spacing="0" text-anchor="middle" stroke-width="16.93398182"/></g><path style="line-height:normal;font-variant-ligatures:normal;font-variant-position:normal;font-variant-caps:normal;font-variant-numeric:normal;font-variant-alternates:normal;font-feature-settings:normal;text-indent:0;text-align:start;text-decoration-line:none;text-decoration-style:solid;text-decoration-color:#000;text-transform:none;text-orientation:mixed;white-space:normal;shape-padding:0;isolation:auto;mix-blend-mode:normal;solid-color:#000;solid-opacity:1" d="M133.316 9.357L18.963 143.893l6.47 5.5L139.788 14.857z" color="#000" font-family="sans-serif" overflow="visible" fill-rule="evenodd" stroke-width="16.933"/></g></svg>