<svg xmlns="http://www.w3.org/2000/svg" viewBox="0 0 158.75 15.875" height="60" width="600"><defs><linearGradient id="a"><stop offset="0" stop-color="#a8a100"/><stop offset="1" stop-color="#cad000"/></linearGradient></defs><path d="M0 0h158.75v15.875H0z" fill="#040021" paint-order="stroke markers fill"/><g aria-label="aqz/tamaina" style="line-height:40.64535141px;-inkscape-font-specification:'Nu Hanafudaya'" font-weight="400" font-size="12.025" font-family="Nu Hanafudaya" letter-spacing="0" word-spacing="0" fill="#fff" stroke-width=".265"><path d="M36.183 5.817c-2.236 0-3.667.938-3.836 1.804h2.742c.024-.553.337-1.01 1.094-1.01.818 0 1.095.457 1.143 1.66h-1.239c-2.645 0-3.956 1.046-3.956 2.357 0 1.262 1.19 2.212 3.006 2.212.89 0 1.648-.24 2.189-.661v.469h2.862v-3.56c0-2.272-1.576-3.27-4.005-3.27zm.06 5.99c-.625 0-1.082-.554-1.082-1.12v-.3c0-.697.481-1.178 1.587-1.178h.578v1.358c0 .626-.457 1.24-1.083 1.24zM49.68 6.178h-2.863l-.012.337c-.48-.313-1.154-.53-1.876-.53-2.116 0-3.427 1.66-3.427 3.428s1.299 3.427 3.415 3.427c.722 0 1.42-.216 1.9-.529v2.742h2.862zm-4.005 5.628c-.638 0-1.143-.409-1.143-1.395V8.415c0-.986.505-1.395 1.143-1.395.637 0 1.142.409 1.142 1.395v1.996c0 .986-.505 1.395-1.142 1.395zM58.134 7.116v-.938H51.11v.938h3.535l-3.535 4.606v.938h7.023v-.938h-3.536zM63.9 1.537h-1.322L58.73 14.139h1.323zM69.753 6.178V5.24h-1.587V3.918h-2.862V5.24h-1.587v.938h1.587v6.47h2.862v-6.47zM74.115 5.817c-2.237 0-3.668.938-3.837 1.804h2.742c.024-.553.337-1.01 1.095-1.01.817 0 1.094.457 1.142 1.66h-1.239c-2.645 0-3.956 1.046-3.956 2.357 0 1.262 1.19 2.212 3.006 2.212.89 0 1.648-.24 2.189-.661v.469h2.862v-3.56c0-2.272-1.575-3.27-4.004-3.27zm.06 5.99c-.626 0-1.083-.554-1.083-1.12v-.3c0-.697.481-1.178 1.588-1.178h.577v1.358c0 .626-.457 1.24-1.082 1.24zM90.208 5.914c-1.046 0-2.093.469-2.646 1.49-.553-1.021-1.599-1.49-2.645-1.49-.83 0-1.672.3-2.261.938v-.674h-2.862v6.47h2.862V8.583c0-.974.637-1.347 1.215-1.347.577 0 1.214.373 1.214 1.347v4.065h2.862v-3.56c0-.168-.012-.336-.024-.493l.024-.012c0-.974.637-1.347 1.215-1.347.577 0 1.214.373 1.214 1.347v4.065h2.862v-3.56c0-2.212-1.527-3.174-3.03-3.174zM98.611 5.817c-2.236 0-3.667.938-3.836 1.804h2.742c.024-.553.337-1.01 1.094-1.01.818 0 1.095.457 1.143 1.66h-1.239c-2.645 0-3.956 1.046-3.956 2.357 0 1.262 1.19 2.212 3.006 2.212.89 0 1.648-.24 2.189-.661v.469h2.862v-3.56c0-2.272-1.576-3.27-4.005-3.27zm.06 5.99c-.625 0-1.082-.554-1.082-1.12v-.3c0-.697.481-1.178 1.587-1.178h.578v1.358c0 .626-.457 1.24-1.083 1.24zM107.153 4.964V3.028h-2.862v1.936zm0 7.684v-6.47h-2.862v6.47zM114.09 5.914c-.878 0-1.768.312-2.38.974v-.71h-2.863v6.47h2.862V8.583c0-.974.698-1.347 1.335-1.347s1.335.373 1.335 1.347v4.065h2.862v-3.56c0-2.212-1.588-3.174-3.15-3.174zM122.615 5.817c-2.237 0-3.668.938-3.836 1.804h2.742c.024-.553.336-1.01 1.094-1.01.818 0 1.094.457 1.142 1.66h-1.238c-2.646 0-3.957 1.046-3.957 2.357 0 1.262 1.19 2.212 3.007 2.212.89 0 1.647-.24 2.188-.661v.469h2.862v-3.56c0-2.272-1.575-3.27-4.004-3.27zm.06 5.99c-.625 0-1.082-.554-1.082-1.12v-.3c0-.697.48-1.178 1.587-1.178h.577v1.358c0 .626-.457 1.24-1.082 1.24z" style="-inkscape-font-specification:'Nu Hanafudaya'"/></g></svg>