<?xml version="1.0" encoding="UTF-8" standalone="no"?>
<svg
   xmlns:dc="http://purl.org/dc/elements/1.1/"
   xmlns:cc="http://creativecommons.org/ns#"
   xmlns:rdf="http://www.w3.org/1999/02/22-rdf-syntax-ns#"
   xmlns:svg="http://www.w3.org/2000/svg"
   xmlns="http://www.w3.org/2000/svg"
   xmlns:xlink="http://www.w3.org/1999/xlink"
   xmlns:sodipodi="http://sodipodi.sourceforge.net/DTD/sodipodi-0.dtd"
   xmlns:inkscape="http://www.inkscape.org/namespaces/inkscape"
   id="svg8"
   version="1.1"
   viewBox="0 0 158.75 15.875001"
   height="60"
   width="600"
   sodipodi:docname="publisher.svg"
   inkscape:version="0.92.3 (2405546, 2018-03-11)">
  <sodipodi:namedview
     pagecolor="#ffffff"
     bordercolor="#666666"
     borderopacity="1"
     objecttolerance="10"
     gridtolerance="10"
     guidetolerance="10"
     inkscape:pageopacity="0"
     inkscape:pageshadow="2"
     inkscape:window-width="1920"
     inkscape:window-height="965"
     id="namedview17"
     showgrid="false"
     inkscape:snap-page="true"
     inkscape:snap-object-midpoints="true"
     inkscape:snap-center="true"
     inkscape:zoom="1.1879394"
     inkscape:cx="106.6569"
     inkscape:cy="38.688292"
     inkscape:window-x="-8"
     inkscape:window-y="-8"
     inkscape:window-maximized="1"
     inkscape:current-layer="svg8" />
  <defs
     id="defs2">
    <linearGradient
       gradientTransform="matrix(0.81252653,0,0,1.230729,-155.43452,239.67092)"
       spreadMethod="reflect"
       gradientUnits="userSpaceOnUse"
       y2="161.0775"
       x2="297.74918"
       y1="173.11845"
       x1="210.52345"
       id="linearGradient4532"
       xlink:href="#linearGradient4530" />
    <linearGradient
       id="linearGradient4530">
      <stop
         id="stop4526"
         offset="0"
         style="stop-color:#a8a100;stop-opacity:1;" />
      <stop
         id="stop4528"
         offset="1"
         style="stop-color:#cad000;stop-opacity:1" />
    </linearGradient>
    <linearGradient
       gradientTransform="scale(1.1202807,0.89263341)"
       spreadMethod="reflect"
       gradientUnits="userSpaceOnUse"
       y2="161.0775"
       x2="297.74918"
       y1="173.11845"
       x1="210.52345"
       id="linearGradient4568"
       xlink:href="#linearGradient4530" />
  </defs>
  <metadata
     id="metadata5">
    <rdf:RDF>
      <cc:Work
         rdf:about="">
        <dc:format>image/svg+xml</dc:format>
        <dc:type
           rdf:resource="http://purl.org/dc/dcmitype/StillImage" />
        <dc:title></dc:title>
      </cc:Work>
    </rdf:RDF>
  </metadata>
  <path
     style="opacity:1;fill:#040021;fill-opacity:1;fill-rule:nonzero;stroke:none;stroke-width:1.85208333;stroke-linecap:round;stroke-linejoin:miter;stroke-miterlimit:4;stroke-dasharray:none;stroke-dashoffset:0;stroke-opacity:1;paint-order:stroke markers fill"
     d="M 0,0 H 158.75 V 15.875 H 0 Z"
     id="rect832" />
  <g
     aria-label="aqz/tamaina"
     style="font-style:normal;font-variant:normal;font-weight:normal;font-stretch:normal;font-size:12.02525139px;line-height:40.64535141px;font-family:'Nu Hanafudaya';-inkscape-font-specification:'Nu Hanafudaya';letter-spacing:0px;word-spacing:0px;fill:#ffffff;fill-opacity:1;stroke:none;stroke-width:0.26458332px;stroke-linecap:butt;stroke-linejoin:miter;stroke-opacity:1"
     id="text817">
    <path
       d="m 36.183302,5.817491 c -2.236697,0 -3.667702,0.9379696 -3.836055,1.8037877 h 2.741757 c 0.02405,-0.5531615 0.336707,-1.0101211 1.094298,-1.0101211 0.817717,0 1.094298,0.4569596 1.142399,1.6594847 H 36.0871 c -2.645555,0 -3.956308,1.0461969 -3.956308,2.3569497 0,1.262651 1.1905,2.212646 3.006313,2.212646 0.889869,0 1.64746,-0.240505 2.188596,-0.661389 v 0.468985 h 2.86201 V 9.0883594 c 0,-2.2727725 -1.575308,-3.2708684 -4.004409,-3.2708684 z m 0.06013,5.988575 c -0.625313,0 -1.082272,-0.553161 -1.082272,-1.118348 v -0.300631 c 0,-0.697465 0.48101,-1.1784751 1.587333,-1.1784751 h 0.577212 v 1.3588531 c 0,0.625313 -0.45696,1.238601 -1.082273,1.238601 z"
       style="font-style:normal;font-variant:normal;font-weight:normal;font-stretch:normal;font-family:'Nu Hanafudaya';-inkscape-font-specification:'Nu Hanafudaya';fill:#ffffff;fill-opacity:1;stroke-width:0.26458332px"
       id="path834" />
    <path
       d="m 49.679204,6.1782486 h -2.86201 l -0.01203,0.336707 c -0.48101,-0.3126565 -1.154424,-0.529111 -1.87594,-0.529111 -2.116444,0 -3.427196,1.6594846 -3.427196,3.4271966 0,1.7677118 1.298727,3.4271968 3.415171,3.4271968 0.721515,0 1.41898,-0.216455 1.89999,-0.529111 v 2.741757 h 2.86201 z m -4.004409,5.6278174 c -0.637338,0 -1.142399,-0.408858 -1.142399,-1.394929 V 8.4149453 c 0,-0.9860706 0.505061,-1.3949291 1.142399,-1.3949291 0.637338,0 1.142399,0.4088585 1.142399,1.3949291 v 1.9961917 c 0,0.986071 -0.505061,1.394929 -1.142399,1.394929 z"
       style="font-style:normal;font-variant:normal;font-weight:normal;font-stretch:normal;font-family:'Nu Hanafudaya';-inkscape-font-specification:'Nu Hanafudaya';fill:#ffffff;fill-opacity:1;stroke-width:0.26458332px"
       id="path836" />
    <path
       d="M 58.133708,7.1162182 V 6.1782486 h -7.022747 v 0.9379696 h 3.535424 l -3.535424,4.6056708 v 0.93797 h 7.022747 v -0.93797 h -3.535424 z"
       style="font-style:normal;font-variant:normal;font-weight:normal;font-stretch:normal;font-family:'Nu Hanafudaya';-inkscape-font-specification:'Nu Hanafudaya';fill:#ffffff;fill-opacity:1;stroke-width:0.26458332px"
       id="path838" />
    <path
       d="M 63.900943,1.5365015 H 62.578166 L 58.730085,14.138965 h 1.322778 z"
       style="font-style:normal;font-variant:normal;font-weight:normal;font-stretch:normal;font-family:'Nu Hanafudaya';-inkscape-font-specification:'Nu Hanafudaya';fill:#ffffff;fill-opacity:1;stroke-width:0.26458332px"
       id="path840" />
    <path
       d="M 69.753482,6.1782486 V 5.240279 H 68.166149 V 3.9175013 h -2.86201 V 5.240279 h -1.587333 v 0.9379696 h 1.587333 v 6.4695854 h 2.86201 V 6.1782486 Z"
       style="font-style:normal;font-variant:normal;font-weight:normal;font-stretch:normal;font-family:'Nu Hanafudaya';-inkscape-font-specification:'Nu Hanafudaya';fill:#ffffff;fill-opacity:1;stroke-width:0.26458332px"
       id="path842" />
    <path
       d="m 74.114515,5.817491 c -2.236696,0 -3.667701,0.9379696 -3.836055,1.8037877 h 2.741757 c 0.02405,-0.5531615 0.336707,-1.0101211 1.094298,-1.0101211 0.817717,0 1.094298,0.4569596 1.142399,1.6594847 h -1.238601 c -2.645555,0 -3.956307,1.0461969 -3.956307,2.3569497 0,1.262651 1.1905,2.212646 3.006312,2.212646 0.889869,0 1.64746,-0.240505 2.188596,-0.661389 v 0.468985 h 2.86201 V 9.0883594 c 0,-2.2727725 -1.575308,-3.2708684 -4.004409,-3.2708684 z m 0.06013,5.988575 c -0.625313,0 -1.082273,-0.553161 -1.082273,-1.118348 v -0.300631 c 0,-0.697465 0.48101,-1.1784751 1.587333,-1.1784751 h 0.577212 v 1.3588531 c 0,0.625313 -0.456959,1.238601 -1.082272,1.238601 z"
       style="font-style:normal;font-variant:normal;font-weight:normal;font-stretch:normal;font-family:'Nu Hanafudaya';-inkscape-font-specification:'Nu Hanafudaya';fill:#ffffff;fill-opacity:1;stroke-width:0.26458332px"
       id="path844" />
    <path
       d="m 90.20787,5.913693 c -1.046197,0 -2.092394,0.4689849 -2.645556,1.4911312 C 87.009153,6.3826779 85.962956,5.913693 84.916759,5.913693 c -0.829742,0 -1.67151,0.3006313 -2.260747,0.9379697 V 6.1782486 h -2.86201 v 6.4695854 h 2.86201 V 8.5832989 c 0,-0.9740454 0.637338,-1.3468282 1.21455,-1.3468282 0.577212,0 1.21455,0.3727828 1.21455,1.3468282 v 4.0645351 h 2.86201 V 9.0883594 c 0,-0.1683535 -0.01202,-0.336707 -0.02405,-0.4930353 l 0.02405,-0.012025 c 0,-0.9740454 0.637339,-1.3468282 1.214551,-1.3468282 0.577212,0 1.21455,0.3727828 1.21455,1.3468282 v 4.0645351 h 2.86201 V 9.0883594 c 0,-2.2126462 -1.527207,-3.1746664 -3.030363,-3.1746664 z"
       style="font-style:normal;font-variant:normal;font-weight:normal;font-stretch:normal;font-family:'Nu Hanafudaya';-inkscape-font-specification:'Nu Hanafudaya';fill:#ffffff;fill-opacity:1;stroke-width:0.26458332px"
       id="path846" />
    <path
       d="m 98.611265,5.817491 c -2.236697,0 -3.667701,0.9379696 -3.836055,1.8037877 h 2.741757 c 0.02405,-0.5531615 0.336707,-1.0101211 1.094298,-1.0101211 0.817717,0 1.094298,0.4569596 1.142399,1.6594847 h -1.238601 c -2.645555,0 -3.956308,1.0461969 -3.956308,2.3569497 0,1.262651 1.1905,2.212646 3.006313,2.212646 0.889869,0 1.64746,-0.240505 2.188596,-0.661389 v 0.468985 h 2.862006 V 9.0883594 c 0,-2.2727725 -1.5753,-3.2708684 -4.004405,-3.2708684 z m 0.06013,5.988575 c -0.625313,0 -1.082272,-0.553161 -1.082272,-1.118348 v -0.300631 c 0,-0.697465 0.48101,-1.1784751 1.587333,-1.1784751 h 0.577212 v 1.3588531 c 0,0.625313 -0.456959,1.238601 -1.082273,1.238601 z"
       style="font-style:normal;font-variant:normal;font-weight:normal;font-stretch:normal;font-family:'Nu Hanafudaya';-inkscape-font-specification:'Nu Hanafudaya';fill:#ffffff;fill-opacity:1;stroke-width:0.26458332px"
       id="path848" />
    <path
       d="M 107.15276,4.9636982 V 3.0276327 h -2.86201 v 1.9360655 z m 0,7.6841358 V 6.1782486 h -2.86201 v 6.4695854 z"
       style="font-style:normal;font-variant:normal;font-weight:normal;font-stretch:normal;font-family:'Nu Hanafudaya';-inkscape-font-specification:'Nu Hanafudaya';fill:#ffffff;fill-opacity:1;stroke-width:0.26458332px"
       id="path850" />
    <path
       d="m 114.09021,5.913693 c -0.87784,0 -1.76771,0.3126566 -2.381,0.9740454 V 6.1782486 h -2.86201 v 6.4695854 h 2.86201 V 8.5832989 c 0,-0.9740454 0.69747,-1.3468282 1.3348,-1.3468282 0.63734,0 1.33481,0.3727828 1.33481,1.3468282 v 4.0645351 h 2.86201 V 9.0883594 c 0,-2.2126462 -1.58734,-3.1746664 -3.15062,-3.1746664 z"
       style="font-style:normal;font-variant:normal;font-weight:normal;font-stretch:normal;font-family:'Nu Hanafudaya';-inkscape-font-specification:'Nu Hanafudaya';fill:#ffffff;fill-opacity:1;stroke-width:0.26458332px"
       id="path852" />
    <path
       d="m 122.6148,5.817491 c -2.2367,0 -3.6677,0.9379696 -3.83606,1.8037877 h 2.74176 c 0.0241,-0.5531615 0.33671,-1.0101211 1.0943,-1.0101211 0.81771,0 1.0943,0.4569596 1.1424,1.6594847 h -1.2386 c -2.64556,0 -3.95631,1.0461969 -3.95631,2.3569497 0,1.262651 1.1905,2.212646 3.00631,2.212646 0.88987,0 1.64746,-0.240505 2.1886,-0.661389 v 0.468985 h 2.86201 V 9.0883594 c 0,-2.2727725 -1.57531,-3.2708684 -4.00441,-3.2708684 z m 0.0601,5.988575 c -0.62531,0 -1.08227,-0.553161 -1.08227,-1.118348 v -0.300631 c 0,-0.697465 0.48101,-1.1784751 1.58733,-1.1784751 h 0.57722 v 1.3588531 c 0,0.625313 -0.45696,1.238601 -1.08228,1.238601 z"
       style="font-style:normal;font-variant:normal;font-weight:normal;font-stretch:normal;font-family:'Nu Hanafudaya';-inkscape-font-specification:'Nu Hanafudaya';fill:#ffffff;fill-opacity:1;stroke-width:0.26458332px"
       id="path854" />
  </g>
</svg>
