<svg xmlns="http://www.w3.org/2000/svg" width="1200" height="630" viewBox="0 0 317.5 166.688"><defs><linearGradient id="a"><stop offset="0" stop-color="#a8a100"/><stop offset="1" stop-color="#cad000"/></linearGradient></defs><path fill="#00251b" d="M0 0h317.5v166.688H0z"/><g style="line-height:1.25;-inkscape-font-specification:'Mgen+ 1c Ultra-Bold';text-align:start" aria-label="a9z.dev" font-weight="800" font-size="33.665" font-family="Mgen+ 1c" letter-spacing="0" word-spacing="0" fill="#fff" stroke-width=".265"><path style="-inkscape-font-specification:'Mgen+ 1c Ultra-Bold';text-align:start" d="M34.836 31.774q4.405 0 6.214 1.611 1.84 1.578 1.84 5.227v11.014h-5.062l-.066-2.335h-.066q-2.07 2.663-5.523 2.663-2.334 0-3.846-1.479-1.48-1.512-1.48-3.912 0-6.115 9.074-6.115h1.545v-.427q0-1.283-.657-1.841-.658-.592-2.203-.592-2.86 0-6.74 1.118v-3.913q3.551-1.019 6.97-1.019zm2.63 9.83h-1.545q-4.11 0-4.077 2.531 0 .92.526 1.447.526.493 1.447.493 1.61 0 2.63-1.02 1.02-1.018 1.02-2.728zM48.677 44.859q2.63.986 5.424.953 2.597 0 4.01-1.446 1.447-1.447 1.612-4.274l-.099-.033q-1.907 1.48-4.997 1.48-4.01 0-6.148-2.138-2.137-2.17-2.137-6.279 0-3.88 2.532-6.148 2.564-2.268 6.937-2.268 4.536 0 7.002 2.729 2.499 2.728 2.499 8.054 0 14.465-11.014 14.465-2.761 0-5.621-.657zm7.134-16.01q-1.841 0-2.926 1.117-1.052 1.118-1.052 3.057 0 2.335 1.019 3.518 1.052 1.184 2.959 1.184 1.84 0 2.893-1.217 1.085-1.216 1.085-3.485 0-1.873-1.118-3.024-1.118-1.15-2.86-1.15zM69.06 32.136h14.794v3.78l-8.022 9.83v.066h8.022v3.814H69.06v-3.814l7.988-9.83v-.065H69.06zM88.653 49.626v-6.411h6.411v6.41zM110.746 24.377h5.424v25.249h-5.03l-.066-2.236h-.065q-2.203 2.564-5.359 2.564-2.992 0-4.931-2.4-1.907-2.4-1.907-6.673 0-4.373 1.841-6.74 1.874-2.367 4.997-2.367 2.762 0 5.03 2.104h.066zm-6.608 16.504q0 2.564.887 3.813.92 1.217 2.466 1.217 1.348 0 2.334-.888 1.02-.92 1.02-2.071v-4.175q0-1.15-1.02-2.039-.986-.92-2.334-.92-3.353 0-3.353 5.063zM125.014 39.237h6.246q-.033-3.78-2.959-3.78-1.578 0-2.367.887-.756.855-.92 2.893zm0 3.222q.23 2.005 1.38 2.893 1.151.855 3.551.855 1.874 0 5.096-.954v3.912q-3.09.822-5.885.79-4.57 0-7.068-2.302-2.466-2.334-2.466-6.772 0-4.406 2.203-6.74 2.202-2.367 6.378-2.367 8.153 0 8.153 9.041 0 .723-.132 1.644zM143.786 32.136l3.254 14.366h.066l3.255-14.366h5.654l-5.391 17.49h-7.233L138 32.136z"/></g><g style="line-height:1.25;-inkscape-font-specification:'Mgen+ 1c Bold';text-align:start" aria-label="aqz/tamaina's Website" font-weight="800" font-size="12.782" font-family="GenEi Univer Sans" letter-spacing=".836" word-spacing="0" fill="#fff" stroke-width=".265"><path style="-inkscape-font-specification:'GenEi Univer Sans Ultra-Bold';text-align:start" d="M31.31 65.568v.818c0 .678-.383 1.125-1.048 1.125-.639 0-.933-.307-.933-.818 0-.69.678-.818 1.227-.958zM27.667 63.6a4.24 4.24 0 012.314-.703c1.01 0 1.33.409 1.33 1.023v.268l-1.01.217c-1.88.448-3.221.588-3.221 2.39 0 1.24.843 2.25 2.39 2.25 1.137 0 1.649-.396 1.93-.882v.83h2.121v-4.946c0-1.994-1.073-2.914-3.246-2.914-1.176 0-2.147.256-2.608.511zM39.615 67.281c-.933 0-1.7-.818-1.7-2.134 0-1.42.793-2.173 1.687-2.173.87 0 1.764.652 1.764 2.083 0 1.393-.741 2.224-1.751 2.224zm1.751-6.02v1.074c-.588-.857-1.38-1.164-2.3-1.164-1.995 0-3.35 1.521-3.35 3.937 0 2.199 1.19 3.988 3.337 3.988.907 0 1.712-.268 2.313-1.189v3.95h2.16V61.26zM51.758 61.26h-5.726v1.663h3.272l-3.413 4.511v1.56h6.046v-1.687h-3.605l3.426-4.55zM53.813 69.8h1.61l3.183-12.527h-1.623zM63.083 62.846h1.815V61.26h-1.815v-1.828H60.91v1.828h-1.112v1.585h1.112v3.617c0 1.687.856 2.608 2.62 2.608.409 0 1.086-.077 1.508-.256v-1.79a2.006 2.006 0 01-1.086.307c-.486 0-.87-.268-.87-.856zM71.115 65.568v.818c0 .678-.384 1.125-1.049 1.125-.639 0-.933-.307-.933-.818 0-.69.678-.818 1.227-.958zM67.472 63.6a4.24 4.24 0 012.313-.703c1.01 0 1.33.409 1.33 1.023v.268l-1.01.217c-1.88.448-3.221.588-3.221 2.39 0 1.24.843 2.25 2.39 2.25 1.138 0 1.649-.396 1.93-.882v.83h2.122v-4.946c0-1.994-1.074-2.914-3.247-2.914-1.176 0-2.147.256-2.607.511zM78.064 61.26h-2.147v7.734h2.147v-4.09c0-1.636.818-1.969 1.368-1.969.665 0 1.035.563 1.035 1.445v4.614h2.16v-4.09c0-1.636.819-1.969 1.368-1.969.678 0 1.035.563 1.035 1.445v4.614h2.148v-4.972c0-1.88-.946-2.838-2.454-2.838-1.087 0-1.956.46-2.34 1.368-.357-.856-1.086-1.368-2.134-1.368-1.01 0-1.764.37-2.186 1.176zM93.657 65.568v.818c0 .678-.384 1.125-1.048 1.125-.64 0-.933-.307-.933-.818 0-.69.677-.818 1.227-.958zM90.014 63.6a4.24 4.24 0 012.313-.703c1.01 0 1.33.409 1.33 1.023v.268l-1.01.217c-1.879.448-3.221.588-3.221 2.39 0 1.24.844 2.25 2.39 2.25 1.138 0 1.649-.396 1.93-.882v.83h2.122v-4.946c0-1.994-1.074-2.914-3.247-2.914-1.175 0-2.147.256-2.607.511zM98.536 68.994h2.147V61.26h-2.147zm-.192-9.97c0 .69.563 1.253 1.266 1.253.69 0 1.265-.563 1.265-1.253a1.28 1.28 0 00-1.265-1.278c-.703 0-1.266.575-1.266 1.278zM103.44 68.994h2.147v-4.09c0-1.368.69-1.969 1.482-1.969.767 0 1.24.46 1.24 1.42v4.639h2.16v-5.036c0-1.84-.997-2.774-2.543-2.774-1.138 0-1.905.422-2.34 1.266v-1.19h-2.146zM116.935 65.568v.818c0 .678-.383 1.125-1.048 1.125-.639 0-.933-.307-.933-.818 0-.69.677-.818 1.227-.958zm-3.643-1.968a4.24 4.24 0 012.314-.703c1.01 0 1.33.409 1.33 1.023v.268l-1.01.217c-1.88.448-3.222.588-3.222 2.39 0 1.24.844 2.25 2.39 2.25 1.138 0 1.65-.396 1.93-.882v.83h2.122v-4.946c0-1.994-1.073-2.914-3.246-2.914-1.176 0-2.147.256-2.608.511zM122.019 56.851l.077 2.058.46 3.17h1.24l.447-3.17.077-2.058zM131.337 61.491c-.524-.217-1.24-.32-1.968-.32-1.611 0-2.979.831-2.979 2.365 0 1.227.78 1.828 1.573 2.199.78.357 1.559.575 1.559 1.073 0 .37-.32.563-.87.563-.881 0-1.712-.358-2.223-.716v1.93c.524.255 1.393.473 2.339.473 1.75 0 2.978-.818 2.978-2.378 0-1.112-.805-1.687-1.598-2.083-.78-.396-1.546-.614-1.546-1.125 0-.332.28-.588.856-.588.716 0 1.419.192 1.879.473zM144.711 58.884L143.69 62.5c-.767 2.697-1.06 4.013-1.06 4.013s-.18-1.342-.832-4.013l-.958-3.77h-2.39l2.748 10.263h2.556l.946-3.247c.792-2.671.856-3.374.856-3.374s.128.69.87 3.374l.894 3.247h2.556l2.723-10.264h-2.314l-.946 3.758c-.639 2.544-.869 4.039-.869 4.039s-.332-1.508-1.035-4.026l-1.01-3.617zM155.954 64.316c.217-.933.792-1.483 1.52-1.483.87 0 1.177.626 1.228 1.406v.077zm0 1.534h4.678c.05-.282.09-.857.09-1.176 0-2.301-1.343-3.49-3.337-3.49-1.93 0-3.566 1.38-3.566 3.937 0 2.25 1.419 3.95 4.026 3.95.767 0 1.84-.154 2.403-.512v-1.815c-.485.37-1.15.64-2.045.64-1.201 0-1.994-.614-2.25-1.534zM167.063 67.281c-1.01 0-1.75-.83-1.75-2.237 0-1.418.907-2.07 1.763-2.07.895 0 1.7.741 1.7 2.185 0 1.291-.78 2.122-1.713 2.122zm-1.75-9.062h-2.148v10.775h2.147V67.92c.6.908 1.406 1.176 2.326 1.176 2.11 0 3.324-1.904 3.324-3.975 0-2.505-1.458-3.95-3.336-3.95-.92 0-1.726.307-2.314 1.164zM178.081 61.491c-.524-.217-1.24-.32-1.968-.32-1.61 0-2.978.831-2.978 2.365 0 1.227.78 1.828 1.572 2.199.78.357 1.56.575 1.56 1.073 0 .37-.32.563-.87.563-.882 0-1.713-.358-2.224-.716v1.93c.524.255 1.393.473 2.34.473 1.75 0 2.977-.818 2.977-2.378 0-1.112-.805-1.687-1.597-2.083-.78-.396-1.547-.614-1.547-1.125 0-.332.281-.588.856-.588.716 0 1.42.192 1.88.473zM180.79 68.994h2.148V61.26h-2.147zm-.19-9.97c0 .69.562 1.253 1.265 1.253.69 0 1.265-.563 1.265-1.253a1.28 1.28 0 00-1.266-1.278c-.703 0-1.265.575-1.265 1.278zM188.212 62.846h1.815V61.26h-1.815v-1.828h-2.173v1.828h-1.112v1.585h1.112v3.617c0 1.687.857 2.608 2.62 2.608.41 0 1.087-.077 1.509-.256v-1.79a2.006 2.006 0 01-1.087.307c-.485 0-.869-.268-.869-.856zM194.16 64.316c.218-.933.793-1.483 1.521-1.483.87 0 1.176.626 1.227 1.406v.077zm0 1.534h4.678c.051-.282.09-.857.09-1.176 0-2.301-1.342-3.49-3.336-3.49-1.93 0-3.566 1.38-3.566 3.937 0 2.25 1.418 3.95 4.026 3.95.767 0 1.84-.154 2.403-.512v-1.815c-.486.37-1.15.64-2.045.64-1.202 0-1.994-.614-2.25-1.534z"/></g><g style="line-height:1.39999998;-inkscape-font-specification:'Mgen+ 1c Bold';text-align:start" aria-label="Web Developing Touhou Project Politics" font-weight="800" font-size="12.782" font-family="GenEi Univer Sans" letter-spacing=".201" word-spacing="0" fill="#fff" stroke-width=".265"><path style="line-height:1.39999998;-inkscape-font-specification:'GenEi Univer Sans Ultra-Bold';text-align:start" d="M149.044 83.091l-1.022 3.618c-.767 2.697-1.06 4.013-1.06 4.013s-.18-1.342-.832-4.013l-.958-3.77h-2.39l2.748 10.263h2.556l.946-3.247c.792-2.671.856-3.374.856-3.374s.128.69.87 3.374l.894 3.247h2.556l2.723-10.264h-2.314l-.946 3.758c-.639 2.543-.869 4.039-.869 4.039s-.332-1.508-1.035-4.026l-1.01-3.618zM159.652 88.524c.217-.933.792-1.483 1.52-1.483.87 0 1.177.626 1.228 1.406v.077zm0 1.533h4.678c.05-.28.09-.856.09-1.175 0-2.301-1.343-3.49-3.337-3.49-1.93 0-3.566 1.38-3.566 3.937 0 2.25 1.419 3.95 4.026 3.95.767 0 1.84-.154 2.403-.512v-1.815c-.485.37-1.15.64-2.045.64-1.201 0-1.994-.614-2.25-1.535zM170.126 91.489c-1.01 0-1.75-.83-1.75-2.237 0-1.419.907-2.07 1.763-2.07.895 0 1.7.741 1.7 2.185 0 1.291-.78 2.122-1.713 2.122zm-1.75-9.062h-2.148v10.775h2.147v-1.074c.6.908 1.406 1.176 2.326 1.176 2.11 0 3.324-1.904 3.324-3.975 0-2.505-1.458-3.95-3.336-3.95-.92 0-1.726.307-2.314 1.164zM182.563 91.336v-6.519h1.1c1.968 0 3.029 1.278 3.029 3.08 0 2.16-1.06 3.439-3.017 3.439zm-2.326-8.398v10.264h3.477c3.17 0 5.291-2.007 5.291-5.305 0-2.799-2.147-4.959-5.266-4.959zM192.485 88.524c.217-.933.792-1.483 1.521-1.483.87 0 1.176.626 1.227 1.406v.077zm0 1.533h4.678c.051-.28.09-.856.09-1.175 0-2.301-1.342-3.49-3.336-3.49-1.93 0-3.566 1.38-3.566 3.937 0 2.25 1.418 3.95 4.026 3.95.767 0 1.84-.154 2.403-.512v-1.815c-.486.37-1.15.64-2.045.64-1.202 0-1.994-.614-2.25-1.535zM201.068 93.202h2.237l2.863-7.733h-2.211l-1.049 3.298c-.575 1.802-.715 2.76-.715 2.76s-.141-.958-.69-2.76l-1.01-3.298h-2.263zM208.99 88.524c.216-.933.792-1.483 1.52-1.483.87 0 1.176.626 1.227 1.406v.077zm0 1.533h4.677c.051-.28.09-.856.09-1.175 0-2.301-1.342-3.49-3.336-3.49-1.93 0-3.566 1.38-3.566 3.937 0 2.25 1.418 3.95 4.026 3.95.767 0 1.84-.154 2.403-.512v-1.815c-.486.37-1.15.64-2.045.64-1.202 0-1.994-.614-2.25-1.535zM215.642 90.339c0 1.853.562 2.927 2.39 2.927.37 0 .677-.026.997-.154v-1.75a2.118 2.118 0 01-.665.127c-.46 0-.575-.37-.575-1.278v-7.784h-2.147zM223.31 93.33c2.454 0 3.758-1.777 3.758-4.027 0-2.198-1.265-3.95-3.758-3.95-2.339 0-3.796 1.752-3.796 4.078 0 2.173 1.291 3.899 3.796 3.899zm-.025-6.276c1.15 0 1.533 1.06 1.533 2.313 0 1.266-.434 2.275-1.495 2.275-1.06 0-1.547-1.035-1.547-2.3 0-1.253.448-2.288 1.509-2.288zM232.648 91.489c-.997 0-1.777-.83-1.777-2.224 0-1.432.92-2.083 1.79-2.083.92 0 1.674.69 1.674 2.172 0 1.355-.716 2.135-1.687 2.135zm-1.777-6.02h-2.147v10.596h2.147v-3.886c.588.87 1.38 1.125 2.34 1.125 2.147 0 3.31-1.79 3.31-3.988 0-2.416-1.33-3.937-3.31-3.937-.96 0-1.739.307-2.34 1.164zM238.264 93.202h2.147v-7.733h-2.147zm-.192-9.97c0 .69.562 1.253 1.265 1.253.69 0 1.266-.563 1.266-1.253a1.28 1.28 0 00-1.266-1.278c-.703 0-1.265.575-1.265 1.278zM242.532 93.202h2.147v-4.09c0-1.368.69-1.969 1.483-1.969.767 0 1.24.46 1.24 1.419v4.64h2.16v-5.036c0-1.84-.997-2.774-2.544-2.774-1.137 0-1.904.422-2.339 1.266v-1.19h-2.147zM254.933 91.233c-.908 0-1.458-.69-1.458-2.02 0-1.252.563-2.006 1.483-2.006.908 0 1.534.588 1.534 2.122 0 1.022-.55 1.904-1.56 1.904zm1.559-5.764v.92c-.46-.703-1.074-.997-2.045-.997-1.956 0-3.221 1.636-3.221 3.81 0 2.632 1.585 3.744 3.131 3.744.959 0 1.624-.23 2.135-.933v.422c0 1.24-.588 1.802-1.943 1.802-.971 0-1.917-.294-2.607-.83v2.198c.894.422 1.891.588 2.824.588 2.071 0 3.886-1.112 3.886-3.733V85.47zM150.514 101.084h-7.592v1.827h2.659v8.436h2.288v-8.436h2.645zM154.323 111.475c2.454 0 3.758-1.777 3.758-4.026 0-2.199-1.265-3.95-3.758-3.95-2.339 0-3.796 1.751-3.796 4.078 0 2.173 1.291 3.898 3.796 3.898zm-.025-6.276c1.15 0 1.533 1.061 1.533 2.314 0 1.265-.434 2.275-1.495 2.275-1.06 0-1.547-1.035-1.547-2.3 0-1.253.448-2.289 1.509-2.289zM159.66 108.804c0 1.738.959 2.607 2.518 2.607 1.15 0 1.918-.37 2.352-1.176v1.112h2.16v-7.733h-2.16v4.103c0 1.47-.613 1.969-1.495 1.969-.754 0-1.227-.46-1.227-1.38v-4.692h-2.148zM170.898 100.572h-2.147v10.775h2.147v-4.09c0-1.713.984-1.968 1.483-1.968.715 0 1.227.524 1.227 1.47v4.588h2.16v-4.946c0-1.994-1.125-2.863-2.544-2.863-1.214 0-1.904.409-2.326 1.265zM181.139 111.475c2.454 0 3.758-1.777 3.758-4.026 0-2.199-1.266-3.95-3.758-3.95-2.34 0-3.796 1.751-3.796 4.078 0 2.173 1.29 3.898 3.796 3.898zm-.026-6.276c1.15 0 1.534 1.061 1.534 2.314 0 1.265-.434 2.275-1.495 2.275-1.061 0-1.547-1.035-1.547-2.3 0-1.253.447-2.289 1.508-2.289zM186.476 108.804c0 1.738.959 2.607 2.518 2.607 1.15 0 1.917-.37 2.352-1.176v1.112h2.16v-7.733h-2.16v4.103c0 1.47-.614 1.969-1.496 1.969-.754 0-1.227-.46-1.227-1.38v-4.692h-2.147zM202.388 106.183V102.9h.946c1.252 0 1.776.613 1.776 1.559 0 1.035-.524 1.725-1.891 1.725zm-2.275-5.1v10.264h2.275v-3.349h1.201c2.045 0 3.822-1.188 3.822-3.54 0-1.93-1.495-3.374-3.822-3.374zM210.934 103.614H208.8l-.013 7.733h2.147v-3.885c0-1.176.665-1.956 1.624-1.956.255 0 .639.064.946.205v-2.046a2.626 2.626 0 00-.69-.089c-.92 0-1.547.486-1.88 1.355zM218.018 111.475c2.454 0 3.758-1.777 3.758-4.026 0-2.199-1.266-3.95-3.758-3.95-2.34 0-3.796 1.751-3.796 4.078 0 2.173 1.29 3.898 3.796 3.898zm-.026-6.276c1.15 0 1.534 1.061 1.534 2.314 0 1.265-.435 2.275-1.495 2.275-1.061 0-1.547-1.035-1.547-2.3 0-1.253.447-2.289 1.508-2.289zM221.81 114.12c.486.18.844.244 1.202.244 1.738 0 2.62-1.087 2.62-2.659v-8.09h-2.147v7.962c0 .767-.346 1.036-.806 1.036-.255 0-.562-.09-.869-.23zm1.47-12.742c0 .69.575 1.252 1.278 1.252.69 0 1.253-.562 1.253-1.252 0-.703-.563-1.279-1.253-1.279-.703 0-1.278.576-1.278 1.279zM229.415 106.67c.218-.934.793-1.484 1.521-1.484.87 0 1.176.627 1.227 1.406v.077zm0 1.533h4.678c.051-.281.09-.856.09-1.176 0-2.3-1.342-3.49-3.336-3.49-1.93 0-3.566 1.381-3.566 3.937 0 2.25 1.418 3.95 4.026 3.95.767 0 1.84-.153 2.403-.511v-1.815c-.486.37-1.15.639-2.045.639-1.202 0-1.994-.614-2.25-1.534zM237.794 107.5c.012-1.457.933-2.211 2.147-2.211a3.42 3.42 0 011.79.511v-1.866c-.69-.37-1.407-.435-2.007-.435-2.62 0-4.103 1.79-4.129 4.001 0 2.339 1.675 3.975 4 3.975.78 0 1.547-.166 2.135-.486v-1.815a3.48 3.48 0 01-1.827.537c-1.253 0-2.033-.843-2.11-2.211zM245.85 105.2h1.815v-1.586h-1.815v-1.827h-2.173v1.827h-1.112v1.585h1.112v3.617c0 1.688.857 2.608 2.62 2.608.41 0 1.087-.077 1.509-.256v-1.79a2.006 2.006 0 01-1.087.308c-.485 0-.869-.269-.869-.857zM145.76 124.329v-3.285h.945c1.253 0 1.777.614 1.777 1.56 0 1.035-.524 1.725-1.892 1.725zm-2.276-5.1v10.264h2.276v-3.35h1.201c2.045 0 3.822-1.188 3.822-3.54 0-1.93-1.496-3.374-3.822-3.374zM155.197 129.62c2.454 0 3.758-1.776 3.758-4.026 0-2.198-1.266-3.95-3.758-3.95-2.339 0-3.796 1.752-3.796 4.078 0 2.173 1.29 3.899 3.796 3.899zm-.026-6.275c1.15 0 1.534 1.06 1.534 2.313 0 1.266-.434 2.275-1.495 2.275-1.061 0-1.547-1.035-1.547-2.3 0-1.253.448-2.288 1.508-2.288zM160.688 126.63c0 1.853.562 2.927 2.39 2.927.37 0 .677-.026.997-.154v-1.75a2.119 2.119 0 01-.665.127c-.46 0-.575-.37-.575-1.278v-7.784h-2.147zM165.033 129.493h2.147v-7.733h-2.147zm-.192-9.97c0 .69.562 1.253 1.265 1.253.69 0 1.266-.563 1.266-1.253a1.28 1.28 0 00-1.266-1.278c-.703 0-1.265.575-1.265 1.278zM171.82 123.345h1.814v-1.585h-1.815v-1.828h-2.173v1.828h-1.112v1.585h1.112v3.617c0 1.687.857 2.607 2.62 2.607.41 0 1.087-.076 1.509-.255v-1.79a2.006 2.006 0 01-1.087.307c-.485 0-.869-.268-.869-.856zM175.445 129.493h2.148v-7.733h-2.148zm-.191-9.97c0 .69.562 1.253 1.265 1.253.69 0 1.265-.563 1.265-1.253a1.28 1.28 0 00-1.265-1.278c-.703 0-1.265.575-1.265 1.278zM181.516 125.645c.013-1.457.933-2.21 2.147-2.21a3.42 3.42 0 011.79.51v-1.866c-.69-.37-1.406-.434-2.007-.434-2.62 0-4.103 1.79-4.128 4 0 2.34 1.674 3.976 4 3.976.78 0 1.547-.167 2.135-.486v-1.815a3.48 3.48 0 01-1.828.537c-1.253 0-2.032-.844-2.109-2.212zM191.873 121.99c-.524-.217-1.24-.32-1.968-.32-1.61 0-2.978.831-2.978 2.365 0 1.227.78 1.828 1.572 2.198.78.358 1.56.576 1.56 1.074 0 .37-.32.562-.87.562-.882 0-1.712-.357-2.224-.715v1.93c.524.255 1.393.473 2.34.473 1.75 0 2.977-.818 2.977-2.378 0-1.112-.805-1.687-1.597-2.083-.78-.396-1.547-.614-1.547-1.125 0-.332.281-.588.857-.588.715 0 1.418.192 1.878.473z"/></g><g style="line-height:1.39999998;-inkscape-font-specification:'Mgen+ 1c Bold';text-align:start" aria-label="Diary VTuber Railway" font-weight="800" font-size="12.782" font-family="GenEi Univer Sans" letter-spacing=".201" word-spacing="0" fill="#fff" stroke-width=".265"><path style="line-height:1.39999998;-inkscape-font-specification:'GenEi Univer Sans Ultra-Bold';text-align:start" d="M47.236 91.336v-6.519h1.1c1.968 0 3.028 1.278 3.028 3.08 0 2.16-1.06 3.439-3.016 3.439zm-2.326-8.398v10.264h3.476c3.17 0 5.292-2.007 5.292-5.305 0-2.799-2.147-4.959-5.266-4.959zM55.496 93.202h2.147v-7.733h-2.147zm-.192-9.97c0 .69.563 1.253 1.266 1.253.69 0 1.265-.563 1.265-1.253a1.28 1.28 0 00-1.265-1.278c-.703 0-1.266.575-1.266 1.278zM63.612 89.776v.818c0 .678-.384 1.125-1.048 1.125-.64 0-.934-.307-.934-.818 0-.69.678-.818 1.228-.959zm-3.643-1.968a4.24 4.24 0 012.313-.703c1.01 0 1.33.409 1.33 1.022v.269l-1.01.217c-1.879.448-3.221.588-3.221 2.39 0 1.24.843 2.25 2.39 2.25 1.138 0 1.649-.396 1.93-.882v.83h2.122v-4.946c0-1.994-1.074-2.914-3.247-2.914-1.176 0-2.147.256-2.607.511zM69.914 85.469h-2.135l-.013 7.733h2.148v-3.886c0-1.176.664-1.955 1.623-1.955.256 0 .64.063.946.204V85.52a2.626 2.626 0 00-.69-.09c-.92 0-1.547.486-1.88 1.355zM76.206 93.074c-.383.933-.92 1.38-1.84 1.38-.167 0-.346 0-.525-.05v1.712c.294.064.473.077.844.077 1.598 0 2.812-1.01 3.643-3.209l2.786-7.515h-2.211l-.78 2.416c-.677 2.16-.843 2.76-.843 2.76s-.102-.6-.857-2.76l-.856-2.416h-2.352zM53.614 101.084h-2.428l-1.24 4.09c-.767 2.505-1.023 4.115-1.023 4.115s-.255-1.597-1.022-4.115l-1.24-4.09h-2.454l3.425 10.263h2.518zM62.401 101.084h-7.592v1.827h2.658v8.436h2.288v-8.436h2.646zM63.058 108.804c0 1.738.958 2.607 2.518 2.607 1.15 0 1.917-.37 2.352-1.176v1.112h2.16v-7.733h-2.16v4.103c0 1.47-.614 1.969-1.496 1.969-.754 0-1.227-.46-1.227-1.38v-4.692h-2.147zM76.046 109.634c-1.01 0-1.75-.83-1.75-2.236 0-1.42.907-2.07 1.763-2.07.895 0 1.7.74 1.7 2.185 0 1.29-.78 2.121-1.713 2.121zm-1.75-9.062h-2.148v10.775h2.147v-1.073c.601.907 1.406 1.175 2.327 1.175 2.109 0 3.323-1.904 3.323-3.975 0-2.505-1.457-3.95-3.336-3.95-.92 0-1.726.308-2.314 1.164zM83.349 106.67c.217-.934.793-1.484 1.521-1.484.87 0 1.176.627 1.227 1.406v.077zm0 1.533h4.678c.051-.281.09-.856.09-1.176 0-2.3-1.342-3.49-3.336-3.49-1.93 0-3.566 1.381-3.566 3.937 0 2.25 1.418 3.95 4.026 3.95.767 0 1.84-.153 2.403-.511v-1.815c-.486.37-1.15.639-2.045.639-1.202 0-1.994-.614-2.25-1.534zM92.06 103.614h-2.135l-.013 7.733h2.148v-3.885c0-1.176.664-1.956 1.623-1.956.256 0 .64.064.946.205v-2.046a2.626 2.626 0 00-.69-.089c-.92 0-1.547.486-1.88 1.355zM44.91 129.493h2.275V125.9h.767l2.25 3.592h2.722l-2.62-3.963c1.112-.485 1.878-1.47 1.878-3.029 0-1.93-1.47-3.272-3.796-3.272H44.91zm2.275-5.458v-2.965h1.176c.946 0 1.534.536 1.534 1.444 0 .997-.486 1.52-1.573 1.52zM58.168 126.067v.818c0 .678-.383 1.125-1.048 1.125-.64 0-.933-.307-.933-.818 0-.69.677-.818 1.227-.959zm-3.643-1.968a4.24 4.24 0 012.314-.703c1.01 0 1.33.409 1.33 1.022v.269l-1.01.217c-1.88.447-3.222.588-3.222 2.39 0 1.24.844 2.25 2.39 2.25 1.138 0 1.65-.396 1.93-.882v.83h2.122v-4.946c0-1.994-1.073-2.914-3.246-2.914-1.176 0-2.148.256-2.608.511zM62.412 129.493h2.148v-7.733h-2.148zm-.191-9.97c0 .69.562 1.253 1.265 1.253.69 0 1.265-.563 1.265-1.253a1.28 1.28 0 00-1.265-1.278c-.703 0-1.265.575-1.265 1.278zM66.757 126.63c0 1.853.563 2.927 2.39 2.927.371 0 .678-.026.998-.154v-1.75a2.119 2.119 0 01-.665.127c-.46 0-.575-.37-.575-1.278v-7.784h-2.148zM72.675 129.493h2.224l.677-2.531c.499-1.917.665-2.927.665-2.927s.14 1.01.652 2.927l.677 2.53h2.237l2.467-7.732h-2.135l-.728 2.556c-.64 2.237-.742 3.144-.742 3.144s-.115-.907-.754-3.144l-.741-2.556h-1.866l-.754 2.556c-.652 2.224-.767 3.144-.767 3.144s-.102-.933-.69-3.144l-.665-2.556h-2.237zM87.332 126.067v.818c0 .678-.384 1.125-1.048 1.125-.64 0-.933-.307-.933-.818 0-.69.677-.818 1.227-.959zm-3.643-1.968a4.24 4.24 0 012.313-.703c1.01 0 1.33.409 1.33 1.022v.269l-1.01.217c-1.879.447-3.221.588-3.221 2.39 0 1.24.844 2.25 2.39 2.25 1.138 0 1.649-.396 1.93-.882v.83h2.122v-4.946c0-1.994-1.074-2.914-3.247-2.914-1.176 0-2.147.256-2.607.511zM93.634 129.365c-.384.933-.92 1.38-1.84 1.38-.167 0-.346 0-.525-.05v1.712c.294.064.473.077.844.077 1.598 0 2.812-1.01 3.643-3.209l2.786-7.515h-2.211l-.78 2.416c-.677 2.16-.844 2.76-.844 2.76s-.102-.6-.856-2.76l-.856-2.416h-2.352z"/></g><path d="M32.756 91.529l1.063-2.948 1.063-2.949 2.022 2.395 2.021 2.394-3.084.554zM35.011 110.122l-.897-3.002-.897-3.003 3.049.724 3.049.724-2.152 2.279zM32.186 127.211l1.696-2.635 1.696-2.635 1.434 2.786 1.434 2.787-3.13-.152zM131.907 123.429l3.063-.665 3.063-.664-.957 2.985-.956 2.984-2.106-2.32zM133.028 103.37l2.584 1.773 2.584 1.773-2.828 1.351-2.828 1.351.244-3.124zM137.583 85.33l-.244 3.124-.244 3.125-2.584-1.774-2.584-1.773 2.828-1.35z" fill="#fff"/></svg>