<svg xmlns="http://www.w3.org/2000/svg" viewBox="0 0 317.5 166.688" height="630" width="1200"><defs><linearGradient id="a"><stop offset="0" stop-color="#a8a100"/><stop offset="1" stop-color="#cad000"/></linearGradient></defs><path fill="#00251b" d="M0 0h317.5v166.688H0z"/><text style="line-height:1.25;-inkscape-font-specification:'Mgen+ 1c Ultra-Bold';text-align:start" x="25.467" y="49.626" font-weight="800" font-size="33.665" font-family="Mgen+ 1c" letter-spacing="0" word-spacing="0" fill="#fff" stroke-width=".265"><tspan x="25.467" y="49.626" style="-inkscape-font-specification:'Mgen+ 1c Ultra-Bold';text-align:start">a9z.dev</tspan></text><text y="68.585" x="26.53" style="line-height:1.25;-inkscape-font-specification:'Mgen+ 1c Bold';text-align:start" font-weight="700" font-size="12.782" font-family="Mgen+ 1c" letter-spacing=".836" word-spacing="0" fill="#fff" stroke-width=".265"><tspan style="-inkscape-font-specification:'GenEi Univer Sans Ultra-Bold';text-align:start" y="68.585" x="26.53" font-weight="800" font-family="GenEi Univer Sans">aqz/tamaina&apos;s Website</tspan></text><text style="line-height:1.39999998;-inkscape-font-specification:'Mgen+ 1c Bold';text-align:start" x="142.475" y="92.793" font-weight="700" font-size="12.782" font-family="Mgen+ 1c" letter-spacing="0" word-spacing="0" fill="#fff" stroke-width=".265"><tspan x="142.475" y="92.793" style="line-height:1.39999998;-inkscape-font-specification:'GenEi Univer Sans Ultra-Bold';text-align:start" font-weight="800" font-family="GenEi Univer Sans" letter-spacing=".201">Web Developing</tspan><tspan x="142.475" y="110.938" style="line-height:1.39999998;-inkscape-font-specification:'GenEi Univer Sans Ultra-Bold';text-align:start" font-weight="800" font-family="GenEi Univer Sans" letter-spacing=".201">Touhou Project</tspan><tspan x="142.475" y="129.084" style="line-height:1.39999998;-inkscape-font-specification:'GenEi Univer Sans Ultra-Bold';text-align:start" font-weight="800" font-family="GenEi Univer Sans" letter-spacing=".201">Politics</tspan></text><text y="92.793" x="43.9" style="line-height:1.39999998;-inkscape-font-specification:'Mgen+ 1c Bold';text-align:start" font-weight="700" font-size="12.782" font-family="Mgen+ 1c" letter-spacing="0" word-spacing="0" fill="#fff" stroke-width=".265"><tspan style="line-height:1.39999998;-inkscape-font-specification:'GenEi Univer Sans Ultra-Bold';text-align:start" y="92.793" x="43.9" font-weight="800" font-family="GenEi Univer Sans" letter-spacing=".201">Diary</tspan><tspan style="line-height:1.39999998;-inkscape-font-specification:'GenEi Univer Sans Ultra-Bold';text-align:start" y="110.938" x="43.9" font-weight="800" font-family="GenEi Univer Sans" letter-spacing=".201">VTuber</tspan><tspan style="line-height:1.39999998;-inkscape-font-specification:'GenEi Univer Sans Ultra-Bold';text-align:start" y="129.084" x="43.9" font-weight="800" font-family="GenEi Univer Sans" letter-spacing=".201">Railway</tspan></text><path d="M32.756 91.529l1.063-2.948 1.063-2.949 2.022 2.395 2.021 2.394-3.084.554zM35.011 110.122l-.897-3.002-.897-3.003 3.049.724 3.049.724-2.152 2.279zM32.186 127.211l1.696-2.635 1.696-2.635 1.434 2.786 1.434 2.787-3.13-.152zM131.907 123.429l3.063-.665 3.063-.664-.957 2.985-.956 2.984-2.106-2.32zM133.028 103.37l2.584 1.773 2.584 1.773-2.828 1.351-2.828 1.351.244-3.124zM137.583 85.33l-.244 3.124-.244 3.125-2.584-1.774-2.584-1.773 2.828-1.35z" fill="#fff"/></svg>