<svg xmlns="http://www.w3.org/2000/svg" xmlns:xlink="http://www.w3.org/1999/xlink" viewBox="0 0 158.75 158.75" height="600" width="600"><defs><linearGradient id="a"><stop offset="0" stop-color="#a8a100"/><stop offset="1" stop-color="#cad000"/></linearGradient><linearGradient gradientTransform="scale(1.12028 .89263)" spreadMethod="reflect" gradientUnits="userSpaceOnUse" y2="161.077" x2="297.749" y1="173.118" x1="210.523" id="b" xlink:href="#a"/></defs><path fill="#fff" paint-order="fill markers stroke" d="M0 0h158.75v158.75H0z"/><g style="line-height:166.94496155px;-inkscape-font-specification:'MGP heavy, '" transform="matrix(.89263 0 0 1.12028 -191.298 -86.386)" aria-label="maqz" font-weight="400" font-size="49.392" font-family="Gill Sans Ultra Bold" letter-spacing="0" word-spacing="0" fill="url(#b)" stroke-width=".265"><path style="-inkscape-font-specification:'Gill Sans Ultra Bold, '" d="M236.69 134.121v3.642q3.618-3.883 8.948-3.883 6.342 0 9.381 5.016 2.484-2.604 4.968-3.81 2.509-1.206 5.644-1.206 4.727 0 7.452 2.894 2.725 2.894 2.725 8.152v18.232h-14.084v-17.34q0-1.544-.772-2.388-.748-.868-1.978-.868-1.374 0-2.725.94v19.656h-14.084v-17.34q0-1.52-.748-2.388-.723-.868-2.002-.868-1.326 0-2.725.989v19.607h-14.904v-29.037zM281.403 146.059v-8.73q6.32-3.45 14.326-3.45 7.621 0 11.239 3.257 3.617 3.255 3.617 9.96v16.062h-14.904v-2.17q-3.304 2.411-7.26 2.411-3.328 0-5.546-2.146-2.22-2.17-2.22-5.45 0-3.739 2.75-6.078 2.75-2.364 7.187-2.364 2.605 0 5.089.676 0-2.026-1.568-3.16-1.543-1.133-4.317-1.133-4.1 0-8.393 2.315zm14.278 10.684v-4.052q-1.35-.458-2.436-.458-1.35 0-2.17.7-.82.699-.82 1.832 0 1.182.868 1.978.892.796 2.243.796 1.374 0 2.315-.796zM350.162 171.31h-14.929v-8.634q-2.243 1.085-5.62 1.085-6.15 0-10.225-4.148-4.052-4.172-4.052-10.491 0-6.536 4.438-10.756 4.462-4.245 12.251-4.245h18.137zm-14.929-19.704v-6.536h-1.423q-4.148 0-4.148 3.618 0 1.592.892 2.653.893 1.06 2.22 1.06 1.398 0 2.459-.795zM384.529 153.439v9.72H353.44l10.491-19.753h-9.14v-9.285h29.881L374.4 153.439z"/></g></svg>