<svg xmlns="http://www.w3.org/2000/svg" xmlns:xlink="http://www.w3.org/1999/xlink" viewBox="0 0 158.75 15.875" height="60" width="600"><defs><linearGradient gradientTransform="matrix(.81253 0 0 1.23073 -155.435 239.67)" spreadMethod="reflect" gradientUnits="userSpaceOnUse" y2="161.077" x2="297.749" y1="173.118" x1="210.523" id="b" xlink:href="#a"/><linearGradient id="a"><stop offset="0" stop-color="#a8a100"/><stop offset="1" stop-color="#cad000"/></linearGradient></defs><path fill="#fff" paint-order="fill markers stroke" d="M0 0h158.75v15.875H0z"/><g style="line-height:76.99681091px;-inkscape-font-specification:'MGP heavy, '" transform="matrix(1.23073 0 0 .81253 0 -281.125)" aria-label="maqz" font-weight="400" font-size="22.78" font-family="Gill Sans Ultra Bold" letter-spacing="0" word-spacing="0" fill="url(#b)" stroke-width=".265"><path style="-inkscape-font-specification:'Gill Sans Ultra Bold, '" d="M33.806 347.237v1.68q1.668-1.79 4.126-1.79 2.926 0 4.327 2.313 1.146-1.202 2.292-1.758 1.156-.556 2.602-.556 2.18 0 3.437 1.335 1.257 1.335 1.257 3.76v8.409h-6.496v-7.998q0-.712-.356-1.101-.344-.4-.912-.4-.634 0-1.257.433v9.066h-6.495v-7.998q0-.7-.345-1.101-.334-.4-.923-.4-.612 0-1.257.455v9.044h-6.874v-13.393zM54.428 352.743v-4.026q2.914-1.59 6.607-1.59 3.515 0 5.183 1.5 1.669 1.502 1.669 4.595v7.408h-6.874v-1.002q-1.524 1.113-3.348 1.113-1.535 0-2.559-.99-1.023-1.001-1.023-2.514 0-1.724 1.268-2.803 1.268-1.09 3.315-1.09 1.201 0 2.347.311 0-.934-.723-1.457-.712-.523-1.991-.523-1.891 0-3.871 1.068zm6.585 4.928v-1.869q-.623-.211-1.124-.211-.623 0-1 .322-.379.323-.379.846 0 .545.4.912.412.367 1.035.367.634 0 1.068-.367zM86.14 364.39h-6.885v-3.983q-1.035.5-2.592.5-2.836 0-4.716-1.913-1.869-1.924-1.869-4.838 0-3.014 2.047-4.961 2.058-1.958 5.65-1.958h8.365zm-6.885-9.088v-3.015h-.657q-1.913 0-1.913 1.669 0 .734.412 1.223.411.49 1.023.49.645 0 1.135-.367zM101.99 356.147v4.483H87.653l4.838-9.11h-4.216v-4.283h13.782l-4.738 8.91z"/></g></svg>