<svg xmlns="http://www.w3.org/2000/svg" width="600" height="60" viewBox="0 0 158.75 15.875"><defs><linearGradient id="a"><stop offset="0" stop-color="#a8a100"/><stop offset="1" stop-color="#cad000"/></linearGradient></defs><rect ry="5.479" rx="5.479" height="15.875" width="158.75" fill="#00251b"/><g style="line-height:1.25;-inkscape-font-specification:'Mgen+ 1c Ultra-Bold';text-align:center" aria-label="a9z.dev" font-weight="800" font-size="16.802" font-family="Mgen+ 1c" letter-spacing="0" word-spacing="0" text-anchor="middle" fill="#fff" stroke-width=".265"><path style="-inkscape-font-specification:'Mgen+ 1c Ultra-Bold'" d="M51.129 5.246q2.199 0 3.101.804.919.788.919 2.61v5.496h-2.527l-.033-1.165h-.033Q51.523 14.32 49.8 14.32q-1.165 0-1.92-.739-.738-.754-.738-1.952 0-3.052 4.528-3.052h.771v-.213q0-.64-.328-.92-.328-.294-1.099-.294-1.427 0-3.364.557V5.755q1.772-.509 3.479-.509zm1.313 4.906h-.772q-2.05 0-2.034 1.264 0 .46.262.722.263.246.722.246.804 0 1.313-.509.509-.509.509-1.362zM58.037 11.777q1.312.492 2.707.475 1.296 0 2.002-.722.722-.721.804-2.133l-.05-.016q-.951.738-2.494.738-2.001 0-3.068-1.066-1.066-1.083-1.066-3.134 0-1.936 1.263-3.068 1.28-1.132 3.462-1.132 2.264 0 3.495 1.361 1.247 1.362 1.247 4.02 0 7.22-5.497 7.22-1.378 0-2.805-.328zm3.56-7.991q-.919 0-1.46.558-.525.558-.525 1.526 0 1.165.508 1.755.525.591 1.477.591.919 0 1.444-.607.541-.607.541-1.74 0-.934-.557-1.509-.558-.574-1.428-.574zM68.21 5.427h7.383v1.887l-4.004 4.906v.032h4.004v1.904h-7.384v-1.904l3.988-4.906v-.032h-3.988zM77.989 14.156v-3.2h3.2v3.2zM89.015 1.555h2.707v12.6h-2.51l-.033-1.115h-.033q-1.1 1.28-2.675 1.28-1.493 0-2.46-1.198-.952-1.198-.952-3.33 0-2.183.918-3.364.936-1.182 2.494-1.182 1.379 0 2.51 1.05h.034zM85.717 9.79q0 1.28.443 1.904.46.607 1.23.607.673 0 1.165-.443.509-.46.509-1.034V8.741q0-.574-.509-1.017-.492-.46-1.165-.46-1.673 0-1.673 2.527zM96.136 8.97h3.117q-.016-1.886-1.477-1.886-.787 0-1.181.443-.377.427-.46 1.444zm0 1.609q.114 1 .689 1.444.574.426 1.772.426.935 0 2.543-.475v1.952q-1.542.41-2.937.394-2.28 0-3.528-1.149-1.23-1.165-1.23-3.38 0-2.198 1.1-3.363 1.098-1.182 3.182-1.182 4.07 0 4.07 4.512 0 .361-.066.82zM105.505 5.427l1.624 7.17h.033l1.624-7.17h2.822l-2.69 8.729h-3.61l-2.691-8.73z"/></g></svg>