<svg xmlns:osb="http://www.openswatchbook.org/uri/2009/osb" xmlns="http://www.w3.org/2000/svg" xmlns:xlink="http://www.w3.org/1999/xlink" width="720" height="378" viewBox="0 0 190.5 100.013"><defs><linearGradient osb:paint="solid" id="a"><stop offset="0" stop-color="#c678c5"/></linearGradient><linearGradient osb:paint="solid" id="c"><stop offset="0" stop-color="#6d6d6d"/></linearGradient><linearGradient osb:paint="solid" id="b"><stop offset="0" stop-color="#f1007e"/></linearGradient><linearGradient y2="-1355.433" x2="3254.953" y1="-1355.433" x1="3241.684" gradientUnits="userSpaceOnUse" id="d" xlink:href="#b" gradientTransform="matrix(3.42049 0 0 3.42049 -7962.419 3329.185)"/><linearGradient y2="-1355.433" x2="3239.03" y1="-1355.433" x1="3225.76" gradientUnits="userSpaceOnUse" id="h" xlink:href="#c" gradientTransform="matrix(3.42049 0 0 3.42049 -7962.419 3329.185)"/><linearGradient gradientTransform="translate(-41397.199 16862.923) scale(12.65609)" y2="-1355.433" x2="3239.03" y1="-1355.433" x1="3225.76" gradientUnits="userSpaceOnUse" id="i" xlink:href="#c"/><linearGradient y2="-1354.622" x2="3322.194" y1="-1354.622" x1="3269.126" gradientTransform="translate(-40094.495 16844.445) scale(12.24944)" gradientUnits="userSpaceOnUse" id="j" xlink:href="#c"/><linearGradient y2="-1356.536" x2="3349.068" y1="-1356.536" x1="3323.995" gradientTransform="translate(-40083.115 16844.445) scale(12.24944)" gradientUnits="userSpaceOnUse" id="k" xlink:href="#b"/><linearGradient xlink:href="#b" id="f" gradientUnits="userSpaceOnUse" x1="3241.684" y1="-1355.433" x2="3254.953" y2="-1355.433" gradientTransform="matrix(3.42049 0 0 3.42049 -6385.34 2370.624)"/><linearGradient xlink:href="#b" id="g" gradientUnits="userSpaceOnUse" x1="3241.684" y1="-1355.433" x2="3254.953" y2="-1355.433" gradientTransform="matrix(3.42049 0 0 3.42049 -6385.34 2370.624)"/><linearGradient xlink:href="#b" id="e" gradientUnits="userSpaceOnUse" x1="3241.684" y1="-1355.433" x2="3254.953" y2="-1355.433" gradientTransform="matrix(3.42049 0 0 3.42049 -6385.34 2370.624)"/><linearGradient xlink:href="#b" id="n" gradientUnits="userSpaceOnUse" gradientTransform="matrix(2.71597 0 0 2.71597 -4136.425 1705.492)" x1="3241.684" y1="-1355.433" x2="3254.953" y2="-1355.433"/><linearGradient xlink:href="#b" id="o" gradientUnits="userSpaceOnUse" gradientTransform="matrix(2.71597 0 0 2.71597 -4136.425 1705.492)" x1="3241.684" y1="-1355.433" x2="3254.953" y2="-1355.433"/><linearGradient xlink:href="#b" id="m" gradientUnits="userSpaceOnUse" gradientTransform="matrix(2.71597 0 0 2.71597 -4136.425 1705.492)" x1="3241.684" y1="-1355.433" x2="3254.953" y2="-1355.433"/><linearGradient xlink:href="#b" id="l" gradientUnits="userSpaceOnUse" gradientTransform="matrix(2.71597 0 0 2.71597 -5545.161 2366.532)" x1="3241.684" y1="-1355.433" x2="3254.953" y2="-1355.433"/><linearGradient xlink:href="#c" id="q" gradientUnits="userSpaceOnUse" gradientTransform="matrix(10.04932 0 0 10.04932 -32453.143 13301.028)" x1="3225.76" y1="-1355.433" x2="3239.03" y2="-1355.433"/><linearGradient xlink:href="#c" id="p" gradientUnits="userSpaceOnUse" gradientTransform="matrix(2.71597 0 0 2.71597 -5545.161 2366.532)" x1="3225.76" y1="-1355.433" x2="3239.03" y2="-1355.433"/><linearGradient xlink:href="#b" id="t" gradientUnits="userSpaceOnUse" gradientTransform="matrix(2.71597 0 0 2.71597 -3436.488 1756.205)" x1="3241.684" y1="-1355.433" x2="3254.953" y2="-1355.433"/><linearGradient xlink:href="#b" id="u" gradientUnits="userSpaceOnUse" gradientTransform="matrix(2.71597 0 0 2.71597 -3436.488 1756.205)" x1="3241.684" y1="-1355.433" x2="3254.953" y2="-1355.433"/><linearGradient xlink:href="#b" id="s" gradientUnits="userSpaceOnUse" gradientTransform="matrix(2.71597 0 0 2.71597 -3436.488 1756.205)" x1="3241.684" y1="-1355.433" x2="3254.953" y2="-1355.433"/><linearGradient xlink:href="#b" id="r" gradientUnits="userSpaceOnUse" gradientTransform="matrix(2.71597 0 0 2.71597 -5366.42 2379.482)" x1="3241.684" y1="-1355.433" x2="3254.953" y2="-1355.433"/><linearGradient xlink:href="#c" id="w" gradientUnits="userSpaceOnUse" gradientTransform="matrix(10.04932 0 0 10.04932 -31791.784 13348.946)" x1="3225.76" y1="-1355.433" x2="3239.03" y2="-1355.433"/><linearGradient xlink:href="#c" id="v" gradientUnits="userSpaceOnUse" gradientTransform="matrix(2.71597 0 0 2.71597 -5366.42 2379.482)" x1="3225.76" y1="-1355.433" x2="3239.03" y2="-1355.433"/><linearGradient xlink:href="#b" id="z" gradientUnits="userSpaceOnUse" gradientTransform="matrix(4.67543 0 0 4.67543 -7480.393 3113.516)" x1="3241.684" y1="-1355.433" x2="3254.953" y2="-1355.433"/><linearGradient xlink:href="#b" id="A" gradientUnits="userSpaceOnUse" gradientTransform="matrix(4.67543 0 0 4.67543 -7480.393 3113.516)" x1="3241.684" y1="-1355.433" x2="3254.953" y2="-1355.433"/><linearGradient xlink:href="#b" id="y" gradientUnits="userSpaceOnUse" gradientTransform="matrix(4.67543 0 0 4.67543 -7480.393 3113.516)" x1="3241.684" y1="-1355.433" x2="3254.953" y2="-1355.433"/><linearGradient xlink:href="#b" id="x" gradientUnits="userSpaceOnUse" gradientTransform="matrix(4.67543 0 0 4.67543 -11524.885 4931.094)" x1="3241.684" y1="-1355.433" x2="3254.953" y2="-1355.433"/><linearGradient xlink:href="#c" id="C" gradientUnits="userSpaceOnUse" gradientTransform="matrix(17.29947 0 0 17.29947 -54578.623 22790.12)" x1="3225.76" y1="-1355.433" x2="3239.03" y2="-1355.433"/><linearGradient xlink:href="#c" id="B" gradientUnits="userSpaceOnUse" gradientTransform="matrix(4.67543 0 0 4.67543 -11524.885 4931.094)" x1="3225.76" y1="-1355.433" x2="3239.03" y2="-1355.433"/><linearGradient xlink:href="#b" id="F" gradientUnits="userSpaceOnUse" gradientTransform="matrix(4.67543 0 0 4.67543 -7898.229 2757.068)" x1="3241.684" y1="-1355.433" x2="3254.953" y2="-1355.433"/><linearGradient xlink:href="#b" id="G" gradientUnits="userSpaceOnUse" gradientTransform="matrix(4.67543 0 0 4.67543 -7898.229 2757.068)" x1="3241.684" y1="-1355.433" x2="3254.953" y2="-1355.433"/><linearGradient xlink:href="#b" id="E" gradientUnits="userSpaceOnUse" gradientTransform="matrix(4.67543 0 0 4.67543 -7898.229 2757.068)" x1="3241.684" y1="-1355.433" x2="3254.953" y2="-1355.433"/><linearGradient xlink:href="#b" id="D" gradientUnits="userSpaceOnUse" gradientTransform="matrix(4.67543 0 0 4.67543 -11631.587 4840.069)" x1="3241.684" y1="-1355.433" x2="3254.953" y2="-1355.433"/><linearGradient xlink:href="#c" id="I" gradientUnits="userSpaceOnUse" gradientTransform="matrix(17.29947 0 0 17.29947 -54973.429 22453.319)" x1="3225.76" y1="-1355.433" x2="3239.03" y2="-1355.433"/><linearGradient xlink:href="#c" id="H" gradientUnits="userSpaceOnUse" gradientTransform="matrix(4.67543 0 0 4.67543 -11631.587 4840.069)" x1="3225.76" y1="-1355.433" x2="3239.03" y2="-1355.433"/><linearGradient xlink:href="#b" id="L" gradientUnits="userSpaceOnUse" gradientTransform="matrix(2.71597 0 0 2.71597 -3577.45 1426.794)" x1="3241.684" y1="-1355.433" x2="3254.953" y2="-1355.433"/><linearGradient xlink:href="#b" id="M" gradientUnits="userSpaceOnUse" gradientTransform="matrix(2.71597 0 0 2.71597 -3577.45 1426.794)" x1="3241.684" y1="-1355.433" x2="3254.953" y2="-1355.433"/><linearGradient xlink:href="#b" id="K" gradientUnits="userSpaceOnUse" gradientTransform="matrix(2.71597 0 0 2.71597 -3577.45 1426.794)" x1="3241.684" y1="-1355.433" x2="3254.953" y2="-1355.433"/><linearGradient xlink:href="#b" id="J" gradientUnits="userSpaceOnUse" gradientTransform="matrix(2.71597 0 0 2.71597 -5402.417 2295.361)" x1="3241.684" y1="-1355.433" x2="3254.953" y2="-1355.433"/><linearGradient xlink:href="#c" id="O" gradientUnits="userSpaceOnUse" gradientTransform="matrix(10.04932 0 0 10.04932 -31924.977 13037.691)" x1="3225.76" y1="-1355.433" x2="3239.03" y2="-1355.433"/><linearGradient xlink:href="#c" id="N" gradientUnits="userSpaceOnUse" gradientTransform="matrix(2.71597 0 0 2.71597 -5402.417 2295.361)" x1="3225.76" y1="-1355.433" x2="3239.03" y2="-1355.433"/><linearGradient xlink:href="#b" id="R" gradientUnits="userSpaceOnUse" gradientTransform="matrix(4.67543 0 0 4.67543 -8580.842 3318.482)" x1="3241.684" y1="-1355.433" x2="3254.953" y2="-1355.433"/><linearGradient xlink:href="#b" id="S" gradientUnits="userSpaceOnUse" gradientTransform="matrix(4.67543 0 0 4.67543 -8580.842 3318.482)" x1="3241.684" y1="-1355.433" x2="3254.953" y2="-1355.433"/><linearGradient xlink:href="#b" id="Q" gradientUnits="userSpaceOnUse" gradientTransform="matrix(4.67543 0 0 4.67543 -8580.842 3318.482)" x1="3241.684" y1="-1355.433" x2="3254.953" y2="-1355.433"/><linearGradient xlink:href="#b" id="P" gradientUnits="userSpaceOnUse" gradientTransform="matrix(4.67543 0 0 4.67543 -11805.905 4983.436)" x1="3241.684" y1="-1355.433" x2="3254.953" y2="-1355.433"/><linearGradient xlink:href="#c" id="U" gradientUnits="userSpaceOnUse" gradientTransform="matrix(17.29947 0 0 17.29947 -55618.419 22983.79)" x1="3225.76" y1="-1355.433" x2="3239.03" y2="-1355.433"/><linearGradient xlink:href="#c" id="T" gradientUnits="userSpaceOnUse" gradientTransform="matrix(4.67543 0 0 4.67543 -11805.905 4983.436)" x1="3225.76" y1="-1355.433" x2="3239.03" y2="-1355.433"/><linearGradient xlink:href="#b" id="X" gradientUnits="userSpaceOnUse" gradientTransform="matrix(4.67543 0 0 4.67543 -8718.643 3071.903)" x1="3241.684" y1="-1355.433" x2="3254.953" y2="-1355.433"/><linearGradient xlink:href="#b" id="Y" gradientUnits="userSpaceOnUse" gradientTransform="matrix(4.67543 0 0 4.67543 -8718.643 3071.903)" x1="3241.684" y1="-1355.433" x2="3254.953" y2="-1355.433"/><linearGradient xlink:href="#b" id="W" gradientUnits="userSpaceOnUse" gradientTransform="matrix(4.67543 0 0 4.67543 -8718.643 3071.903)" x1="3241.684" y1="-1355.433" x2="3254.953" y2="-1355.433"/><linearGradient xlink:href="#b" id="V" gradientUnits="userSpaceOnUse" gradientTransform="matrix(4.67543 0 0 4.67543 -11841.095 4920.467)" x1="3241.684" y1="-1355.433" x2="3254.953" y2="-1355.433"/><linearGradient xlink:href="#c" id="aa" gradientUnits="userSpaceOnUse" gradientTransform="matrix(17.29947 0 0 17.29947 -55748.625 22750.801)" x1="3225.76" y1="-1355.433" x2="3239.03" y2="-1355.433"/><linearGradient xlink:href="#c" id="Z" gradientUnits="userSpaceOnUse" gradientTransform="matrix(4.67543 0 0 4.67543 -11841.095 4920.467)" x1="3225.76" y1="-1355.433" x2="3239.03" y2="-1355.433"/><linearGradient xlink:href="#b" id="ad" gradientUnits="userSpaceOnUse" gradientTransform="matrix(2.71597 0 0 2.71597 -3903.842 1448.012)" x1="3241.684" y1="-1355.433" x2="3254.953" y2="-1355.433"/><linearGradient xlink:href="#b" id="ae" gradientUnits="userSpaceOnUse" gradientTransform="matrix(2.71597 0 0 2.71597 -3903.842 1448.012)" x1="3241.684" y1="-1355.433" x2="3254.953" y2="-1355.433"/><linearGradient xlink:href="#b" id="ac" gradientUnits="userSpaceOnUse" gradientTransform="matrix(2.71597 0 0 2.71597 -3903.842 1448.012)" x1="3241.684" y1="-1355.433" x2="3254.953" y2="-1355.433"/><linearGradient xlink:href="#b" id="ab" gradientUnits="userSpaceOnUse" gradientTransform="matrix(2.71597 0 0 2.71597 -5485.767 2300.78)" x1="3241.684" y1="-1355.433" x2="3254.953" y2="-1355.433"/><linearGradient xlink:href="#c" id="ag" gradientUnits="userSpaceOnUse" gradientTransform="matrix(10.04932 0 0 10.04932 -32233.379 13057.74)" x1="3225.76" y1="-1355.433" x2="3239.03" y2="-1355.433"/><linearGradient xlink:href="#c" id="af" gradientUnits="userSpaceOnUse" gradientTransform="matrix(2.71597 0 0 2.71597 -5485.767 2300.78)" x1="3225.76" y1="-1355.433" x2="3239.03" y2="-1355.433"/><linearGradient xlink:href="#b" id="aj" gradientUnits="userSpaceOnUse" gradientTransform="matrix(4.67543 0 0 4.67543 -8405.414 2827.756)" x1="3241.684" y1="-1355.433" x2="3254.953" y2="-1355.433"/><linearGradient xlink:href="#b" id="ak" gradientUnits="userSpaceOnUse" gradientTransform="matrix(4.67543 0 0 4.67543 -8405.414 2827.756)" x1="3241.684" y1="-1355.433" x2="3254.953" y2="-1355.433"/><linearGradient xlink:href="#b" id="ai" gradientUnits="userSpaceOnUse" gradientTransform="matrix(4.67543 0 0 4.67543 -8405.414 2827.756)" x1="3241.684" y1="-1355.433" x2="3254.953" y2="-1355.433"/><linearGradient xlink:href="#b" id="ah" gradientUnits="userSpaceOnUse" gradientTransform="matrix(4.67543 0 0 4.67543 -11761.106 4858.12)" x1="3241.684" y1="-1355.433" x2="3254.953" y2="-1355.433"/><linearGradient xlink:href="#c" id="am" gradientUnits="userSpaceOnUse" gradientTransform="matrix(17.29947 0 0 17.29947 -55452.66 22520.111)" x1="3225.76" y1="-1355.433" x2="3239.03" y2="-1355.433"/><linearGradient xlink:href="#c" id="al" gradientUnits="userSpaceOnUse" gradientTransform="matrix(4.67543 0 0 4.67543 -11761.106 4858.12)" x1="3225.76" y1="-1355.433" x2="3239.03" y2="-1355.433"/><linearGradient xlink:href="#b" id="ap" gradientUnits="userSpaceOnUse" gradientTransform="matrix(4.67543 0 0 4.67543 -8161.22 2967.102)" x1="3241.684" y1="-1355.433" x2="3254.953" y2="-1355.433"/><linearGradient xlink:href="#b" id="aq" gradientUnits="userSpaceOnUse" gradientTransform="matrix(4.67543 0 0 4.67543 -8161.22 2967.102)" x1="3241.684" y1="-1355.433" x2="3254.953" y2="-1355.433"/><linearGradient xlink:href="#b" id="ao" gradientUnits="userSpaceOnUse" gradientTransform="matrix(4.67543 0 0 4.67543 -8161.22 2967.102)" x1="3241.684" y1="-1355.433" x2="3254.953" y2="-1355.433"/><linearGradient xlink:href="#b" id="an" gradientUnits="userSpaceOnUse" gradientTransform="matrix(4.67543 0 0 4.67543 -11698.746 4893.705)" x1="3241.684" y1="-1355.433" x2="3254.953" y2="-1355.433"/><linearGradient xlink:href="#c" id="as" gradientUnits="userSpaceOnUse" gradientTransform="matrix(17.29947 0 0 17.29947 -55221.925 22651.778)" x1="3225.76" y1="-1355.433" x2="3239.03" y2="-1355.433"/><linearGradient xlink:href="#c" id="ar" gradientUnits="userSpaceOnUse" gradientTransform="matrix(4.67543 0 0 4.67543 -11698.746 4893.705)" x1="3225.76" y1="-1355.433" x2="3239.03" y2="-1355.433"/><linearGradient xlink:href="#b" id="av" gradientUnits="userSpaceOnUse" gradientTransform="matrix(4.67543 0 0 4.67543 -8269.02 3159.727)" x1="3241.684" y1="-1355.433" x2="3254.953" y2="-1355.433"/><linearGradient xlink:href="#b" id="aw" gradientUnits="userSpaceOnUse" gradientTransform="matrix(4.67543 0 0 4.67543 -8269.02 3159.727)" x1="3241.684" y1="-1355.433" x2="3254.953" y2="-1355.433"/><linearGradient xlink:href="#b" id="au" gradientUnits="userSpaceOnUse" gradientTransform="matrix(4.67543 0 0 4.67543 -8269.02 3159.727)" x1="3241.684" y1="-1355.433" x2="3254.953" y2="-1355.433"/><linearGradient xlink:href="#b" id="at" gradientUnits="userSpaceOnUse" gradientTransform="matrix(4.67543 0 0 4.67543 -11726.274 4942.895)" x1="3241.684" y1="-1355.433" x2="3254.953" y2="-1355.433"/><linearGradient xlink:href="#c" id="ay" gradientUnits="userSpaceOnUse" gradientTransform="matrix(17.29947 0 0 17.29947 -55323.783 22833.786)" x1="3225.76" y1="-1355.433" x2="3239.03" y2="-1355.433"/><linearGradient xlink:href="#c" id="ax" gradientUnits="userSpaceOnUse" gradientTransform="matrix(4.67543 0 0 4.67543 -11726.274 4942.895)" x1="3225.76" y1="-1355.433" x2="3239.03" y2="-1355.433"/><linearGradient xlink:href="#b" id="aB" gradientUnits="userSpaceOnUse" gradientTransform="matrix(2.71597 0 0 2.71597 -3932.088 1131.702)" x1="3241.684" y1="-1355.433" x2="3254.953" y2="-1355.433"/><linearGradient xlink:href="#b" id="aC" gradientUnits="userSpaceOnUse" gradientTransform="matrix(2.71597 0 0 2.71597 -3932.088 1131.702)" x1="3241.684" y1="-1355.433" x2="3254.953" y2="-1355.433"/><linearGradient xlink:href="#b" id="aA" gradientUnits="userSpaceOnUse" gradientTransform="matrix(2.71597 0 0 2.71597 -3932.088 1131.702)" x1="3241.684" y1="-1355.433" x2="3254.953" y2="-1355.433"/><linearGradient xlink:href="#b" id="az" gradientUnits="userSpaceOnUse" gradientTransform="matrix(2.71597 0 0 2.71597 -5492.98 2220.004)" x1="3241.684" y1="-1355.433" x2="3254.953" y2="-1355.433"/><linearGradient xlink:href="#c" id="aE" gradientUnits="userSpaceOnUse" gradientTransform="matrix(10.04932 0 0 10.04932 -32260.068 12758.864)" x1="3225.76" y1="-1355.433" x2="3239.03" y2="-1355.433"/><linearGradient xlink:href="#c" id="aD" gradientUnits="userSpaceOnUse" gradientTransform="matrix(2.71597 0 0 2.71597 -5492.98 2220.004)" x1="3225.76" y1="-1355.433" x2="3239.03" y2="-1355.433"/><linearGradient xlink:href="#b" id="aH" gradientUnits="userSpaceOnUse" gradientTransform="matrix(2.71597 0 0 2.71597 -4270.487 1110.87)" x1="3241.684" y1="-1355.433" x2="3254.953" y2="-1355.433"/><linearGradient xlink:href="#b" id="aI" gradientUnits="userSpaceOnUse" gradientTransform="matrix(2.71597 0 0 2.71597 -4270.487 1110.87)" x1="3241.684" y1="-1355.433" x2="3254.953" y2="-1355.433"/><linearGradient xlink:href="#b" id="aG" gradientUnits="userSpaceOnUse" gradientTransform="matrix(2.71597 0 0 2.71597 -4270.487 1110.87)" x1="3241.684" y1="-1355.433" x2="3254.953" y2="-1355.433"/><linearGradient xlink:href="#b" id="aF" gradientUnits="userSpaceOnUse" gradientTransform="matrix(2.71597 0 0 2.71597 -5579.396 2214.684)" x1="3241.684" y1="-1355.433" x2="3254.953" y2="-1355.433"/><linearGradient xlink:href="#c" id="aK" gradientUnits="userSpaceOnUse" gradientTransform="matrix(10.04932 0 0 10.04932 -32579.816 12739.18)" x1="3225.76" y1="-1355.433" x2="3239.03" y2="-1355.433"/><linearGradient xlink:href="#c" id="aJ" gradientUnits="userSpaceOnUse" gradientTransform="matrix(2.71597 0 0 2.71597 -5579.396 2214.684)" x1="3225.76" y1="-1355.433" x2="3239.03" y2="-1355.433"/><linearGradient xlink:href="#b" id="aN" gradientUnits="userSpaceOnUse" gradientTransform="matrix(4.67543 0 0 4.67543 -8882.992 3043.628)" x1="3241.684" y1="-1355.433" x2="3254.953" y2="-1355.433"/><linearGradient xlink:href="#b" id="aO" gradientUnits="userSpaceOnUse" gradientTransform="matrix(4.67543 0 0 4.67543 -8882.992 3043.628)" x1="3241.684" y1="-1355.433" x2="3254.953" y2="-1355.433"/><linearGradient xlink:href="#b" id="aM" gradientUnits="userSpaceOnUse" gradientTransform="matrix(4.67543 0 0 4.67543 -8882.992 3043.628)" x1="3241.684" y1="-1355.433" x2="3254.953" y2="-1355.433"/><linearGradient xlink:href="#b" id="aL" gradientUnits="userSpaceOnUse" gradientTransform="matrix(4.67543 0 0 4.67543 -11883.065 4913.247)" x1="3241.684" y1="-1355.433" x2="3254.953" y2="-1355.433"/><linearGradient xlink:href="#c" id="aQ" gradientUnits="userSpaceOnUse" gradientTransform="matrix(17.29947 0 0 17.29947 -55903.916 22724.084)" x1="3225.76" y1="-1355.433" x2="3239.03" y2="-1355.433"/><linearGradient xlink:href="#c" id="aP" gradientUnits="userSpaceOnUse" gradientTransform="matrix(4.67543 0 0 4.67543 -11883.065 4913.247)" x1="3225.76" y1="-1355.433" x2="3239.03" y2="-1355.433"/><linearGradient xlink:href="#b" id="aT" gradientUnits="userSpaceOnUse" gradientTransform="matrix(4.67543 0 0 4.67543 -9102.125 2677.818)" x1="3241.684" y1="-1355.433" x2="3254.953" y2="-1355.433"/><linearGradient xlink:href="#b" id="aU" gradientUnits="userSpaceOnUse" gradientTransform="matrix(4.67543 0 0 4.67543 -9102.125 2677.818)" x1="3241.684" y1="-1355.433" x2="3254.953" y2="-1355.433"/><linearGradient xlink:href="#b" id="aS" gradientUnits="userSpaceOnUse" gradientTransform="matrix(4.67543 0 0 4.67543 -9102.125 2677.818)" x1="3241.684" y1="-1355.433" x2="3254.953" y2="-1355.433"/><linearGradient xlink:href="#b" id="aR" gradientUnits="userSpaceOnUse" gradientTransform="matrix(4.67543 0 0 4.67543 -11939.024 4819.83)" x1="3241.684" y1="-1355.433" x2="3254.953" y2="-1355.433"/><linearGradient xlink:href="#c" id="aW" gradientUnits="userSpaceOnUse" gradientTransform="matrix(17.29947 0 0 17.29947 -56110.971 22378.437)" x1="3225.76" y1="-1355.433" x2="3239.03" y2="-1355.433"/><linearGradient xlink:href="#c" id="aV" gradientUnits="userSpaceOnUse" gradientTransform="matrix(4.67543 0 0 4.67543 -11939.024 4819.83)" x1="3225.76" y1="-1355.433" x2="3239.03" y2="-1355.433"/><linearGradient xlink:href="#b" id="aZ" gradientUnits="userSpaceOnUse" gradientTransform="matrix(4.67543 0 0 4.67543 -9259.405 3073.67)" x1="3241.684" y1="-1355.433" x2="3254.953" y2="-1355.433"/><linearGradient xlink:href="#b" id="ba" gradientUnits="userSpaceOnUse" gradientTransform="matrix(4.67543 0 0 4.67543 -9259.405 3073.67)" x1="3241.684" y1="-1355.433" x2="3254.953" y2="-1355.433"/><linearGradient xlink:href="#b" id="aY" gradientUnits="userSpaceOnUse" gradientTransform="matrix(4.67543 0 0 4.67543 -9259.405 3073.67)" x1="3241.684" y1="-1355.433" x2="3254.953" y2="-1355.433"/><linearGradient xlink:href="#b" id="aX" gradientUnits="userSpaceOnUse" gradientTransform="matrix(4.67543 0 0 4.67543 -11979.188 4920.919)" x1="3241.684" y1="-1355.433" x2="3254.953" y2="-1355.433"/><linearGradient xlink:href="#c" id="bc" gradientUnits="userSpaceOnUse" gradientTransform="matrix(17.29947 0 0 17.29947 -56259.583 22752.471)" x1="3225.76" y1="-1355.433" x2="3239.03" y2="-1355.433"/><linearGradient xlink:href="#c" id="bb" gradientUnits="userSpaceOnUse" gradientTransform="matrix(4.67543 0 0 4.67543 -11979.188 4920.919)" x1="3225.76" y1="-1355.433" x2="3239.03" y2="-1355.433"/><linearGradient xlink:href="#b" id="bf" gradientUnits="userSpaceOnUse" gradientTransform="matrix(4.67543 0 0 4.67543 -8925.41 3167.875)" x1="3241.684" y1="-1355.433" x2="3254.953" y2="-1355.433"/><linearGradient xlink:href="#b" id="bg" gradientUnits="userSpaceOnUse" gradientTransform="matrix(4.67543 0 0 4.67543 -8925.41 3167.875)" x1="3241.684" y1="-1355.433" x2="3254.953" y2="-1355.433"/><linearGradient xlink:href="#b" id="be" gradientUnits="userSpaceOnUse" gradientTransform="matrix(4.67543 0 0 4.67543 -8925.41 3167.875)" x1="3241.684" y1="-1355.433" x2="3254.953" y2="-1355.433"/><linearGradient xlink:href="#b" id="bd" gradientUnits="userSpaceOnUse" gradientTransform="matrix(4.67543 0 0 4.67543 -11893.897 4944.976)" x1="3241.684" y1="-1355.433" x2="3254.953" y2="-1355.433"/><linearGradient xlink:href="#c" id="bi" gradientUnits="userSpaceOnUse" gradientTransform="matrix(17.29947 0 0 17.29947 -55943.997 22841.484)" x1="3225.76" y1="-1355.433" x2="3239.03" y2="-1355.433"/><linearGradient xlink:href="#c" id="bh" gradientUnits="userSpaceOnUse" gradientTransform="matrix(4.67543 0 0 4.67543 -11893.897 4944.976)" x1="3225.76" y1="-1355.433" x2="3239.03" y2="-1355.433"/><linearGradient xlink:href="#b" id="bl" gradientUnits="userSpaceOnUse" gradientTransform="matrix(4.67543 0 0 4.67543 -9095.062 3335.759)" x1="3241.684" y1="-1355.433" x2="3254.953" y2="-1355.433"/><linearGradient xlink:href="#b" id="bm" gradientUnits="userSpaceOnUse" gradientTransform="matrix(4.67543 0 0 4.67543 -9095.062 3335.759)" x1="3241.684" y1="-1355.433" x2="3254.953" y2="-1355.433"/><linearGradient xlink:href="#b" id="bk" gradientUnits="userSpaceOnUse" gradientTransform="matrix(4.67543 0 0 4.67543 -9095.062 3335.759)" x1="3241.684" y1="-1355.433" x2="3254.953" y2="-1355.433"/><linearGradient xlink:href="#b" id="bj" gradientUnits="userSpaceOnUse" gradientTransform="matrix(4.67543 0 0 4.67543 -11937.22 4987.848)" x1="3241.684" y1="-1355.433" x2="3254.953" y2="-1355.433"/><linearGradient xlink:href="#c" id="bo" gradientUnits="userSpaceOnUse" gradientTransform="matrix(17.29947 0 0 17.29947 -56104.297 23000.115)" x1="3225.76" y1="-1355.433" x2="3239.03" y2="-1355.433"/><linearGradient xlink:href="#c" id="bn" gradientUnits="userSpaceOnUse" gradientTransform="matrix(4.67543 0 0 4.67543 -11937.22 4987.848)" x1="3225.76" y1="-1355.433" x2="3239.03" y2="-1355.433"/><linearGradient xlink:href="#b" id="br" gradientUnits="userSpaceOnUse" gradientTransform="matrix(2.71597 0 0 2.71597 -4451.689 1538.234)" x1="3241.684" y1="-1355.433" x2="3254.953" y2="-1355.433"/><linearGradient xlink:href="#b" id="bs" gradientUnits="userSpaceOnUse" gradientTransform="matrix(2.71597 0 0 2.71597 -4451.689 1538.234)" x1="3241.684" y1="-1355.433" x2="3254.953" y2="-1355.433"/><linearGradient xlink:href="#b" id="bq" gradientUnits="userSpaceOnUse" gradientTransform="matrix(2.71597 0 0 2.71597 -4451.689 1538.234)" x1="3241.684" y1="-1355.433" x2="3254.953" y2="-1355.433"/><linearGradient xlink:href="#b" id="bp" gradientUnits="userSpaceOnUse" gradientTransform="matrix(2.71597 0 0 2.71597 -5625.67 2323.82)" x1="3241.684" y1="-1355.433" x2="3254.953" y2="-1355.433"/><linearGradient xlink:href="#c" id="bu" gradientUnits="userSpaceOnUse" gradientTransform="matrix(10.04932 0 0 10.04932 -32751.03 13142.99)" x1="3225.76" y1="-1355.433" x2="3239.03" y2="-1355.433"/><linearGradient xlink:href="#c" id="bt" gradientUnits="userSpaceOnUse" gradientTransform="matrix(2.71597 0 0 2.71597 -5625.67 2323.82)" x1="3225.76" y1="-1355.433" x2="3239.03" y2="-1355.433"/><linearGradient xlink:href="#b" id="bx" gradientUnits="userSpaceOnUse" gradientTransform="matrix(2.71597 0 0 2.71597 -4517.849 1303.74)" x1="3241.684" y1="-1355.433" x2="3254.953" y2="-1355.433"/><linearGradient xlink:href="#b" id="by" gradientUnits="userSpaceOnUse" gradientTransform="matrix(2.71597 0 0 2.71597 -4517.849 1303.74)" x1="3241.684" y1="-1355.433" x2="3254.953" y2="-1355.433"/><linearGradient xlink:href="#b" id="bw" gradientUnits="userSpaceOnUse" gradientTransform="matrix(2.71597 0 0 2.71597 -4517.849 1303.74)" x1="3241.684" y1="-1355.433" x2="3254.953" y2="-1355.433"/><linearGradient xlink:href="#b" id="bv" gradientUnits="userSpaceOnUse" gradientTransform="matrix(2.71597 0 0 2.71597 -5642.565 2263.937)" x1="3241.684" y1="-1355.433" x2="3254.953" y2="-1355.433"/><linearGradient xlink:href="#c" id="bA" gradientUnits="userSpaceOnUse" gradientTransform="matrix(10.04932 0 0 10.04932 -32813.543 12921.42)" x1="3225.76" y1="-1355.433" x2="3239.03" y2="-1355.433"/><linearGradient xlink:href="#c" id="bz" gradientUnits="userSpaceOnUse" gradientTransform="matrix(2.71597 0 0 2.71597 -5642.565 2263.937)" x1="3225.76" y1="-1355.433" x2="3239.03" y2="-1355.433"/><linearGradient xlink:href="#b" id="bD" gradientUnits="userSpaceOnUse" gradientTransform="matrix(4.67543 0 0 4.67543 -9177.775 2809.488)" x1="3241.684" y1="-1355.433" x2="3254.953" y2="-1355.433"/><linearGradient xlink:href="#b" id="bE" gradientUnits="userSpaceOnUse" gradientTransform="matrix(4.67543 0 0 4.67543 -9177.775 2809.488)" x1="3241.684" y1="-1355.433" x2="3254.953" y2="-1355.433"/><linearGradient xlink:href="#b" id="bC" gradientUnits="userSpaceOnUse" gradientTransform="matrix(4.67543 0 0 4.67543 -9177.775 2809.488)" x1="3241.684" y1="-1355.433" x2="3254.953" y2="-1355.433"/><linearGradient xlink:href="#b" id="bB" gradientUnits="userSpaceOnUse" gradientTransform="matrix(4.67543 0 0 4.67543 -11958.343 4853.455)" x1="3241.684" y1="-1355.433" x2="3254.953" y2="-1355.433"/><linearGradient xlink:href="#c" id="bG" gradientUnits="userSpaceOnUse" gradientTransform="matrix(17.29947 0 0 17.29947 -56182.452 22502.85)" x1="3225.76" y1="-1355.433" x2="3239.03" y2="-1355.433"/><linearGradient xlink:href="#c" id="bF" gradientUnits="userSpaceOnUse" gradientTransform="matrix(4.67543 0 0 4.67543 -11958.343 4853.455)" x1="3225.76" y1="-1355.433" x2="3239.03" y2="-1355.433"/><linearGradient xlink:href="#b" id="bJ" gradientUnits="userSpaceOnUse" gradientTransform="matrix(4.67543 0 0 4.67543 -9324.453 2848.367)" x1="3241.684" y1="-1355.433" x2="3254.953" y2="-1355.433"/><linearGradient xlink:href="#b" id="bK" gradientUnits="userSpaceOnUse" gradientTransform="matrix(4.67543 0 0 4.67543 -9324.453 2848.367)" x1="3241.684" y1="-1355.433" x2="3254.953" y2="-1355.433"/><linearGradient xlink:href="#b" id="bI" gradientUnits="userSpaceOnUse" gradientTransform="matrix(4.67543 0 0 4.67543 -9324.453 2848.367)" x1="3241.684" y1="-1355.433" x2="3254.953" y2="-1355.433"/><linearGradient xlink:href="#b" id="bH" gradientUnits="userSpaceOnUse" gradientTransform="matrix(4.67543 0 0 4.67543 -11995.8 4863.383)" x1="3241.684" y1="-1355.433" x2="3254.953" y2="-1355.433"/><linearGradient xlink:href="#c" id="bM" gradientUnits="userSpaceOnUse" gradientTransform="matrix(17.29947 0 0 17.29947 -56321.045 22539.586)" x1="3225.76" y1="-1355.433" x2="3239.03" y2="-1355.433"/><linearGradient xlink:href="#c" id="bL" gradientUnits="userSpaceOnUse" gradientTransform="matrix(4.67543 0 0 4.67543 -11995.8 4863.383)" x1="3225.76" y1="-1355.433" x2="3239.03" y2="-1355.433"/><linearGradient xlink:href="#b" id="bP" gradientUnits="userSpaceOnUse" gradientTransform="matrix(2.71597 0 0 2.71597 -4431.659 1023.611)" x1="3241.684" y1="-1355.433" x2="3254.953" y2="-1355.433"/><linearGradient xlink:href="#b" id="bQ" gradientUnits="userSpaceOnUse" gradientTransform="matrix(2.71597 0 0 2.71597 -4431.659 1023.611)" x1="3241.684" y1="-1355.433" x2="3254.953" y2="-1355.433"/><linearGradient xlink:href="#b" id="bO" gradientUnits="userSpaceOnUse" gradientTransform="matrix(2.71597 0 0 2.71597 -4431.659 1023.611)" x1="3241.684" y1="-1355.433" x2="3254.953" y2="-1355.433"/><linearGradient xlink:href="#b" id="bN" gradientUnits="userSpaceOnUse" gradientTransform="matrix(2.71597 0 0 2.71597 -5620.555 2192.401)" x1="3241.684" y1="-1355.433" x2="3254.953" y2="-1355.433"/><linearGradient xlink:href="#c" id="bS" gradientUnits="userSpaceOnUse" gradientTransform="matrix(10.04932 0 0 10.04932 -32732.104 12656.731)" x1="3225.76" y1="-1355.433" x2="3239.03" y2="-1355.433"/><linearGradient xlink:href="#c" id="bR" gradientUnits="userSpaceOnUse" gradientTransform="matrix(2.71597 0 0 2.71597 -5620.555 2192.401)" x1="3225.76" y1="-1355.433" x2="3239.03" y2="-1355.433"/><linearGradient xlink:href="#b" id="bV" gradientUnits="userSpaceOnUse" gradientTransform="matrix(4.67543 0 0 4.67543 -9763.18 2840.32)" x1="3241.684" y1="-1355.433" x2="3254.953" y2="-1355.433"/><linearGradient xlink:href="#b" id="bW" gradientUnits="userSpaceOnUse" gradientTransform="matrix(4.67543 0 0 4.67543 -9763.18 2840.32)" x1="3241.684" y1="-1355.433" x2="3254.953" y2="-1355.433"/><linearGradient xlink:href="#b" id="bU" gradientUnits="userSpaceOnUse" gradientTransform="matrix(4.67543 0 0 4.67543 -9763.18 2840.32)" x1="3241.684" y1="-1355.433" x2="3254.953" y2="-1355.433"/><linearGradient xlink:href="#b" id="bT" gradientUnits="userSpaceOnUse" gradientTransform="matrix(4.67543 0 0 4.67543 -12107.837 4861.328)" x1="3241.684" y1="-1355.433" x2="3254.953" y2="-1355.433"/><linearGradient xlink:href="#c" id="bY" gradientUnits="userSpaceOnUse" gradientTransform="matrix(17.29947 0 0 17.29947 -56735.592 22531.982)" x1="3225.76" y1="-1355.433" x2="3239.03" y2="-1355.433"/><linearGradient xlink:href="#c" id="bX" gradientUnits="userSpaceOnUse" gradientTransform="matrix(4.67543 0 0 4.67543 -12107.837 4861.328)" x1="3225.76" y1="-1355.433" x2="3239.03" y2="-1355.433"/><linearGradient xlink:href="#b" id="cb" gradientUnits="userSpaceOnUse" gradientTransform="matrix(2.71597 0 0 2.71597 -4636.93 1371.494)" x1="3241.684" y1="-1355.433" x2="3254.953" y2="-1355.433"/><linearGradient xlink:href="#b" id="cc" gradientUnits="userSpaceOnUse" gradientTransform="matrix(2.71597 0 0 2.71597 -4636.93 1371.494)" x1="3241.684" y1="-1355.433" x2="3254.953" y2="-1355.433"/><linearGradient xlink:href="#b" id="ca" gradientUnits="userSpaceOnUse" gradientTransform="matrix(2.71597 0 0 2.71597 -4636.93 1371.494)" x1="3241.684" y1="-1355.433" x2="3254.953" y2="-1355.433"/><linearGradient xlink:href="#b" id="bZ" gradientUnits="userSpaceOnUse" gradientTransform="matrix(2.71597 0 0 2.71597 -5672.974 2281.24)" x1="3241.684" y1="-1355.433" x2="3254.953" y2="-1355.433"/><linearGradient xlink:href="#c" id="ce" gradientUnits="userSpaceOnUse" gradientTransform="matrix(10.04932 0 0 10.04932 -32926.062 12985.439)" x1="3225.76" y1="-1355.433" x2="3239.03" y2="-1355.433"/><linearGradient xlink:href="#c" id="cd" gradientUnits="userSpaceOnUse" gradientTransform="matrix(2.71597 0 0 2.71597 -5672.974 2281.24)" x1="3225.76" y1="-1355.433" x2="3239.03" y2="-1355.433"/><linearGradient xlink:href="#b" id="ch" gradientUnits="userSpaceOnUse" gradientTransform="matrix(2.71597 0 0 2.71597 -4664.189 1503.33)" x1="3241.684" y1="-1355.433" x2="3254.953" y2="-1355.433"/><linearGradient xlink:href="#b" id="ci" gradientUnits="userSpaceOnUse" gradientTransform="matrix(2.71597 0 0 2.71597 -4664.189 1503.33)" x1="3241.684" y1="-1355.433" x2="3254.953" y2="-1355.433"/><linearGradient xlink:href="#b" id="cg" gradientUnits="userSpaceOnUse" gradientTransform="matrix(2.71597 0 0 2.71597 -4664.189 1503.33)" x1="3241.684" y1="-1355.433" x2="3254.953" y2="-1355.433"/><linearGradient xlink:href="#b" id="cf" gradientUnits="userSpaceOnUse" gradientTransform="matrix(2.71597 0 0 2.71597 -5679.935 2314.907)" x1="3241.684" y1="-1355.433" x2="3254.953" y2="-1355.433"/><linearGradient xlink:href="#c" id="ck" gradientUnits="userSpaceOnUse" gradientTransform="matrix(10.04932 0 0 10.04932 -32951.818 13110.01)" x1="3225.76" y1="-1355.433" x2="3239.03" y2="-1355.433"/><linearGradient xlink:href="#c" id="cj" gradientUnits="userSpaceOnUse" gradientTransform="matrix(2.71597 0 0 2.71597 -5679.935 2314.907)" x1="3225.76" y1="-1355.433" x2="3239.03" y2="-1355.433"/><linearGradient xlink:href="#b" id="cn" gradientUnits="userSpaceOnUse" gradientTransform="matrix(4.67543 0 0 4.67543 -8418.395 3038.572)" x1="3241.684" y1="-1355.433" x2="3254.953" y2="-1355.433"/><linearGradient xlink:href="#b" id="co" gradientUnits="userSpaceOnUse" gradientTransform="matrix(4.67543 0 0 4.67543 -8418.395 3038.572)" x1="3241.684" y1="-1355.433" x2="3254.953" y2="-1355.433"/><linearGradient xlink:href="#b" id="cm" gradientUnits="userSpaceOnUse" gradientTransform="matrix(4.67543 0 0 4.67543 -8418.395 3038.572)" x1="3241.684" y1="-1355.433" x2="3254.953" y2="-1355.433"/><linearGradient xlink:href="#b" id="cl" gradientUnits="userSpaceOnUse" gradientTransform="matrix(4.67543 0 0 4.67543 -11764.421 4911.956)" x1="3241.684" y1="-1355.433" x2="3254.953" y2="-1355.433"/><linearGradient xlink:href="#c" id="cq" gradientUnits="userSpaceOnUse" gradientTransform="matrix(17.29947 0 0 17.29947 -55464.925 22719.308)" x1="3225.76" y1="-1355.433" x2="3239.03" y2="-1355.433"/><linearGradient xlink:href="#c" id="cp" gradientUnits="userSpaceOnUse" gradientTransform="matrix(4.67543 0 0 4.67543 -11764.421 4911.956)" x1="3225.76" y1="-1355.433" x2="3239.03" y2="-1355.433"/><linearGradient xlink:href="#b" id="ct" gradientUnits="userSpaceOnUse" gradientTransform="matrix(4.67543 0 0 4.67543 -8552.678 3405.897)" x1="3241.684" y1="-1355.433" x2="3254.953" y2="-1355.433"/><linearGradient xlink:href="#b" id="cu" gradientUnits="userSpaceOnUse" gradientTransform="matrix(4.67543 0 0 4.67543 -8552.678 3405.897)" x1="3241.684" y1="-1355.433" x2="3254.953" y2="-1355.433"/><linearGradient xlink:href="#b" id="cs" gradientUnits="userSpaceOnUse" gradientTransform="matrix(4.67543 0 0 4.67543 -8552.678 3405.897)" x1="3241.684" y1="-1355.433" x2="3254.953" y2="-1355.433"/><linearGradient xlink:href="#b" id="cr" gradientUnits="userSpaceOnUse" gradientTransform="matrix(4.67543 0 0 4.67543 -11798.711 5005.759)" x1="3241.684" y1="-1355.433" x2="3254.953" y2="-1355.433"/><linearGradient xlink:href="#c" id="cw" gradientUnits="userSpaceOnUse" gradientTransform="matrix(17.29947 0 0 17.29947 -55591.807 23066.389)" x1="3225.76" y1="-1355.433" x2="3239.03" y2="-1355.433"/><linearGradient xlink:href="#c" id="cv" gradientUnits="userSpaceOnUse" gradientTransform="matrix(4.67543 0 0 4.67543 -11798.711 5005.759)" x1="3225.76" y1="-1355.433" x2="3239.03" y2="-1355.433"/><linearGradient xlink:href="#b" id="cz" gradientUnits="userSpaceOnUse" gradientTransform="matrix(4.67543 0 0 4.67543 -9780.675 2691.618)" x1="3241.684" y1="-1355.433" x2="3254.953" y2="-1355.433"/><linearGradient xlink:href="#b" id="cA" gradientUnits="userSpaceOnUse" gradientTransform="matrix(4.67543 0 0 4.67543 -9780.675 2691.618)" x1="3241.684" y1="-1355.433" x2="3254.953" y2="-1355.433"/><linearGradient xlink:href="#b" id="cy" gradientUnits="userSpaceOnUse" gradientTransform="matrix(4.67543 0 0 4.67543 -9780.675 2691.618)" x1="3241.684" y1="-1355.433" x2="3254.953" y2="-1355.433"/><linearGradient xlink:href="#b" id="cx" gradientUnits="userSpaceOnUse" gradientTransform="matrix(4.67543 0 0 4.67543 -12112.305 4823.355)" x1="3241.684" y1="-1355.433" x2="3254.953" y2="-1355.433"/><linearGradient xlink:href="#c" id="cC" gradientUnits="userSpaceOnUse" gradientTransform="matrix(17.29947 0 0 17.29947 -56752.122 22391.476)" x1="3225.76" y1="-1355.433" x2="3239.03" y2="-1355.433"/><linearGradient xlink:href="#c" id="cB" gradientUnits="userSpaceOnUse" gradientTransform="matrix(4.67543 0 0 4.67543 -12112.305 4823.355)" x1="3225.76" y1="-1355.433" x2="3239.03" y2="-1355.433"/></defs><g transform="translate(0 -196.987)"><rect width="190.5" height="100.013" y="196.988" ry="1.1" rx="1.1" fill="#fafbff" paint-order="markers stroke fill"/><g stroke-width="3.013"><path d="M42.388 269.803c-.298 1.533-2.67 3.21-5.392 3.536-1.42.17-2.818.325-4.308.256-2.438-.111-4.362-.581-4.362-.581 0 .237.015.463.044.674.317 2.406 2.386 2.55 4.345 2.617 1.978.068 3.74-.487 3.74-.487l.08 1.788s-1.383.743-3.847.88c-1.36.074-3.047-.035-5.012-.555-4.262-1.128-4.995-5.672-5.108-10.282-.034-1.369-.013-2.66-.013-3.739 0-4.714 3.089-6.096 3.089-6.096 1.557-.715 4.23-1.016 7.008-1.039h.068c2.778.023 5.452.324 7.01 1.04 0 0 3.088 1.381 3.088 6.095 0 0 .039 3.478-.43 5.893" fill="#2b90d9"/><path d="M39.175 264.276v5.708h-2.261v-5.54c0-1.168-.492-1.761-1.475-1.761-1.086 0-1.631.703-1.631 2.094v3.032H31.56v-3.032c0-1.39-.545-2.094-1.632-2.094-.982 0-1.474.593-1.474 1.76v5.54h-2.261v-5.707c0-1.167.297-2.094.893-2.78.616-.686 1.421-1.037 2.422-1.037 1.157 0 2.033.445 2.613 1.334l.563.945.563-.945c.58-.89 1.456-1.334 2.613-1.334 1 0 1.806.351 2.422 1.037.596.686.893 1.613.893 2.78" fill="#fff"/></g><g style="line-height:476.69509888px;-inkscape-font-specification:'OTADESIGN Rounded'" fill="#2ba3bc" stroke-width="5.58"><path d="M69.515 205.265c-.355 0-.692.06-1.013.177a2.89 2.89 0 00-1.418 1.09 2.89 2.89 0 00-.532 1.696v11.09c0 .81.287 1.51.861 2.1.591.575 1.292.862 2.102.862.827 0 1.527-.287 2.101-.861.591-.59.886-1.291.886-2.102v-2.016c.007-.437.457-.322.684 0 .426.737 1.329 1.37 2.38 1.367 1.051-.004 1.924-.523 2.38-1.367.173-.204.66-.55.709 0v2.016c0 .81.287 1.511.86 2.102.592.574 1.292.86 2.102.86.827 0 1.528-.286 2.102-.86.59-.59.886-1.291.886-2.102v-11.09a2.8 2.8 0 00-.557-1.696 2.758 2.758 0 00-1.393-1.089 3.049 3.049 0 00-1.012-.177c-.912 0-1.68.355-2.304 1.064l-3.007 3.518c-.067.05-.29.438-.766.438-.475 0-.673-.387-.74-.438l-3.033-3.518c-.607-.71-1.367-1.064-2.278-1.064zm18.732 0c-.708 0-1.316.253-1.823.76-.489.49-.734 1.089-.734 1.797 0 .71.245 1.317.734 1.823a2.53 2.53 0 001.823.735 2.53 2.53 0 001.823-.735c.507-.506.76-1.114.76-1.823 0-.708-.253-1.308-.76-1.797a2.486 2.486 0 00-1.823-.76zm.026 5.621c-.71 0-1.317.253-1.823.76a2.486 2.486 0 00-.76 1.823v6.254c0 .708.253 1.316.76 1.822a2.53 2.53 0 001.823.735c.709 0 1.308-.245 1.797-.735.507-.506.76-1.114.76-1.822v-6.254c0-.71-.253-1.317-.76-1.823a2.404 2.404 0 00-1.797-.76z" style="-inkscape-font-specification:'OTADESIGN Rounded'" aria-label="Mi" font-weight="400" font-size="141.034" font-family="OTADESIGN Rounded" letter-spacing="0" word-spacing="0" stroke-width="1.615"/></g><g aria-label="Mastodon" style="line-height:1.25;-inkscape-font-specification:'GenEi Nu Gothic EB';text-align:center" font-weight="400" font-size="8.279" font-family="GenEi Nu Gothic EB" letter-spacing="0" word-spacing="0" text-anchor="middle" fill="#2b90d9" stroke-width=".333"><path d="M14.535 286.715l.468-5.588h1.328l.783 2.021q.385 1.014.552 1.61l.051.2q.173-.655.629-1.81l.776-2.02h1.328l.57 5.587h-1.192l-.206-2.175-.122-1.738q-.243.693-.635 1.738l-.782 2.104h-.745l-.763-2.104q-.372-1.033-.526-1.533l-.058-.199q0 .398-.09 1.732l-.166 2.175zM24.068 284.829l-.436.096q-.424.103-.558.218-.135.116-.135.321 0 .462.526.462.282 0 .443-.173.16-.173.16-.456zm-1.995-1.078v-1.033q.205-.115.584-.192.378-.084.82-.084.893 0 1.322.385.43.385.43 1.194v2.694h-1.116v-.455q-.295.474-1.052.474-.61 0-.962-.346-.347-.347-.347-.853 0-.507.276-.796.193-.199.712-.334.52-.14.764-.186l.564-.121v-.142q0-.59-.718-.59-.719 0-1.277.385zM28.796 282.635v.981q-.436-.25-1.026-.25-.231 0-.36.096-.121.09-.121.206 0 .115.038.186.045.064.141.128.097.064.18.11.09.038.244.115.154.07.243.115.405.199.642.462t.237.68q0 .61-.436.943-.436.334-1.174.334-.731 0-1.257-.25v-1.02q.57.39 1.206.39.494 0 .494-.326 0-.167-.193-.283-.186-.122-.667-.32-.86-.411-.86-1.194 0-.596.456-.936.462-.34 1.116-.34.661 0 1.097.173zM30.971 285.349q0 .487.539.487.263 0 .532-.173v.95q-.32.14-.802.14-1.41 0-1.41-1.41v-1.996h-.61v-.84h.61v-.995h1.141v.995h1v.84h-1zM36.54 284.604q0 .943-.54 1.56-.532.615-1.507.615-.969 0-1.508-.596-.532-.597-.532-1.54 0-.943.558-1.565.565-.63 1.514-.63.95 0 1.482.604.533.603.533 1.552zm-1.18.02q0-.565-.213-.918-.205-.36-.648-.36-.436 0-.654.36-.212.353-.212.911 0 .552.225.911.224.36.648.36.43 0 .641-.347.212-.353.212-.917zM38.285 284.604q0 .552.269.88.276.32.686.32.417 0 .687-.327.276-.334.276-.905 0-.57-.295-.866-.29-.295-.687-.295-.398 0-.667.32-.27.322-.27.873zm1.918-3.753h1.135v5.864h-1.135v-.59q-.424.641-1.258.641-.834 0-1.321-.635-.488-.635-.488-1.578 0-.943.507-1.52.513-.578 1.322-.578.808 0 1.238.642zM46.227 284.604q0 .943-.54 1.56-.532.615-1.507.615-.968 0-1.507-.596-.533-.597-.533-1.54 0-.943.558-1.565.565-.63 1.514-.63.95 0 1.482.604.533.603.533 1.552zm-1.18.02q0-.565-.212-.918-.206-.36-.648-.36-.437 0-.655.36-.211.353-.211.911 0 .552.224.911.225.36.648.36.43 0 .642-.347.211-.353.211-.917zM47.035 286.715v-4.208h1.136v.648q.352-.693 1.27-.693.648 0 1.02.385.372.384.372 1.116v2.752H49.69v-2.54q0-.385-.186-.584-.18-.206-.52-.206-.333 0-.577.283-.237.276-.237.808v2.239z" style="-inkscape-font-specification:'GenEi Nu Gothic EB'"/></g><g aria-label="Misskey" style="line-height:1.25;-inkscape-font-specification:'GenEi Nu Gothic EB';text-align:center" font-weight="400" font-size="8.279" font-family="GenEi Nu Gothic EB" letter-spacing="0" word-spacing="0" text-anchor="middle" fill="#2ba3bc" stroke-width=".326"><path d="M63.768 230.375l.479-5.71h1.357l.8 2.065q.393 1.036.564 1.645l.052.204q.177-.67.643-1.85l.793-2.065h1.357l.584 5.711h-1.22l-.21-2.222-.124-1.777q-.25.708-.65 1.777l-.799 2.15h-.76l-.78-2.15q-.381-1.056-.539-1.568l-.059-.203q0 .407-.091 1.77l-.17 2.223zM71.4 230.375v-4.3h1.16v4.3zm.092-5.075q-.197-.196-.197-.478t.197-.479q.203-.203.485-.203t.485.203q.204.197.204.479t-.204.478q-.196.197-.485.197-.282 0-.485-.197zM76.298 226.205v1.003q-.446-.255-1.05-.255-.235 0-.366.098-.125.092-.125.21t.04.19q.045.065.144.131.098.066.183.112.092.039.25.118.157.072.249.118.413.203.655.472.243.269.243.695 0 .623-.446.964-.446.34-1.2.34-.747 0-1.285-.255v-1.043q.584.4 1.233.4.505 0 .505-.334 0-.17-.197-.289-.19-.124-.682-.328-.879-.42-.879-1.22 0-.609.466-.956.472-.348 1.14-.348.676 0 1.122.177zM79.957 226.205v1.003q-.446-.255-1.05-.255-.235 0-.367.098-.124.092-.124.21t.04.19q.045.065.143.131.099.066.184.112.092.039.25.118.157.072.248.118.413.203.656.472.243.269.243.695 0 .623-.446.964-.446.34-1.2.34-.748 0-1.285-.255v-1.043q.583.4 1.232.4.505 0 .505-.334 0-.17-.196-.289-.19-.124-.682-.328-.879-.42-.879-1.22 0-.609.466-.956.472-.348 1.14-.348.676 0 1.122.177zM84.894 230.375H83.55l-1.43-2.118v2.118h-1.16v-5.855h1.16v3.488l1.41-1.934h1.331l-1.528 2.059zM86.218 227.779h1.58v-.046q-.059-.807-.714-.807-.315 0-.55.23-.23.223-.316.623zm0 .833q.105.413.433.655.328.236.833.236.669 0 1.14-.36v.99q-.426.282-1.324.282-1.049 0-1.639-.61-.59-.616-.59-1.613t.564-1.574q.564-.583 1.41-.583.845 0 1.344.505.498.498.498 1.429 0 .328-.053.643zM90.92 230.303l-1.666-4.229h1.272l.472 1.35q.394 1.102.472 1.443l.027.118q.091-.321.485-1.56l.439-1.35h1.193l-1.554 4.17q-.662 1.77-2.006 1.77-.262 0-.465-.04v-.93q.098.032.295.032.38 0 .622-.19.25-.184.414-.584z" style="-inkscape-font-specification:'GenEi Nu Gothic EB'"/></g><g stroke-width="3.42"><g transform="matrix(.07309 0 0 .07309 -30.987 292.41)" fill="url(#e)" fill-rule="evenodd"><path d="M2450.431-937.137l51.962 30v12l-51.962 30v-12l41.57-24-41.57-24z" fill="url(#f)"/><path d="M2450.431-913.137l20.785 12-20.785 12z" fill="url(#g)"/></g><path d="M49.098-504.566L0-476.221v11.338l39.277-22.676v45.354l9.82 5.67zm-19.639 34.015l-19.64 11.338 19.64 11.338z" transform="matrix(.07735 0 0 .07735 143.555 262.946)" fill="url(#i)" fill-rule="evenodd"/><g><g color="#000" font-weight="700" font-stretch="condensed" font-size="8.522" font-family="PT Sans Narrow" letter-spacing=".223" word-spacing="2.6"><path style="line-height:2.53632545px;-inkscape-font-specification:'PT Sans Narrow Bold Condensed';isolation:auto;mix-blend-mode:normal;solid-color:#000;solid-opacity:1" d="M263.227 34.35c-1.667 0-2.953.477-3.858 1.43-.905.904-1.357 2.069-1.357 3.497 0 1.429.453 2.596 1.357 3.5.905.857 2.191 1.285 3.858 1.285 1.666 0 2.998-.428 3.998-1.285s1.5-2.024 1.5-3.5-.5-2.665-1.5-3.57c-1-.905-2.332-1.357-3.998-1.357zm43.95 0c-1.666 0-2.95.477-3.855 1.43-.904.904-1.357 2.069-1.357 3.497 0 1.429.453 2.596 1.357 3.5.905.857 2.19 1.285 3.856 1.285s3-.428 4-1.285 1.5-2.024 1.5-3.5-.5-2.665-1.5-3.57c-1-.905-2.334-1.357-4-1.357zm-118.46.357l-14.499 50.352h8.928l2.927-11.286h11.786l3.07 11.286h9.428l-14.57-50.352zm58.71 5.285l-8.497 2.643v6.713h-3.928v7.57h3.928v18.713c0 3.714.667 6.356 2 7.928 1.38 1.57 3.428 2.355 6.142 2.355 1.524 0 2.975-.19 4.356-.57 1.38-.334 2.595-.762 3.642-1.285L254 77.273c-.667.286-1.286.5-1.857.643a7.976 7.976 0 01-1.93.215c-1.048 0-1.784-.43-2.213-1.287-.38-.857-.572-2.308-.572-4.356v-15.57h6.927v-7.57h-6.927zm80.233 0l-8.498 2.643v6.713h-3.93v7.57h3.93v18.713c0 3.714.665 6.356 1.998 7.928 1.38 1.57 3.429 2.355 6.143 2.355 1.523 0 2.976-.19 4.357-.57 1.38-.334 2.595-.762 3.643-1.285l-1.073-6.786c-.666.286-1.286.5-1.857.643a7.96 7.96 0 01-1.928.215c-1.047 0-1.784-.43-2.213-1.287-.38-.857-.572-2.308-.572-4.356v-15.57h6.928v-7.57h-6.928zm-135.659 6.856h.285l1.145 7.857 2.855 11.64h-8.283l2.785-11.57zm31.946 1.572c-4.332 0-7.62 1.57-9.857 4.713-2.238 3.142-3.356 7.833-3.356 14.07 0 2.857.214 5.452.643 7.785.476 2.286 1.238 4.262 2.285 5.928 1.048 1.619 2.381 2.88 4 3.785 1.667.857 3.712 1.285 6.14 1.285 1.667 0 3.334-.238 5-.715 1.667-.476 3.096-1.19 4.286-2.142l-1.785-6.57c-.714.476-1.5.881-2.358 1.214-.81.286-1.81.428-3 .428-2.237 0-3.88-1.023-4.927-3.07-1-2.047-1.5-4.69-1.5-7.928 0-3.856.5-6.641 1.5-8.355 1-1.762 2.5-2.643 4.5-2.643 1.095 0 2.023.117 2.785.356.81.19 1.643.5 2.5.93l2-7.071c-1.048-.571-2.262-1.049-3.643-1.43-1.333-.38-3.07-.57-5.213-.57zm35.065.928v35.71h8.5v-35.71zm11.054 0l12.643 36.066h5.713l11.998-36.066h-9.14l-4.428 18.57-.788 5.713h-.285l-.857-5.643-4.928-18.64zm32.899 0v35.71h8.498v-35.71zm33.531 0l12.428 35.71c-.286 1.572-.644 2.833-1.072 3.786-.429.952-.93 1.642-1.5 2.07-.524.476-1.119.715-1.786.715a4.223 4.223 0 01-1.857-.287l-1.428 7.285c.667.38 1.453.642 2.358.785.952.19 1.928.287 2.927.287 1.429 0 2.643-.43 3.643-1.287 1.047-.81 1.976-1.999 2.785-3.57.81-1.571 1.571-3.475 2.285-5.713a281.038 281.038 0 002.285-7.57l8.928-32.211h-8.713l-4.142 19.998-.643 5.642h-.357l-.928-5.572-5-20.068z" transform="matrix(.07735 0 0 .07735 141.08 221.525)" overflow="visible" fill="url(#j)"/><path style="line-height:2.53632545px;-inkscape-font-specification:'PT Sans Narrow Bold Condensed';isolation:auto;mix-blend-mode:normal;solid-color:#000;solid-opacity:1" d="M386.908 34.35c-2.047 0-4.095.119-6.142.357-2.048.19-3.927.477-5.641.857V85.06h8.998V67.846c.19.047.5.095.928.142l1.43.143h2.285c2.047 0 4.023-.309 5.927-.928a13.327 13.327 0 005.143-3c1.476-1.38 2.641-3.165 3.498-5.355.905-2.19 1.357-4.858 1.357-8 0-3.476-.522-6.286-1.57-8.428-1.047-2.19-2.406-3.88-4.072-5.07-1.667-1.19-3.57-1.977-5.713-2.358a31.993 31.993 0 00-6.428-.642zm51.725.714V83.63c1.143.571 2.76 1.096 4.855 1.572 2.143.476 4.477.713 7 .713 4.619 0 8.26-1.57 10.926-4.713 2.666-3.19 4-8.165 4-14.926 0-6.237-.953-10.76-2.857-13.57-1.857-2.81-4.475-4.215-7.856-4.215-3.19 0-5.641 1.048-7.355 3.143h-.215V35.064zm-50.867 7.286c1 0 1.952.142 2.857.427a5.715 5.715 0 012.356 1.428c.714.619 1.261 1.477 1.642 2.572.429 1.095.643 2.43.643 4 0 1.857-.214 3.403-.643 4.641-.428 1.19-1.023 2.143-1.785 2.857a6.24 6.24 0 01-2.5 1.428c-.952.286-1.95.43-2.998.43-.286 0-.833-.025-1.643-.072-.761-.096-1.286-.19-1.572-.286V42.707c.952-.238 2.167-.357 3.643-.357zm20.318 6.998v23.21c0 2.667.214 4.882.643 6.643.428 1.714 1.046 3.07 1.855 4.07.81 1 1.787 1.692 2.93 2.073 1.142.428 2.451.642 3.927.642 2.286 0 4.19-.547 5.713-1.642a11.923 11.923 0 003.715-4.143h.213l1.5 4.858h6.428c-.381-1.524-.643-3.216-.785-5.073a77.33 77.33 0 01-.215-5.785V49.348h-8.498V73.2c-.381 1.38-1.025 2.573-1.93 3.572-.905.953-2.022 1.428-3.355 1.428-1.381 0-2.334-.547-2.858-1.642-.524-1.095-.785-3.047-.785-5.856V49.348zm43.832 6.927c1.619 0 2.809.859 3.57 2.573.762 1.666 1.143 4.307 1.143 7.925 0 4.095-.476 7.024-1.428 8.786-.952 1.714-2.333 2.572-4.142 2.572-1.62 0-2.928-.264-3.928-.787V59.99c.81-2.476 2.404-3.715 4.785-3.715z" transform="matrix(.07735 0 0 .07735 141.08 221.525)" overflow="visible" fill="url(#k)"/></g></g></g><g stroke-width="7.608"><path d="M130.026 239.38c-.118.608-1.057 1.272-2.135 1.4-.562.068-1.116.13-1.706.103-.966-.045-1.728-.23-1.728-.23 0 .093.006.183.018.266.125.953.944 1.01 1.72 1.037.784.027 1.481-.193 1.481-.193l.032.708s-.547.294-1.523.348a6.374 6.374 0 01-1.985-.22c-1.688-.446-1.979-2.246-2.023-4.071-.014-.542-.005-1.054-.005-1.481 0-1.867 1.223-2.414 1.223-2.414.617-.284 1.675-.403 2.775-.412h.027c1.1.01 2.16.128 2.776.412 0 0 1.224.547 1.224 2.414 0 0 .015 1.377-.17 2.334" fill="#2b90d9"/><path d="M128.754 237.192v2.26h-.896v-2.194c0-.462-.194-.697-.584-.697-.43 0-.646.278-.646.829v1.201h-.89v-1.201c0-.55-.216-.83-.646-.83-.39 0-.584.236-.584.698v2.194h-.896v-2.26c0-.462.118-.83.354-1.101.244-.272.563-.411.96-.411.457 0 .805.176 1.034.529l.223.373.223-.373c.23-.353.577-.529 1.035-.529.396 0 .715.14.959.41.236.273.354.64.354 1.102" fill="#fff"/></g><g style="line-height:476.69509888px;-inkscape-font-specification:'OTADESIGN Rounded'" fill="#2ba3bc" stroke-width="14.464"><path style="-inkscape-font-specification:'OTADESIGN Rounded'" d="M93.167 259.44c-.137 0-.267.023-.39.068a1.115 1.115 0 00-.548.42 1.115 1.115 0 00-.205.655v4.278c0 .313.11.583.332.811.228.221.498.332.81.332.32 0 .59-.11.812-.332.228-.228.342-.498.342-.81v-.779c.002-.168.176-.124.263 0 .165.285.513.53.918.528.406-.002.743-.202.919-.528.066-.078.254-.212.273 0v.778c0 .313.11.583.332.811.228.221.498.332.811.332.32 0 .59-.11.81-.332.229-.228.343-.498.343-.81v-4.279c0-.241-.072-.46-.215-.654a1.064 1.064 0 00-.538-.42 1.176 1.176 0 00-.39-.069 1.14 1.14 0 00-.89.41l-1.159 1.358c-.026.02-.112.169-.296.169-.183 0-.26-.15-.285-.17l-1.17-1.357a1.11 1.11 0 00-.88-.41zm7.227 0a.96.96 0 00-.703.293.943.943 0 00-.284.694c0 .273.095.508.284.703.195.189.43.283.703.283a.976.976 0 00.703-.283.96.96 0 00.293-.703.927.927 0 00-.293-.694.96.96 0 00-.703-.293zm.01 2.169a.96.96 0 00-.704.293.96.96 0 00-.293.703v2.413a.96.96 0 00.293.703c.196.189.43.283.704.283a.943.943 0 00.693-.283.96.96 0 00.293-.703v-2.413a.96.96 0 00-.293-.703.927.927 0 00-.693-.293z" aria-label="Mi" font-weight="400" font-size="141.034" font-family="OTADESIGN Rounded" letter-spacing="0" word-spacing="0" stroke-width="4.187"/></g><g stroke-width="4.982"><path d="M80.355 276.75c-.18.926-1.614 1.94-3.26 2.137-.859.103-1.704.197-2.606.156-1.474-.068-2.638-.352-2.638-.352 0 .143.01.28.027.408.192 1.455 1.443 1.542 2.628 1.583a7.587 7.587 0 002.26-.295l.05 1.081s-.837.45-2.327.532c-.822.045-1.842-.02-3.03-.335-2.578-.683-3.022-3.43-3.09-6.218-.02-.828-.008-1.609-.008-2.262 0-2.85 1.868-3.686 1.868-3.686.942-.433 2.558-.615 4.238-.628h.042c1.68.013 3.297.195 4.239.628 0 0 1.868.836 1.868 3.686 0 0 .023 2.104-.26 3.564" fill="#2b90d9"/><path d="M78.412 273.407v3.452h-1.367v-3.351c0-.706-.297-1.065-.892-1.065-.657 0-.986.426-.986 1.266v1.834h-1.36v-1.834c0-.84-.33-1.266-.987-1.266-.594 0-.891.359-.891 1.065v3.35H70.56v-3.451c0-.706.18-1.267.54-1.681.373-.415.86-.628 1.465-.628.7 0 1.23.27 1.58.807l.34.571.342-.57c.35-.539.88-.808 1.58-.808.605 0 1.092.213 1.464.628.36.414.54.975.54 1.68" fill="#fff"/></g><g style="line-height:476.69509888px;-inkscape-font-specification:'OTADESIGN Rounded'" fill="#2ba3bc" stroke-width="10.769"><path d="M134.945 246.607c-.184 0-.359.03-.525.092a1.498 1.498 0 00-.735.564 1.497 1.497 0 00-.275.88v5.745c0 .42.148.783.446 1.089.306.297.669.446 1.089.446.428 0 .791-.149 1.088-.446.307-.306.46-.67.46-1.089v-1.045c.003-.226.236-.167.354 0 .22.382.688.71 1.233.709.545-.002.997-.271 1.233-.709.09-.105.342-.285.367 0v1.045c0 .42.15.783.446 1.089.307.297.67.446 1.09.446.428 0 .79-.149 1.088-.446.306-.306.46-.67.46-1.089v-5.746a1.45 1.45 0 00-.29-.879 1.43 1.43 0 00-.72-.564 1.58 1.58 0 00-.526-.092c-.472 0-.87.184-1.193.551l-1.558 1.823c-.035.026-.15.227-.397.227-.246 0-.349-.2-.384-.227l-1.57-1.823a1.491 1.491 0 00-1.181-.55zm9.706 0c-.368 0-.683.131-.945.394-.254.253-.38.564-.38.931 0 .368.126.682.38.945.262.253.577.38.945.38.367 0 .682-.127.944-.38.262-.263.394-.577.394-.945 0-.367-.132-.678-.394-.931a1.288 1.288 0 00-.944-.394zm.013 2.913c-.368 0-.682.13-.945.393a1.288 1.288 0 00-.393.945v3.24c0 .367.13.682.393.945.263.253.577.38.945.38.367 0 .677-.127.931-.38.262-.263.394-.578.394-.945v-3.24c0-.368-.132-.682-.394-.945a1.246 1.246 0 00-.931-.393z" style="-inkscape-font-specification:'OTADESIGN Rounded'" aria-label="Mi" font-weight="400" font-size="141.034" font-family="OTADESIGN Rounded" letter-spacing="0" word-spacing="0" stroke-width="3.118"/></g><g stroke-width="4.648"><path d="M149.632 278.639c-.194.993-1.73 2.08-3.495 2.292-.92.11-1.827.21-2.793.166-1.58-.072-2.828-.377-2.828-.377 0 .154.01.3.029.437.205 1.56 1.546 1.653 2.817 1.697 1.282.044 2.423-.316 2.423-.316l.053 1.159s-.897.481-2.494.57c-.881.048-1.975-.022-3.25-.36-2.762-.73-3.237-3.676-3.31-6.665-.022-.887-.009-1.724-.009-2.423 0-3.056 2.003-3.952 2.003-3.952 1.01-.464 2.742-.659 4.542-.673h.045c1.8.014 3.534.21 4.544.673 0 0 2.002.896 2.002 3.952 0 0 .025 2.254-.28 3.82" fill="#2b90d9"/><path d="M147.55 275.056v3.7h-1.467v-3.592c0-.757-.318-1.14-.956-1.14-.704 0-1.057.455-1.057 1.356v1.966h-1.457v-1.966c0-.901-.353-1.357-1.058-1.357-.637 0-.956.384-.956 1.141v3.592h-1.466v-3.7c0-.757.193-1.358.58-1.802.399-.445.92-.673 1.57-.673.75 0 1.318.289 1.693.865l.365.612.365-.612c.376-.576.944-.865 1.694-.865.649 0 1.17.228 1.57.673.387.444.58 1.045.58 1.802" fill="#fff"/></g><g transform="matrix(.0484 0 0 .0484 7.792 227.172)" stroke-width="5.467" fill="#fba457"><path d="M235 89v334h-83V115l26-26z"/><circle cy="115" cx="178" r="26"/><circle cy="230" cx="335" r="26"/><path d="M277 256V89h84v141l-26 26z"/><circle cy="397" cx="335" r="26"/><path d="M277 423v-83h84v57l-26 26z"/></g><g aria-label="Pleroma" style="line-height:1.25;-inkscape-font-specification:'GenEi Nu Gothic EB';text-align:center" font-weight="400" font-size="6.361" font-family="GenEi Nu Gothic EB" letter-spacing="0" word-spacing="0" text-anchor="middle" fill="#fba457" stroke-width=".265"><path d="M29.072 239.305h.472q.522 0 .77-.242.249-.248.249-.665 0-.416-.243-.64-.236-.223-.72-.223h-.528zm-1.156-2.702h1.808q.907 0 1.46.503.553.503.553 1.33 0 .82-.578 1.31-.572.485-1.429.485h-.658v1.783h-1.156zM32.414 240.517v-4.181h1.1v4.125q0 .373.061.522.063.143.224.143.162 0 .36-.063v.901q-.192.075-.515.075-.677 0-.957-.38-.273-.372-.273-1.142zM35.42 239.554h1.498v-.044q-.056-.764-.678-.764-.298 0-.521.218-.218.21-.299.59zm0 .789q.1.391.41.621.311.224.79.224.633 0 1.08-.342v.938q-.403.267-1.255.267-.993 0-1.553-.578-.559-.584-.559-1.528 0-.944.535-1.49.534-.554 1.335-.554.802 0 1.274.479.472.472.472 1.354 0 .31-.05.609zM39.893 237.939v.695q.28-.72.994-.72.162 0 .354.043v1.044q-.236-.1-.49-.1-.38 0-.622.299-.236.292-.236.758v2.056h-1.1l.007-4.075zM45.41 239.97q0 .913-.522 1.51-.516.596-1.46.596-.938 0-1.46-.578-.516-.577-.516-1.49 0-.914.54-1.516.548-.61 1.467-.61.92 0 1.435.585.516.584.516 1.503zm-1.143.019q0-.547-.205-.889-.2-.348-.628-.348-.422 0-.633.348-.205.342-.205.882 0 .535.217.883.217.347.627.347.417 0 .622-.335.205-.342.205-.888zM47.292 237.939v.577q.335-.62 1.155-.62.82 0 1.119.732.149-.36.472-.546.323-.187.758-.187.608 0 .95.385.342.38.342 1.094v2.64h-1.1v-2.448q0-.36-.149-.565-.143-.211-.422-.211-.274 0-.504.242-.223.236-.223.814v2.168h-1.106v-2.448q0-.36-.15-.565-.142-.211-.421-.211-.28 0-.504.242-.217.236-.217.814v2.168h-1.1v-4.075zM55.076 240.187l-.423.094q-.41.1-.54.21-.13.113-.13.312 0 .447.509.447.273 0 .428-.168.156-.168.156-.441zm-1.932-1.043v-1q.199-.112.565-.187.367-.08.795-.08.864 0 1.28.372.416.373.416 1.156v2.609h-1.08v-.441q-.287.46-1.02.46-.59 0-.931-.336-.336-.335-.336-.826 0-.491.267-.77.187-.193.69-.324.503-.136.74-.18l.546-.118v-.136q0-.572-.696-.572t-1.236.373z" style="-inkscape-font-specification:'GenEi Nu Gothic EB'"/></g><g transform="matrix(.03121 0 0 .03121 96.015 233.237)" stroke-width="8.476" fill="#fba457"><path d="M235 89v334h-83V115l26-26z"/><circle r="26" cx="178" cy="115"/><circle r="26" cx="335" cy="230"/><path d="M277 256V89h84v141l-26 26z"/><circle r="26" cx="335" cy="397"/><path d="M277 423v-83h84v57l-26 26z"/></g><g stroke-width="2.716"><g transform="matrix(.09205 0 0 .09205 -116.936 308.69)" fill="url(#m)" fill-rule="evenodd"><path d="M2450.431-937.137l51.962 30v12l-51.962 30v-12l41.57-24-41.57-24z" fill="url(#n)"/><path d="M2450.431-913.137l20.785 12-20.785 12z" fill="url(#o)"/></g><path transform="matrix(.09742 0 0 .09742 102.882 271.582)" d="M49.098-504.566L0-476.221v11.338l39.277-22.676v45.354l9.82 5.67zm-19.639 34.015l-19.64 11.338 19.64 11.338z" fill="url(#q)" fill-rule="evenodd"/></g><g stroke-width="2.716"><g transform="matrix(.09205 0 0 .09205 -181.364 304.022)" fill="url(#s)" fill-rule="evenodd"><path d="M2450.431-937.137l51.962 30v12l-51.962 30v-12l41.57-24-41.57-24z" fill="url(#t)"/><path d="M2450.431-913.137l20.785 12-20.785 12z" fill="url(#u)"/></g><path d="M49.098-504.566L0-476.221v11.338l39.277-22.676v45.354l9.82 5.67zm-19.639 34.015l-19.64 11.338 19.64 11.338z" transform="matrix(.09742 0 0 .09742 38.455 266.914)" fill="url(#w)" fill-rule="evenodd"/></g><g stroke-width="4.675"><g transform="translate(-97.701 299.194) scale(.05347)" fill="url(#y)" fill-rule="evenodd"><path d="M2450.431-937.137l51.962 30v12l-51.962 30v-12l41.57-24-41.57-24z" fill="url(#z)"/><path d="M2450.431-913.137l20.785 12-20.785 12z" fill="url(#A)"/></g><path transform="translate(29.992 277.638) scale(.05659)" d="M49.098-504.566L0-476.221v11.338l39.277-22.676v45.354l9.82 5.67zm-19.639 34.015l-19.64 11.338 19.64 11.338z" fill="url(#C)" fill-rule="evenodd"/></g><g transform="matrix(.03121 0 0 .03121 92.235 273.302)" stroke-width="8.476" fill="#fba457"><path d="M235 89v334h-83V115l26-26z"/><circle cy="115" cx="178" r="26"/><circle cy="230" cx="335" r="26"/><path d="M277 256V89h84v141l-26 26z"/><circle cy="397" cx="335" r="26"/><path d="M277 423v-83h84v57l-26 26z"/></g><path d="M61.8 218.948l-32.318 11.15M28.201 248.822l2.77 6.265M46.302 266.95l19.844 6.237M75.244 231.883l-31.02 27.697" fill="none" stroke="#cd6264" stroke-width=".635"/><g stroke-width="4.675"><g transform="translate(-75.36 318.254) scale(.05347)" fill="url(#E)" fill-rule="evenodd"><path d="M2450.431-937.137l51.962 30v12l-51.962 30v-12l41.57-24-41.57-24z" fill="url(#F)"/><path d="M2450.431-913.137l20.785 12-20.785 12z" fill="url(#G)"/></g><path d="M49.098-504.566L0-476.221v11.338l39.277-22.676v45.354l9.82 5.67zm-19.639 34.015l-19.64 11.338 19.64 11.338z" transform="translate(52.334 296.698) scale(.05659)" fill="url(#I)" fill-rule="evenodd"/></g><g stroke-width="2.716"><g transform="matrix(.09205 0 0 .09205 -168.388 334.344)" fill="url(#K)" fill-rule="evenodd"><path d="M2450.431-937.137l51.962 30v12l-51.962 30v-12l41.57-24-41.57-24z" fill="url(#L)"/><path d="M2450.431-913.137l20.785 12-20.785 12z" fill="url(#M)"/></g><path transform="matrix(.09742 0 0 .09742 51.43 297.236)" d="M49.098-504.566L0-476.221v11.338l39.277-22.676v45.354l9.82 5.67zm-19.639 34.015l-19.64 11.338 19.64 11.338z" fill="url(#O)" fill-rule="evenodd"/></g><path d="M57.013 239.722l41.198 2.775M102.632 249.159l-5.079 8.151M80.25 231.845l12.493 24.797" fill="none" stroke="#cd6264" stroke-width=".635"/><g stroke-width="4.675"><g transform="translate(-38.859 288.235) scale(.05347)" fill="url(#Q)" fill-rule="evenodd"><path d="M2450.431-937.137l51.962 30v12l-51.962 30v-12l41.57-24-41.57-24z" fill="url(#R)"/><path d="M2450.431-913.137l20.785 12-20.785 12z" fill="url(#S)"/></g><path d="M49.098-504.566L0-476.221v11.338l39.277-22.676v45.354l9.82 5.67zm-19.639 34.015l-19.64 11.338 19.64 11.338z" transform="translate(88.834 266.678) scale(.05659)" fill="url(#U)" fill-rule="evenodd"/></g><g stroke-width="4.675"><g transform="translate(-31.49 301.42) scale(.05347)" fill="url(#W)" fill-rule="evenodd"><path d="M2450.431-937.137l51.962 30v12l-51.962 30v-12l41.57-24-41.57-24z" fill="url(#X)"/><path d="M2450.431-913.137l20.785 12-20.785 12z" fill="url(#Y)"/></g><path transform="translate(96.203 279.863) scale(.05659)" d="M49.098-504.566L0-476.221v11.338l39.277-22.676v45.354l9.82 5.67zm-19.639 34.015l-19.64 11.338 19.64 11.338z" fill="url(#aa)" fill-rule="evenodd"/></g><g stroke-width="2.716"><g transform="matrix(.09205 0 0 .09205 -138.345 332.39)" fill="url(#ac)" fill-rule="evenodd"><path d="M2450.431-937.137l51.962 30v12l-51.962 30v-12l41.57-24-41.57-24z" fill="url(#ad)"/><path d="M2450.431-913.137l20.785 12-20.785 12z" fill="url(#ae)"/></g><path d="M49.098-504.566L0-476.221v11.338l39.277-22.676v45.354l9.82 5.67zm-19.639 34.015l-19.64 11.338 19.64 11.338z" transform="matrix(.09742 0 0 .09742 81.474 295.283)" fill="url(#ag)" fill-rule="evenodd"/></g><path d="M77.375 232.32l-2.139 35.28M83.522 274.817l12.027-7.083M83.254 276.688l12.161 3.741M47.173 263.057s26.727-1.604 33.542 2.138c6.816 3.742 14.7 11.225 14.7 11.225M98.088 267.734l1.336 7.216M108.244 279.494l26.593-2.005M94.613 220.695s14.7 4.543 18.442 11.492c3.742 6.95 1.336 35.146 6.014 37.952 4.677 2.807 15.902 4.41 15.902 4.41M109.58 241.274l11.36-1.737" fill="none" stroke="#cd6264" stroke-width=".635"/><path d="M103.166 262.389s11.092 11.76 14.433 12.16c3.34.401 16.303 1.203 16.303 1.203M107.977 277.356l28.33-20.18M102.765 261.32l27.663-8.82M132.833 240.072l4.81 5.345M139.247 256.642l2.272 12.161M124.681 244.348s-1.336 11.092.802 13.898c2.138 2.806 10.958 12.027 10.958 12.027" fill="none" stroke="#cd6264" stroke-width=".635"/><path d="M109.046 246.219s2.94 2.672 4.143 2.672c1.202 0 17.64 1.203 17.64 1.203M47.04 260.651s27.795-.935 32.072-.668c4.276.267 10.423 1.737 10.423 1.737M102.097 234.058l-7.617-8.553M105.739 249.091s1.89 4.536 3.024 7.277c1.134 2.74.85 11.433.378 13.89-.473 2.457-3.402 4.914-3.402 4.914" fill="none" stroke="#cd6264" stroke-width=".635"/><g stroke-width="4.675"><g transform="translate(-48.24 314.474) scale(.05347)" fill="url(#ai)" fill-rule="evenodd"><path d="M2450.431-937.137l51.962 30v12l-51.962 30v-12l41.57-24-41.57-24z" fill="url(#aj)"/><path d="M2450.431-913.137l20.785 12-20.785 12z" fill="url(#ak)"/></g><path transform="translate(79.454 292.918) scale(.05659)" d="M49.098-504.566L0-476.221v11.338l39.277-22.676v45.354l9.82 5.67zm-19.639 34.015l-19.64 11.338 19.64 11.338z" fill="url(#am)" fill-rule="evenodd"/></g><g stroke-width="4.675"><g transform="translate(-61.297 307.023) scale(.05347)" fill="url(#ao)" fill-rule="evenodd"><path d="M2450.431-937.137l51.962 30v12l-51.962 30v-12l41.57-24-41.57-24z" fill="url(#ap)"/><path d="M2450.431-913.137l20.785 12-20.785 12z" fill="url(#aq)"/></g><path d="M49.098-504.566L0-476.221v11.338l39.277-22.676v45.354l9.82 5.67zm-19.639 34.015l-19.64 11.338 19.64 11.338z" transform="translate(66.397 285.467) scale(.05659)" fill="url(#as)" fill-rule="evenodd"/></g><g stroke-width="4.675"><g transform="translate(-55.532 296.723) scale(.05347)" fill="url(#au)" fill-rule="evenodd"><path d="M2450.431-937.137l51.962 30v12l-51.962 30v-12l41.57-24-41.57-24z" fill="url(#av)"/><path d="M2450.431-913.137l20.785 12-20.785 12z" fill="url(#aw)"/></g><path transform="translate(72.16 275.167) scale(.05659)" d="M49.098-504.566L0-476.221v11.338l39.277-22.676v45.354l9.82 5.67zm-19.639 34.015l-19.64 11.338 19.64 11.338z" fill="url(#ay)" fill-rule="evenodd"/></g><g stroke-width="2.716"><g transform="matrix(.09205 0 0 .09205 -135.745 361.506)" fill="url(#aA)" fill-rule="evenodd"><path d="M2450.431-937.137l51.962 30v12l-51.962 30v-12l41.57-24-41.57-24z" fill="url(#aB)"/><path d="M2450.431-913.137l20.785 12-20.785 12z" fill="url(#aC)"/></g><path transform="matrix(.09742 0 0 .09742 84.074 324.398)" d="M49.098-504.566L0-476.221v11.338l39.277-22.676v45.354l9.82 5.67zm-19.639 34.015l-19.64 11.338 19.64 11.338z" fill="url(#aE)" fill-rule="evenodd"/></g><g stroke-width="2.716"><g transform="matrix(.09205 0 0 .09205 -104.596 363.424)" fill="url(#aG)" fill-rule="evenodd"><path d="M2450.431-937.137l51.962 30v12l-51.962 30v-12l41.57-24-41.57-24z" fill="url(#aH)"/><path d="M2450.431-913.137l20.785 12-20.785 12z" fill="url(#aI)"/></g><path d="M49.098-504.566L0-476.221v11.338l39.277-22.676v45.354l9.82 5.67zm-19.639 34.015l-19.64 11.338 19.64 11.338z" transform="matrix(.09742 0 0 .09742 115.223 326.316)" fill="url(#aK)" fill-rule="evenodd"/></g><g stroke-width="4.675"><g transform="translate(-22.703 302.931) scale(.05347)" fill="url(#aM)" fill-rule="evenodd"><path d="M2450.431-937.137l51.962 30v12l-51.962 30v-12l41.57-24-41.57-24z" fill="url(#aN)"/><path d="M2450.431-913.137l20.785 12-20.785 12z" fill="url(#aO)"/></g><path d="M49.098-504.566L0-476.221v11.338l39.277-22.676v45.354l9.82 5.67zm-19.639 34.015l-19.64 11.338 19.64 11.338z" transform="translate(104.99 281.375) scale(.05659)" fill="url(#aQ)" fill-rule="evenodd"/></g><g stroke-width="4.675"><g transform="translate(-10.985 322.492) scale(.05347)" fill="url(#aS)" fill-rule="evenodd"><path d="M2450.431-937.137l51.962 30v12l-51.962 30v-12l41.57-24-41.57-24z" fill="url(#aT)"/><path d="M2450.431-913.137l20.785 12-20.785 12z" fill="url(#aU)"/></g><path d="M49.098-504.566L0-476.221v11.338l39.277-22.676v45.354l9.82 5.67zm-19.639 34.015l-19.64 11.338 19.64 11.338z" transform="translate(116.708 300.935) scale(.05659)" fill="url(#aW)" fill-rule="evenodd"/></g><g stroke-width="4.675"><g transform="translate(-2.575 301.325) scale(.05347)" fill="url(#aY)" fill-rule="evenodd"><path d="M2450.431-937.137l51.962 30v12l-51.962 30v-12l41.57-24-41.57-24z" fill="url(#aZ)"/><path d="M2450.431-913.137l20.785 12-20.785 12z" fill="url(#ba)"/></g><path transform="translate(125.118 279.769) scale(.05659)" d="M49.098-504.566L0-476.221v11.338l39.277-22.676v45.354l9.82 5.67zm-19.639 34.015l-19.64 11.338 19.64 11.338z" fill="url(#bc)" fill-rule="evenodd"/></g><g stroke-width="4.675"><g transform="translate(-20.434 296.288) scale(.05347)" fill="url(#be)" fill-rule="evenodd"><path d="M2450.431-937.137l51.962 30v12l-51.962 30v-12l41.57-24-41.57-24z" fill="url(#bf)"/><path d="M2450.431-913.137l20.785 12-20.785 12z" fill="url(#bg)"/></g><path d="M49.098-504.566L0-476.221v11.338l39.277-22.676v45.354l9.82 5.67zm-19.639 34.015l-19.64 11.338 19.64 11.338z" transform="translate(107.259 274.731) scale(.05659)" fill="url(#bi)" fill-rule="evenodd"/></g><g stroke-width="4.675"><g transform="translate(-11.363 287.31) scale(.05347)" fill="url(#bk)" fill-rule="evenodd"><path d="M2450.431-937.137l51.962 30v12l-51.962 30v-12l41.57-24-41.57-24z" fill="url(#bl)"/><path d="M2450.431-913.137l20.785 12-20.785 12z" fill="url(#bm)"/></g><path transform="translate(116.33 265.755) scale(.05659)" d="M49.098-504.566L0-476.221v11.338l39.277-22.676v45.354l9.82 5.67zm-19.639 34.015l-19.64 11.338 19.64 11.338z" fill="url(#bo)" fill-rule="evenodd"/></g><g stroke-width="2.716"><g transform="matrix(.09205 0 0 .09205 -87.916 324.086)" fill="url(#bq)" fill-rule="evenodd"><path d="M2450.431-937.137l51.962 30v12l-51.962 30v-12l41.57-24-41.57-24z" fill="url(#br)"/><path d="M2450.431-913.137l20.785 12-20.785 12z" fill="url(#bs)"/></g><path transform="matrix(.09742 0 0 .09742 131.902 286.978)" d="M49.098-504.566L0-476.221v11.338l39.277-22.676v45.354l9.82 5.67zm-19.639 34.015l-19.64 11.338 19.64 11.338z" fill="url(#bu)" fill-rule="evenodd"/></g><g stroke-width="2.716"><g transform="matrix(.09205 0 0 .09205 -81.826 345.67)" fill="url(#bw)" fill-rule="evenodd"><path d="M2450.431-937.137l51.962 30v12l-51.962 30v-12l41.57-24-41.57-24z" fill="url(#bx)"/><path d="M2450.431-913.137l20.785 12-20.785 12z" fill="url(#by)"/></g><path d="M49.098-504.566L0-476.221v11.338l39.277-22.676v45.354l9.82 5.67zm-19.639 34.015l-19.64 11.338 19.64 11.338z" transform="matrix(.09742 0 0 .09742 137.992 308.563)" fill="url(#bA)" fill-rule="evenodd"/></g><g stroke-width="4.675"><g transform="translate(-6.94 315.451) scale(.05347)" fill="url(#bC)" fill-rule="evenodd"><path d="M2450.431-937.137l51.962 30v12l-51.962 30v-12l41.57-24-41.57-24z" fill="url(#bD)"/><path d="M2450.431-913.137l20.785 12-20.785 12z" fill="url(#bE)"/></g><path transform="translate(120.753 293.895) scale(.05659)" d="M49.098-504.566L0-476.221v11.338l39.277-22.676v45.354l9.82 5.67zm-19.639 34.015l-19.64 11.338 19.64 11.338z" fill="url(#bG)" fill-rule="evenodd"/></g><g stroke-width="4.675"><g transform="translate(.903 313.372) scale(.05347)" fill="url(#bI)" fill-rule="evenodd"><path d="M2450.431-937.137l51.962 30v12l-51.962 30v-12l41.57-24-41.57-24z" fill="url(#bJ)"/><path d="M2450.431-913.137l20.785 12-20.785 12z" fill="url(#bK)"/></g><path d="M49.098-504.566L0-476.221v11.338l39.277-22.676v45.354l9.82 5.67zm-19.639 34.015l-19.64 11.338 19.64 11.338z" transform="translate(128.596 291.816) scale(.05659)" fill="url(#bM)" fill-rule="evenodd"/></g><text style="line-height:1.25;-inkscape-font-specification:AbbeyRoad;text-align:center" x="148.422" y="222.707" font-weight="400" font-size="17.287" font-family="AbbeyRoad" letter-spacing="0" word-spacing="0" text-anchor="middle" stroke-width=".265"><tspan x="148.422" y="222.707" style="-inkscape-font-specification:AbbeyRoad">Fediverse</tspan></text><text style="line-height:1.25;text-align:center" x="130.416" y="227.731" font-weight="400" font-size="3.631" font-family="sans-serif" letter-spacing="0" word-spacing="0" text-anchor="middle" stroke-width=".265"><tspan x="130.416" y="227.731">powered by</tspan></text><g stroke-width="4.648"><path d="M173.822 269c-.193.994-1.73 2.081-3.495 2.292-.92.11-1.827.21-2.793.167-1.58-.073-2.827-.378-2.827-.378 0 .154.01.3.028.438.206 1.56 1.547 1.653 2.817 1.696 1.282.044 2.424-.316 2.424-.316l.052 1.16s-.896.48-2.494.57c-.88.048-1.975-.023-3.249-.36-2.763-.731-3.238-3.677-3.31-6.665-.023-.887-.01-1.724-.01-2.424 0-3.056 2.003-3.951 2.003-3.951 1.01-.464 2.742-.66 4.543-.674h.044c1.801.015 3.535.21 4.544.674 0 0 2.002.895 2.002 3.951 0 0 .025 2.255-.279 3.82" fill="#2b90d9"/><path d="M171.74 265.417v3.7h-1.466v-3.591c0-.757-.319-1.141-.956-1.141-.705 0-1.058.455-1.058 1.357v1.966h-1.457v-1.966c0-.902-.353-1.357-1.057-1.357-.638 0-.956.384-.956 1.141v3.591h-1.466v-3.7c0-.756.192-1.357.58-1.802.398-.444.92-.672 1.569-.672.75 0 1.318.288 1.694.865l.365.612.365-.612c.375-.577.944-.865 1.694-.865.648 0 1.17.228 1.57.672.386.445.579 1.046.579 1.802" fill="#fff"/></g><path d="M131.725 238.036s2.079-5.67 10.583-2.268c8.505 3.402 20.789 23.434 20.789 23.434M148.545 252.02l11.906 8.127M153.08 276.967l7.182-3.024M107.723 283.77s21.734 6.615 28.537 5.481c6.804-1.133 26.407-13.971 26.407-13.971M103.3 265.462s21.248-9.488 25.257-7.617c4.009 1.87 7.082 8.686 10.29 9.488 3.207.802 20.446-1.737 20.446-1.737" fill="none" stroke="#cd6264" stroke-width=".635"/><g stroke-width="2.716"><g transform="matrix(.09205 0 0 .09205 -89.76 371.456)" fill="url(#bO)" fill-rule="evenodd"><path d="M2450.431-937.137l51.962 30v12l-51.962 30v-12l41.57-24-41.57-24z" fill="url(#bP)"/><path d="M2450.431-913.137l20.785 12-20.785 12z" fill="url(#bQ)"/></g><path transform="matrix(.09742 0 0 .09742 130.058 334.348)" d="M49.098-504.566L0-476.221v11.338l39.277-22.676v45.354l9.82 5.67zm-19.639 34.015l-19.64 11.338 19.64 11.338z" fill="url(#bS)" fill-rule="evenodd"/></g><g stroke-width="4.675"><g transform="translate(24.362 313.802) scale(.05347)" fill="url(#bU)" fill-rule="evenodd"><path d="M2450.431-937.137l51.962 30v12l-51.962 30v-12l41.57-24-41.57-24z" fill="url(#bV)"/><path d="M2450.431-913.137l20.785 12-20.785 12z" fill="url(#bW)"/></g><path transform="translate(152.055 292.246) scale(.05659)" d="M49.098-504.566L0-476.221v11.338l39.277-22.676v45.354l9.82 5.67zm-19.639 34.015l-19.64 11.338 19.64 11.338z" fill="url(#bY)" fill-rule="evenodd"/></g><g stroke-width="2.716"><g transform="matrix(.09205 0 0 .09205 -70.865 339.434)" fill="url(#ca)" fill-rule="evenodd"><path d="M2450.431-937.137l51.962 30v12l-51.962 30v-12l41.57-24-41.57-24z" fill="url(#cb)"/><path d="M2450.431-913.137l20.785 12-20.785 12z" fill="url(#cc)"/></g><path transform="matrix(.09742 0 0 .09742 148.953 302.326)" d="M49.098-504.566L0-476.221v11.338l39.277-22.676v45.354l9.82 5.67zm-19.639 34.015l-19.64 11.338 19.64 11.338z" fill="url(#ce)" fill-rule="evenodd"/></g><g stroke-width="2.716"><g transform="matrix(.09205 0 0 .09205 -68.356 327.299)" fill="url(#cg)" fill-rule="evenodd"><path d="M2450.431-937.137l51.962 30v12l-51.962 30v-12l41.57-24-41.57-24z" fill="url(#ch)"/><path d="M2450.431-913.137l20.785 12-20.785 12z" fill="url(#ci)"/></g><path d="M49.098-504.566L0-476.221v11.338l39.277-22.676v45.354l9.82 5.67zm-19.639 34.015l-19.64 11.338 19.64 11.338z" transform="matrix(.09742 0 0 .09742 151.462 290.19)" fill="url(#ck)" fill-rule="evenodd"/></g><path d="M91.018 259.595l-34.436-17.416" fill="none" stroke="#cd6264" stroke-width=".635"/><g stroke-width="4.675"><g transform="translate(-47.545 303.202) scale(.05347)" fill="url(#cm)" fill-rule="evenodd"><path d="M2450.431-937.137l51.962 30v12l-51.962 30v-12l41.57-24-41.57-24z" fill="url(#cn)"/><path d="M2450.431-913.137l20.785 12-20.785 12z" fill="url(#co)"/></g><path transform="translate(80.148 281.645) scale(.05659)" d="M49.098-504.566L0-476.221v11.338l39.277-22.676v45.354l9.82 5.67zm-19.639 34.015l-19.64 11.338 19.64 11.338z" fill="url(#cq)" fill-rule="evenodd"/></g><path d="M46.772 258.914s7.484 1.07 12.428-1.604c4.945-2.672 9.355-17.238 12.696-18.575 3.34-1.336 14.7-4.677 18.976-4.009 4.276.668 6.414 2.673 6.414 2.673" fill="none" stroke="#cd6264" stroke-width=".635"/><g stroke-width="4.675"><g transform="translate(-40.365 283.56) scale(.05347)" fill="url(#cs)" fill-rule="evenodd"><path d="M2450.431-937.137l51.962 30v12l-51.962 30v-12l41.57-24-41.57-24z" fill="url(#ct)"/><path d="M2450.431-913.137l20.785 12-20.785 12z" fill="url(#cu)"/></g><path d="M49.098-504.566L0-476.221v11.338l39.277-22.676v45.354l9.82 5.67zm-19.639 34.015l-19.64 11.338 19.64 11.338z" transform="translate(87.328 262.004) scale(.05659)" fill="url(#cw)" fill-rule="evenodd"/></g><text y="209.234" x="130.03" style="line-height:1.25;-inkscape-font-specification:AbbeyRoad;text-align:center" font-weight="400" font-size="6.552" font-family="AbbeyRoad" letter-spacing="0" word-spacing="0" text-anchor="middle" stroke-width=".265"><tspan style="-inkscape-font-specification:AbbeyRoad" y="209.234" x="130.03">Image of</tspan></text><g stroke-width="4.675"><g transform="translate(25.297 321.754) scale(.05347)" fill="url(#cy)" fill-rule="evenodd"><path d="M2450.431-937.137l51.962 30v12l-51.962 30v-12l41.57-24-41.57-24z" fill="url(#cz)"/><path d="M2450.431-913.137l20.785 12-20.785 12z" fill="url(#cA)"/></g><path d="M49.098-504.566L0-476.221v11.338l39.277-22.676v45.354l9.82 5.67zm-19.639 34.015l-19.64 11.338 19.64 11.338z" transform="translate(152.99 300.197) scale(.05659)" fill="url(#cC)" fill-rule="evenodd"/></g></g></svg>