<svg xmlns:osb="http://www.openswatchbook.org/uri/2009/osb" xmlns="http://www.w3.org/2000/svg" xmlns:xlink="http://www.w3.org/1999/xlink" viewBox="0 0 190.5 100.013" height="378" width="720"><defs><linearGradient id="a" osb:paint="solid"><stop offset="0" stop-color="#c678c5"/></linearGradient><linearGradient id="c" osb:paint="solid"><stop offset="0" stop-color="#6d6d6d"/></linearGradient><linearGradient id="b" osb:paint="solid"><stop offset="0" stop-color="#f1007e"/></linearGradient><linearGradient gradientTransform="matrix(3.42049 0 0 3.42049 -7962.419 3329.185)" xlink:href="#b" id="d" gradientUnits="userSpaceOnUse" x1="3241.684" y1="-1355.433" x2="3254.953" y2="-1355.433"/><linearGradient gradientTransform="matrix(3.42049 0 0 3.42049 -7962.419 3329.185)" xlink:href="#c" id="h" gradientUnits="userSpaceOnUse" x1="3225.76" y1="-1355.433" x2="3239.03" y2="-1355.433"/><linearGradient xlink:href="#c" id="i" gradientUnits="userSpaceOnUse" x1="3225.76" y1="-1355.433" x2="3239.03" y2="-1355.433" gradientTransform="translate(-41397.199 16862.923) scale(12.65609)"/><linearGradient xlink:href="#c" id="j" gradientUnits="userSpaceOnUse" gradientTransform="translate(-40094.495 16844.445) scale(12.24944)" x1="3269.126" y1="-1354.622" x2="3322.194" y2="-1354.622"/><linearGradient xlink:href="#b" id="k" gradientUnits="userSpaceOnUse" gradientTransform="translate(-40083.115 16844.445) scale(12.24944)" x1="3323.995" y1="-1356.536" x2="3349.068" y2="-1356.536"/><linearGradient gradientTransform="matrix(3.42049 0 0 3.42049 -6385.34 2370.624)" y2="-1355.433" x2="3254.953" y1="-1355.433" x1="3241.684" gradientUnits="userSpaceOnUse" id="f" xlink:href="#b"/><linearGradient gradientTransform="matrix(3.42049 0 0 3.42049 -6385.34 2370.624)" y2="-1355.433" x2="3254.953" y1="-1355.433" x1="3241.684" gradientUnits="userSpaceOnUse" id="g" xlink:href="#b"/><linearGradient gradientTransform="matrix(3.42049 0 0 3.42049 -6385.34 2370.624)" y2="-1355.433" x2="3254.953" y1="-1355.433" x1="3241.684" gradientUnits="userSpaceOnUse" id="e" xlink:href="#b"/><linearGradient y2="-1355.433" x2="3254.953" y1="-1355.433" x1="3241.684" gradientTransform="matrix(2.71597 0 0 2.71597 -4136.425 1705.492)" gradientUnits="userSpaceOnUse" id="n" xlink:href="#b"/><linearGradient y2="-1355.433" x2="3254.953" y1="-1355.433" x1="3241.684" gradientTransform="matrix(2.71597 0 0 2.71597 -4136.425 1705.492)" gradientUnits="userSpaceOnUse" id="o" xlink:href="#b"/><linearGradient y2="-1355.433" x2="3254.953" y1="-1355.433" x1="3241.684" gradientTransform="matrix(2.71597 0 0 2.71597 -4136.425 1705.492)" gradientUnits="userSpaceOnUse" id="m" xlink:href="#b"/><linearGradient y2="-1355.433" x2="3254.953" y1="-1355.433" x1="3241.684" gradientTransform="matrix(2.71597 0 0 2.71597 -5545.161 2366.532)" gradientUnits="userSpaceOnUse" id="l" xlink:href="#b"/><linearGradient y2="-1355.433" x2="3239.03" y1="-1355.433" x1="3225.76" gradientTransform="matrix(10.04932 0 0 10.04932 -32453.143 13301.028)" gradientUnits="userSpaceOnUse" id="q" xlink:href="#c"/><linearGradient y2="-1355.433" x2="3239.03" y1="-1355.433" x1="3225.76" gradientTransform="matrix(2.71597 0 0 2.71597 -5545.161 2366.532)" gradientUnits="userSpaceOnUse" id="p" xlink:href="#c"/><linearGradient y2="-1355.433" x2="3254.953" y1="-1355.433" x1="3241.684" gradientTransform="matrix(2.71597 0 0 2.71597 -3436.488 1756.205)" gradientUnits="userSpaceOnUse" id="t" xlink:href="#b"/><linearGradient y2="-1355.433" x2="3254.953" y1="-1355.433" x1="3241.684" gradientTransform="matrix(2.71597 0 0 2.71597 -3436.488 1756.205)" gradientUnits="userSpaceOnUse" id="u" xlink:href="#b"/><linearGradient y2="-1355.433" x2="3254.953" y1="-1355.433" x1="3241.684" gradientTransform="matrix(2.71597 0 0 2.71597 -3436.488 1756.205)" gradientUnits="userSpaceOnUse" id="s" xlink:href="#b"/><linearGradient y2="-1355.433" x2="3254.953" y1="-1355.433" x1="3241.684" gradientTransform="matrix(2.71597 0 0 2.71597 -5366.42 2379.482)" gradientUnits="userSpaceOnUse" id="r" xlink:href="#b"/><linearGradient y2="-1355.433" x2="3239.03" y1="-1355.433" x1="3225.76" gradientTransform="matrix(10.04932 0 0 10.04932 -31791.784 13348.946)" gradientUnits="userSpaceOnUse" id="w" xlink:href="#c"/><linearGradient y2="-1355.433" x2="3239.03" y1="-1355.433" x1="3225.76" gradientTransform="matrix(2.71597 0 0 2.71597 -5366.42 2379.482)" gradientUnits="userSpaceOnUse" id="v" xlink:href="#c"/><linearGradient y2="-1355.433" x2="3254.953" y1="-1355.433" x1="3241.684" gradientTransform="matrix(4.67543 0 0 4.67543 -7480.393 3113.516)" gradientUnits="userSpaceOnUse" id="z" xlink:href="#b"/><linearGradient y2="-1355.433" x2="3254.953" y1="-1355.433" x1="3241.684" gradientTransform="matrix(4.67543 0 0 4.67543 -7480.393 3113.516)" gradientUnits="userSpaceOnUse" id="A" xlink:href="#b"/><linearGradient y2="-1355.433" x2="3254.953" y1="-1355.433" x1="3241.684" gradientTransform="matrix(4.67543 0 0 4.67543 -7480.393 3113.516)" gradientUnits="userSpaceOnUse" id="y" xlink:href="#b"/><linearGradient y2="-1355.433" x2="3254.953" y1="-1355.433" x1="3241.684" gradientTransform="matrix(4.67543 0 0 4.67543 -11524.885 4931.094)" gradientUnits="userSpaceOnUse" id="x" xlink:href="#b"/><linearGradient y2="-1355.433" x2="3239.03" y1="-1355.433" x1="3225.76" gradientTransform="matrix(17.29947 0 0 17.29947 -54578.623 22790.12)" gradientUnits="userSpaceOnUse" id="C" xlink:href="#c"/><linearGradient y2="-1355.433" x2="3239.03" y1="-1355.433" x1="3225.76" gradientTransform="matrix(4.67543 0 0 4.67543 -11524.885 4931.094)" gradientUnits="userSpaceOnUse" id="B" xlink:href="#c"/><linearGradient y2="-1355.433" x2="3254.953" y1="-1355.433" x1="3241.684" gradientTransform="matrix(4.67543 0 0 4.67543 -7898.229 2757.068)" gradientUnits="userSpaceOnUse" id="F" xlink:href="#b"/><linearGradient y2="-1355.433" x2="3254.953" y1="-1355.433" x1="3241.684" gradientTransform="matrix(4.67543 0 0 4.67543 -7898.229 2757.068)" gradientUnits="userSpaceOnUse" id="G" xlink:href="#b"/><linearGradient y2="-1355.433" x2="3254.953" y1="-1355.433" x1="3241.684" gradientTransform="matrix(4.67543 0 0 4.67543 -7898.229 2757.068)" gradientUnits="userSpaceOnUse" id="E" xlink:href="#b"/><linearGradient y2="-1355.433" x2="3254.953" y1="-1355.433" x1="3241.684" gradientTransform="matrix(4.67543 0 0 4.67543 -11631.587 4840.069)" gradientUnits="userSpaceOnUse" id="D" xlink:href="#b"/><linearGradient y2="-1355.433" x2="3239.03" y1="-1355.433" x1="3225.76" gradientTransform="matrix(17.29947 0 0 17.29947 -54973.429 22453.319)" gradientUnits="userSpaceOnUse" id="I" xlink:href="#c"/><linearGradient y2="-1355.433" x2="3239.03" y1="-1355.433" x1="3225.76" gradientTransform="matrix(4.67543 0 0 4.67543 -11631.587 4840.069)" gradientUnits="userSpaceOnUse" id="H" xlink:href="#c"/><linearGradient y2="-1355.433" x2="3254.953" y1="-1355.433" x1="3241.684" gradientTransform="matrix(2.71597 0 0 2.71597 -3577.45 1426.794)" gradientUnits="userSpaceOnUse" id="L" xlink:href="#b"/><linearGradient y2="-1355.433" x2="3254.953" y1="-1355.433" x1="3241.684" gradientTransform="matrix(2.71597 0 0 2.71597 -3577.45 1426.794)" gradientUnits="userSpaceOnUse" id="M" xlink:href="#b"/><linearGradient y2="-1355.433" x2="3254.953" y1="-1355.433" x1="3241.684" gradientTransform="matrix(2.71597 0 0 2.71597 -3577.45 1426.794)" gradientUnits="userSpaceOnUse" id="K" xlink:href="#b"/><linearGradient y2="-1355.433" x2="3254.953" y1="-1355.433" x1="3241.684" gradientTransform="matrix(2.71597 0 0 2.71597 -5402.417 2295.361)" gradientUnits="userSpaceOnUse" id="J" xlink:href="#b"/><linearGradient y2="-1355.433" x2="3239.03" y1="-1355.433" x1="3225.76" gradientTransform="matrix(10.04932 0 0 10.04932 -31924.977 13037.691)" gradientUnits="userSpaceOnUse" id="O" xlink:href="#c"/><linearGradient y2="-1355.433" x2="3239.03" y1="-1355.433" x1="3225.76" gradientTransform="matrix(2.71597 0 0 2.71597 -5402.417 2295.361)" gradientUnits="userSpaceOnUse" id="N" xlink:href="#c"/><linearGradient y2="-1355.433" x2="3254.953" y1="-1355.433" x1="3241.684" gradientTransform="matrix(4.67543 0 0 4.67543 -8580.842 3318.482)" gradientUnits="userSpaceOnUse" id="R" xlink:href="#b"/><linearGradient y2="-1355.433" x2="3254.953" y1="-1355.433" x1="3241.684" gradientTransform="matrix(4.67543 0 0 4.67543 -8580.842 3318.482)" gradientUnits="userSpaceOnUse" id="S" xlink:href="#b"/><linearGradient y2="-1355.433" x2="3254.953" y1="-1355.433" x1="3241.684" gradientTransform="matrix(4.67543 0 0 4.67543 -8580.842 3318.482)" gradientUnits="userSpaceOnUse" id="Q" xlink:href="#b"/><linearGradient y2="-1355.433" x2="3254.953" y1="-1355.433" x1="3241.684" gradientTransform="matrix(4.67543 0 0 4.67543 -11805.905 4983.436)" gradientUnits="userSpaceOnUse" id="P" xlink:href="#b"/><linearGradient y2="-1355.433" x2="3239.03" y1="-1355.433" x1="3225.76" gradientTransform="matrix(17.29947 0 0 17.29947 -55618.419 22983.79)" gradientUnits="userSpaceOnUse" id="U" xlink:href="#c"/><linearGradient y2="-1355.433" x2="3239.03" y1="-1355.433" x1="3225.76" gradientTransform="matrix(4.67543 0 0 4.67543 -11805.905 4983.436)" gradientUnits="userSpaceOnUse" id="T" xlink:href="#c"/><linearGradient y2="-1355.433" x2="3254.953" y1="-1355.433" x1="3241.684" gradientTransform="matrix(4.67543 0 0 4.67543 -8718.643 3071.903)" gradientUnits="userSpaceOnUse" id="X" xlink:href="#b"/><linearGradient y2="-1355.433" x2="3254.953" y1="-1355.433" x1="3241.684" gradientTransform="matrix(4.67543 0 0 4.67543 -8718.643 3071.903)" gradientUnits="userSpaceOnUse" id="Y" xlink:href="#b"/><linearGradient y2="-1355.433" x2="3254.953" y1="-1355.433" x1="3241.684" gradientTransform="matrix(4.67543 0 0 4.67543 -8718.643 3071.903)" gradientUnits="userSpaceOnUse" id="W" xlink:href="#b"/><linearGradient y2="-1355.433" x2="3254.953" y1="-1355.433" x1="3241.684" gradientTransform="matrix(4.67543 0 0 4.67543 -11841.095 4920.467)" gradientUnits="userSpaceOnUse" id="V" xlink:href="#b"/><linearGradient y2="-1355.433" x2="3239.03" y1="-1355.433" x1="3225.76" gradientTransform="matrix(17.29947 0 0 17.29947 -55748.625 22750.801)" gradientUnits="userSpaceOnUse" id="aa" xlink:href="#c"/><linearGradient y2="-1355.433" x2="3239.03" y1="-1355.433" x1="3225.76" gradientTransform="matrix(4.67543 0 0 4.67543 -11841.095 4920.467)" gradientUnits="userSpaceOnUse" id="Z" xlink:href="#c"/><linearGradient y2="-1355.433" x2="3254.953" y1="-1355.433" x1="3241.684" gradientTransform="matrix(2.71597 0 0 2.71597 -3903.842 1448.012)" gradientUnits="userSpaceOnUse" id="ad" xlink:href="#b"/><linearGradient y2="-1355.433" x2="3254.953" y1="-1355.433" x1="3241.684" gradientTransform="matrix(2.71597 0 0 2.71597 -3903.842 1448.012)" gradientUnits="userSpaceOnUse" id="ae" xlink:href="#b"/><linearGradient y2="-1355.433" x2="3254.953" y1="-1355.433" x1="3241.684" gradientTransform="matrix(2.71597 0 0 2.71597 -3903.842 1448.012)" gradientUnits="userSpaceOnUse" id="ac" xlink:href="#b"/><linearGradient y2="-1355.433" x2="3254.953" y1="-1355.433" x1="3241.684" gradientTransform="matrix(2.71597 0 0 2.71597 -5485.767 2300.78)" gradientUnits="userSpaceOnUse" id="ab" xlink:href="#b"/><linearGradient y2="-1355.433" x2="3239.03" y1="-1355.433" x1="3225.76" gradientTransform="matrix(10.04932 0 0 10.04932 -32233.379 13057.74)" gradientUnits="userSpaceOnUse" id="ag" xlink:href="#c"/><linearGradient y2="-1355.433" x2="3239.03" y1="-1355.433" x1="3225.76" gradientTransform="matrix(2.71597 0 0 2.71597 -5485.767 2300.78)" gradientUnits="userSpaceOnUse" id="af" xlink:href="#c"/><linearGradient y2="-1355.433" x2="3254.953" y1="-1355.433" x1="3241.684" gradientTransform="matrix(4.67543 0 0 4.67543 -8405.414 2827.756)" gradientUnits="userSpaceOnUse" id="aj" xlink:href="#b"/><linearGradient y2="-1355.433" x2="3254.953" y1="-1355.433" x1="3241.684" gradientTransform="matrix(4.67543 0 0 4.67543 -8405.414 2827.756)" gradientUnits="userSpaceOnUse" id="ak" xlink:href="#b"/><linearGradient y2="-1355.433" x2="3254.953" y1="-1355.433" x1="3241.684" gradientTransform="matrix(4.67543 0 0 4.67543 -8405.414 2827.756)" gradientUnits="userSpaceOnUse" id="ai" xlink:href="#b"/><linearGradient y2="-1355.433" x2="3254.953" y1="-1355.433" x1="3241.684" gradientTransform="matrix(4.67543 0 0 4.67543 -11761.106 4858.12)" gradientUnits="userSpaceOnUse" id="ah" xlink:href="#b"/><linearGradient y2="-1355.433" x2="3239.03" y1="-1355.433" x1="3225.76" gradientTransform="matrix(17.29947 0 0 17.29947 -55452.66 22520.111)" gradientUnits="userSpaceOnUse" id="am" xlink:href="#c"/><linearGradient y2="-1355.433" x2="3239.03" y1="-1355.433" x1="3225.76" gradientTransform="matrix(4.67543 0 0 4.67543 -11761.106 4858.12)" gradientUnits="userSpaceOnUse" id="al" xlink:href="#c"/><linearGradient y2="-1355.433" x2="3254.953" y1="-1355.433" x1="3241.684" gradientTransform="matrix(4.67543 0 0 4.67543 -8161.22 2967.102)" gradientUnits="userSpaceOnUse" id="ap" xlink:href="#b"/><linearGradient y2="-1355.433" x2="3254.953" y1="-1355.433" x1="3241.684" gradientTransform="matrix(4.67543 0 0 4.67543 -8161.22 2967.102)" gradientUnits="userSpaceOnUse" id="aq" xlink:href="#b"/><linearGradient y2="-1355.433" x2="3254.953" y1="-1355.433" x1="3241.684" gradientTransform="matrix(4.67543 0 0 4.67543 -8161.22 2967.102)" gradientUnits="userSpaceOnUse" id="ao" xlink:href="#b"/><linearGradient y2="-1355.433" x2="3254.953" y1="-1355.433" x1="3241.684" gradientTransform="matrix(4.67543 0 0 4.67543 -11698.746 4893.705)" gradientUnits="userSpaceOnUse" id="an" xlink:href="#b"/><linearGradient y2="-1355.433" x2="3239.03" y1="-1355.433" x1="3225.76" gradientTransform="matrix(17.29947 0 0 17.29947 -55221.925 22651.778)" gradientUnits="userSpaceOnUse" id="as" xlink:href="#c"/><linearGradient y2="-1355.433" x2="3239.03" y1="-1355.433" x1="3225.76" gradientTransform="matrix(4.67543 0 0 4.67543 -11698.746 4893.705)" gradientUnits="userSpaceOnUse" id="ar" xlink:href="#c"/><linearGradient y2="-1355.433" x2="3254.953" y1="-1355.433" x1="3241.684" gradientTransform="matrix(4.67543 0 0 4.67543 -8269.02 3159.727)" gradientUnits="userSpaceOnUse" id="av" xlink:href="#b"/><linearGradient y2="-1355.433" x2="3254.953" y1="-1355.433" x1="3241.684" gradientTransform="matrix(4.67543 0 0 4.67543 -8269.02 3159.727)" gradientUnits="userSpaceOnUse" id="aw" xlink:href="#b"/><linearGradient y2="-1355.433" x2="3254.953" y1="-1355.433" x1="3241.684" gradientTransform="matrix(4.67543 0 0 4.67543 -8269.02 3159.727)" gradientUnits="userSpaceOnUse" id="au" xlink:href="#b"/><linearGradient y2="-1355.433" x2="3254.953" y1="-1355.433" x1="3241.684" gradientTransform="matrix(4.67543 0 0 4.67543 -11726.274 4942.895)" gradientUnits="userSpaceOnUse" id="at" xlink:href="#b"/><linearGradient y2="-1355.433" x2="3239.03" y1="-1355.433" x1="3225.76" gradientTransform="matrix(17.29947 0 0 17.29947 -55323.783 22833.786)" gradientUnits="userSpaceOnUse" id="ay" xlink:href="#c"/><linearGradient y2="-1355.433" x2="3239.03" y1="-1355.433" x1="3225.76" gradientTransform="matrix(4.67543 0 0 4.67543 -11726.274 4942.895)" gradientUnits="userSpaceOnUse" id="ax" xlink:href="#c"/><linearGradient y2="-1355.433" x2="3254.953" y1="-1355.433" x1="3241.684" gradientTransform="matrix(2.71597 0 0 2.71597 -3932.088 1131.702)" gradientUnits="userSpaceOnUse" id="aB" xlink:href="#b"/><linearGradient y2="-1355.433" x2="3254.953" y1="-1355.433" x1="3241.684" gradientTransform="matrix(2.71597 0 0 2.71597 -3932.088 1131.702)" gradientUnits="userSpaceOnUse" id="aC" xlink:href="#b"/><linearGradient y2="-1355.433" x2="3254.953" y1="-1355.433" x1="3241.684" gradientTransform="matrix(2.71597 0 0 2.71597 -3932.088 1131.702)" gradientUnits="userSpaceOnUse" id="aA" xlink:href="#b"/><linearGradient y2="-1355.433" x2="3254.953" y1="-1355.433" x1="3241.684" gradientTransform="matrix(2.71597 0 0 2.71597 -5492.98 2220.004)" gradientUnits="userSpaceOnUse" id="az" xlink:href="#b"/><linearGradient y2="-1355.433" x2="3239.03" y1="-1355.433" x1="3225.76" gradientTransform="matrix(10.04932 0 0 10.04932 -32260.068 12758.864)" gradientUnits="userSpaceOnUse" id="aE" xlink:href="#c"/><linearGradient y2="-1355.433" x2="3239.03" y1="-1355.433" x1="3225.76" gradientTransform="matrix(2.71597 0 0 2.71597 -5492.98 2220.004)" gradientUnits="userSpaceOnUse" id="aD" xlink:href="#c"/><linearGradient y2="-1355.433" x2="3254.953" y1="-1355.433" x1="3241.684" gradientTransform="matrix(2.71597 0 0 2.71597 -4270.487 1110.87)" gradientUnits="userSpaceOnUse" id="aH" xlink:href="#b"/><linearGradient y2="-1355.433" x2="3254.953" y1="-1355.433" x1="3241.684" gradientTransform="matrix(2.71597 0 0 2.71597 -4270.487 1110.87)" gradientUnits="userSpaceOnUse" id="aI" xlink:href="#b"/><linearGradient y2="-1355.433" x2="3254.953" y1="-1355.433" x1="3241.684" gradientTransform="matrix(2.71597 0 0 2.71597 -4270.487 1110.87)" gradientUnits="userSpaceOnUse" id="aG" xlink:href="#b"/><linearGradient y2="-1355.433" x2="3254.953" y1="-1355.433" x1="3241.684" gradientTransform="matrix(2.71597 0 0 2.71597 -5579.396 2214.684)" gradientUnits="userSpaceOnUse" id="aF" xlink:href="#b"/><linearGradient y2="-1355.433" x2="3239.03" y1="-1355.433" x1="3225.76" gradientTransform="matrix(10.04932 0 0 10.04932 -32579.816 12739.18)" gradientUnits="userSpaceOnUse" id="aK" xlink:href="#c"/><linearGradient y2="-1355.433" x2="3239.03" y1="-1355.433" x1="3225.76" gradientTransform="matrix(2.71597 0 0 2.71597 -5579.396 2214.684)" gradientUnits="userSpaceOnUse" id="aJ" xlink:href="#c"/><linearGradient y2="-1355.433" x2="3254.953" y1="-1355.433" x1="3241.684" gradientTransform="matrix(4.67543 0 0 4.67543 -8882.992 3043.628)" gradientUnits="userSpaceOnUse" id="aN" xlink:href="#b"/><linearGradient y2="-1355.433" x2="3254.953" y1="-1355.433" x1="3241.684" gradientTransform="matrix(4.67543 0 0 4.67543 -8882.992 3043.628)" gradientUnits="userSpaceOnUse" id="aO" xlink:href="#b"/><linearGradient y2="-1355.433" x2="3254.953" y1="-1355.433" x1="3241.684" gradientTransform="matrix(4.67543 0 0 4.67543 -8882.992 3043.628)" gradientUnits="userSpaceOnUse" id="aM" xlink:href="#b"/><linearGradient y2="-1355.433" x2="3254.953" y1="-1355.433" x1="3241.684" gradientTransform="matrix(4.67543 0 0 4.67543 -11883.065 4913.247)" gradientUnits="userSpaceOnUse" id="aL" xlink:href="#b"/><linearGradient y2="-1355.433" x2="3239.03" y1="-1355.433" x1="3225.76" gradientTransform="matrix(17.29947 0 0 17.29947 -55903.916 22724.084)" gradientUnits="userSpaceOnUse" id="aQ" xlink:href="#c"/><linearGradient y2="-1355.433" x2="3239.03" y1="-1355.433" x1="3225.76" gradientTransform="matrix(4.67543 0 0 4.67543 -11883.065 4913.247)" gradientUnits="userSpaceOnUse" id="aP" xlink:href="#c"/><linearGradient y2="-1355.433" x2="3254.953" y1="-1355.433" x1="3241.684" gradientTransform="matrix(4.67543 0 0 4.67543 -9102.125 2677.818)" gradientUnits="userSpaceOnUse" id="aT" xlink:href="#b"/><linearGradient y2="-1355.433" x2="3254.953" y1="-1355.433" x1="3241.684" gradientTransform="matrix(4.67543 0 0 4.67543 -9102.125 2677.818)" gradientUnits="userSpaceOnUse" id="aU" xlink:href="#b"/><linearGradient y2="-1355.433" x2="3254.953" y1="-1355.433" x1="3241.684" gradientTransform="matrix(4.67543 0 0 4.67543 -9102.125 2677.818)" gradientUnits="userSpaceOnUse" id="aS" xlink:href="#b"/><linearGradient y2="-1355.433" x2="3254.953" y1="-1355.433" x1="3241.684" gradientTransform="matrix(4.67543 0 0 4.67543 -11939.024 4819.83)" gradientUnits="userSpaceOnUse" id="aR" xlink:href="#b"/><linearGradient y2="-1355.433" x2="3239.03" y1="-1355.433" x1="3225.76" gradientTransform="matrix(17.29947 0 0 17.29947 -56110.971 22378.437)" gradientUnits="userSpaceOnUse" id="aW" xlink:href="#c"/><linearGradient y2="-1355.433" x2="3239.03" y1="-1355.433" x1="3225.76" gradientTransform="matrix(4.67543 0 0 4.67543 -11939.024 4819.83)" gradientUnits="userSpaceOnUse" id="aV" xlink:href="#c"/><linearGradient y2="-1355.433" x2="3254.953" y1="-1355.433" x1="3241.684" gradientTransform="matrix(4.67543 0 0 4.67543 -9259.405 3073.67)" gradientUnits="userSpaceOnUse" id="aZ" xlink:href="#b"/><linearGradient y2="-1355.433" x2="3254.953" y1="-1355.433" x1="3241.684" gradientTransform="matrix(4.67543 0 0 4.67543 -9259.405 3073.67)" gradientUnits="userSpaceOnUse" id="ba" xlink:href="#b"/><linearGradient y2="-1355.433" x2="3254.953" y1="-1355.433" x1="3241.684" gradientTransform="matrix(4.67543 0 0 4.67543 -9259.405 3073.67)" gradientUnits="userSpaceOnUse" id="aY" xlink:href="#b"/><linearGradient y2="-1355.433" x2="3254.953" y1="-1355.433" x1="3241.684" gradientTransform="matrix(4.67543 0 0 4.67543 -11979.188 4920.919)" gradientUnits="userSpaceOnUse" id="aX" xlink:href="#b"/><linearGradient y2="-1355.433" x2="3239.03" y1="-1355.433" x1="3225.76" gradientTransform="matrix(17.29947 0 0 17.29947 -56259.583 22752.471)" gradientUnits="userSpaceOnUse" id="bc" xlink:href="#c"/><linearGradient y2="-1355.433" x2="3239.03" y1="-1355.433" x1="3225.76" gradientTransform="matrix(4.67543 0 0 4.67543 -11979.188 4920.919)" gradientUnits="userSpaceOnUse" id="bb" xlink:href="#c"/><linearGradient y2="-1355.433" x2="3254.953" y1="-1355.433" x1="3241.684" gradientTransform="matrix(4.67543 0 0 4.67543 -8925.41 3167.875)" gradientUnits="userSpaceOnUse" id="bf" xlink:href="#b"/><linearGradient y2="-1355.433" x2="3254.953" y1="-1355.433" x1="3241.684" gradientTransform="matrix(4.67543 0 0 4.67543 -8925.41 3167.875)" gradientUnits="userSpaceOnUse" id="bg" xlink:href="#b"/><linearGradient y2="-1355.433" x2="3254.953" y1="-1355.433" x1="3241.684" gradientTransform="matrix(4.67543 0 0 4.67543 -8925.41 3167.875)" gradientUnits="userSpaceOnUse" id="be" xlink:href="#b"/><linearGradient y2="-1355.433" x2="3254.953" y1="-1355.433" x1="3241.684" gradientTransform="matrix(4.67543 0 0 4.67543 -11893.897 4944.976)" gradientUnits="userSpaceOnUse" id="bd" xlink:href="#b"/><linearGradient y2="-1355.433" x2="3239.03" y1="-1355.433" x1="3225.76" gradientTransform="matrix(17.29947 0 0 17.29947 -55943.997 22841.484)" gradientUnits="userSpaceOnUse" id="bi" xlink:href="#c"/><linearGradient y2="-1355.433" x2="3239.03" y1="-1355.433" x1="3225.76" gradientTransform="matrix(4.67543 0 0 4.67543 -11893.897 4944.976)" gradientUnits="userSpaceOnUse" id="bh" xlink:href="#c"/><linearGradient y2="-1355.433" x2="3254.953" y1="-1355.433" x1="3241.684" gradientTransform="matrix(4.67543 0 0 4.67543 -9095.062 3335.759)" gradientUnits="userSpaceOnUse" id="bl" xlink:href="#b"/><linearGradient y2="-1355.433" x2="3254.953" y1="-1355.433" x1="3241.684" gradientTransform="matrix(4.67543 0 0 4.67543 -9095.062 3335.759)" gradientUnits="userSpaceOnUse" id="bm" xlink:href="#b"/><linearGradient y2="-1355.433" x2="3254.953" y1="-1355.433" x1="3241.684" gradientTransform="matrix(4.67543 0 0 4.67543 -9095.062 3335.759)" gradientUnits="userSpaceOnUse" id="bk" xlink:href="#b"/><linearGradient y2="-1355.433" x2="3254.953" y1="-1355.433" x1="3241.684" gradientTransform="matrix(4.67543 0 0 4.67543 -11937.22 4987.848)" gradientUnits="userSpaceOnUse" id="bj" xlink:href="#b"/><linearGradient y2="-1355.433" x2="3239.03" y1="-1355.433" x1="3225.76" gradientTransform="matrix(17.29947 0 0 17.29947 -56104.297 23000.115)" gradientUnits="userSpaceOnUse" id="bo" xlink:href="#c"/><linearGradient y2="-1355.433" x2="3239.03" y1="-1355.433" x1="3225.76" gradientTransform="matrix(4.67543 0 0 4.67543 -11937.22 4987.848)" gradientUnits="userSpaceOnUse" id="bn" xlink:href="#c"/><linearGradient y2="-1355.433" x2="3254.953" y1="-1355.433" x1="3241.684" gradientTransform="matrix(2.71597 0 0 2.71597 -4451.689 1538.234)" gradientUnits="userSpaceOnUse" id="br" xlink:href="#b"/><linearGradient y2="-1355.433" x2="3254.953" y1="-1355.433" x1="3241.684" gradientTransform="matrix(2.71597 0 0 2.71597 -4451.689 1538.234)" gradientUnits="userSpaceOnUse" id="bs" xlink:href="#b"/><linearGradient y2="-1355.433" x2="3254.953" y1="-1355.433" x1="3241.684" gradientTransform="matrix(2.71597 0 0 2.71597 -4451.689 1538.234)" gradientUnits="userSpaceOnUse" id="bq" xlink:href="#b"/><linearGradient y2="-1355.433" x2="3254.953" y1="-1355.433" x1="3241.684" gradientTransform="matrix(2.71597 0 0 2.71597 -5625.67 2323.82)" gradientUnits="userSpaceOnUse" id="bp" xlink:href="#b"/><linearGradient y2="-1355.433" x2="3239.03" y1="-1355.433" x1="3225.76" gradientTransform="matrix(10.04932 0 0 10.04932 -32751.03 13142.99)" gradientUnits="userSpaceOnUse" id="bu" xlink:href="#c"/><linearGradient y2="-1355.433" x2="3239.03" y1="-1355.433" x1="3225.76" gradientTransform="matrix(2.71597 0 0 2.71597 -5625.67 2323.82)" gradientUnits="userSpaceOnUse" id="bt" xlink:href="#c"/><linearGradient y2="-1355.433" x2="3254.953" y1="-1355.433" x1="3241.684" gradientTransform="matrix(2.71597 0 0 2.71597 -4517.849 1303.74)" gradientUnits="userSpaceOnUse" id="bx" xlink:href="#b"/><linearGradient y2="-1355.433" x2="3254.953" y1="-1355.433" x1="3241.684" gradientTransform="matrix(2.71597 0 0 2.71597 -4517.849 1303.74)" gradientUnits="userSpaceOnUse" id="by" xlink:href="#b"/><linearGradient y2="-1355.433" x2="3254.953" y1="-1355.433" x1="3241.684" gradientTransform="matrix(2.71597 0 0 2.71597 -4517.849 1303.74)" gradientUnits="userSpaceOnUse" id="bw" xlink:href="#b"/><linearGradient y2="-1355.433" x2="3254.953" y1="-1355.433" x1="3241.684" gradientTransform="matrix(2.71597 0 0 2.71597 -5642.565 2263.937)" gradientUnits="userSpaceOnUse" id="bv" xlink:href="#b"/><linearGradient y2="-1355.433" x2="3239.03" y1="-1355.433" x1="3225.76" gradientTransform="matrix(10.04932 0 0 10.04932 -32813.543 12921.42)" gradientUnits="userSpaceOnUse" id="bA" xlink:href="#c"/><linearGradient y2="-1355.433" x2="3239.03" y1="-1355.433" x1="3225.76" gradientTransform="matrix(2.71597 0 0 2.71597 -5642.565 2263.937)" gradientUnits="userSpaceOnUse" id="bz" xlink:href="#c"/><linearGradient y2="-1355.433" x2="3254.953" y1="-1355.433" x1="3241.684" gradientTransform="matrix(4.67543 0 0 4.67543 -9177.775 2809.488)" gradientUnits="userSpaceOnUse" id="bD" xlink:href="#b"/><linearGradient y2="-1355.433" x2="3254.953" y1="-1355.433" x1="3241.684" gradientTransform="matrix(4.67543 0 0 4.67543 -9177.775 2809.488)" gradientUnits="userSpaceOnUse" id="bE" xlink:href="#b"/><linearGradient y2="-1355.433" x2="3254.953" y1="-1355.433" x1="3241.684" gradientTransform="matrix(4.67543 0 0 4.67543 -9177.775 2809.488)" gradientUnits="userSpaceOnUse" id="bC" xlink:href="#b"/><linearGradient y2="-1355.433" x2="3254.953" y1="-1355.433" x1="3241.684" gradientTransform="matrix(4.67543 0 0 4.67543 -11958.343 4853.455)" gradientUnits="userSpaceOnUse" id="bB" xlink:href="#b"/><linearGradient y2="-1355.433" x2="3239.03" y1="-1355.433" x1="3225.76" gradientTransform="matrix(17.29947 0 0 17.29947 -56182.452 22502.85)" gradientUnits="userSpaceOnUse" id="bG" xlink:href="#c"/><linearGradient y2="-1355.433" x2="3239.03" y1="-1355.433" x1="3225.76" gradientTransform="matrix(4.67543 0 0 4.67543 -11958.343 4853.455)" gradientUnits="userSpaceOnUse" id="bF" xlink:href="#c"/><linearGradient y2="-1355.433" x2="3254.953" y1="-1355.433" x1="3241.684" gradientTransform="matrix(4.67543 0 0 4.67543 -9324.453 2848.367)" gradientUnits="userSpaceOnUse" id="bJ" xlink:href="#b"/><linearGradient y2="-1355.433" x2="3254.953" y1="-1355.433" x1="3241.684" gradientTransform="matrix(4.67543 0 0 4.67543 -9324.453 2848.367)" gradientUnits="userSpaceOnUse" id="bK" xlink:href="#b"/><linearGradient y2="-1355.433" x2="3254.953" y1="-1355.433" x1="3241.684" gradientTransform="matrix(4.67543 0 0 4.67543 -9324.453 2848.367)" gradientUnits="userSpaceOnUse" id="bI" xlink:href="#b"/><linearGradient y2="-1355.433" x2="3254.953" y1="-1355.433" x1="3241.684" gradientTransform="matrix(4.67543 0 0 4.67543 -11995.8 4863.383)" gradientUnits="userSpaceOnUse" id="bH" xlink:href="#b"/><linearGradient y2="-1355.433" x2="3239.03" y1="-1355.433" x1="3225.76" gradientTransform="matrix(17.29947 0 0 17.29947 -56321.045 22539.586)" gradientUnits="userSpaceOnUse" id="bM" xlink:href="#c"/><linearGradient y2="-1355.433" x2="3239.03" y1="-1355.433" x1="3225.76" gradientTransform="matrix(4.67543 0 0 4.67543 -11995.8 4863.383)" gradientUnits="userSpaceOnUse" id="bL" xlink:href="#c"/><linearGradient y2="-1355.433" x2="3254.953" y1="-1355.433" x1="3241.684" gradientTransform="matrix(2.71597 0 0 2.71597 -4431.659 1023.611)" gradientUnits="userSpaceOnUse" id="bP" xlink:href="#b"/><linearGradient y2="-1355.433" x2="3254.953" y1="-1355.433" x1="3241.684" gradientTransform="matrix(2.71597 0 0 2.71597 -4431.659 1023.611)" gradientUnits="userSpaceOnUse" id="bQ" xlink:href="#b"/><linearGradient y2="-1355.433" x2="3254.953" y1="-1355.433" x1="3241.684" gradientTransform="matrix(2.71597 0 0 2.71597 -4431.659 1023.611)" gradientUnits="userSpaceOnUse" id="bO" xlink:href="#b"/><linearGradient y2="-1355.433" x2="3254.953" y1="-1355.433" x1="3241.684" gradientTransform="matrix(2.71597 0 0 2.71597 -5620.555 2192.401)" gradientUnits="userSpaceOnUse" id="bN" xlink:href="#b"/><linearGradient y2="-1355.433" x2="3239.03" y1="-1355.433" x1="3225.76" gradientTransform="matrix(10.04932 0 0 10.04932 -32732.104 12656.731)" gradientUnits="userSpaceOnUse" id="bS" xlink:href="#c"/><linearGradient y2="-1355.433" x2="3239.03" y1="-1355.433" x1="3225.76" gradientTransform="matrix(2.71597 0 0 2.71597 -5620.555 2192.401)" gradientUnits="userSpaceOnUse" id="bR" xlink:href="#c"/><linearGradient y2="-1355.433" x2="3254.953" y1="-1355.433" x1="3241.684" gradientTransform="matrix(4.67543 0 0 4.67543 -9763.18 2840.32)" gradientUnits="userSpaceOnUse" id="bV" xlink:href="#b"/><linearGradient y2="-1355.433" x2="3254.953" y1="-1355.433" x1="3241.684" gradientTransform="matrix(4.67543 0 0 4.67543 -9763.18 2840.32)" gradientUnits="userSpaceOnUse" id="bW" xlink:href="#b"/><linearGradient y2="-1355.433" x2="3254.953" y1="-1355.433" x1="3241.684" gradientTransform="matrix(4.67543 0 0 4.67543 -9763.18 2840.32)" gradientUnits="userSpaceOnUse" id="bU" xlink:href="#b"/><linearGradient y2="-1355.433" x2="3254.953" y1="-1355.433" x1="3241.684" gradientTransform="matrix(4.67543 0 0 4.67543 -12107.837 4861.328)" gradientUnits="userSpaceOnUse" id="bT" xlink:href="#b"/><linearGradient y2="-1355.433" x2="3239.03" y1="-1355.433" x1="3225.76" gradientTransform="matrix(17.29947 0 0 17.29947 -56735.592 22531.982)" gradientUnits="userSpaceOnUse" id="bY" xlink:href="#c"/><linearGradient y2="-1355.433" x2="3239.03" y1="-1355.433" x1="3225.76" gradientTransform="matrix(4.67543 0 0 4.67543 -12107.837 4861.328)" gradientUnits="userSpaceOnUse" id="bX" xlink:href="#c"/><linearGradient y2="-1355.433" x2="3254.953" y1="-1355.433" x1="3241.684" gradientTransform="matrix(2.71597 0 0 2.71597 -4636.93 1371.494)" gradientUnits="userSpaceOnUse" id="cb" xlink:href="#b"/><linearGradient y2="-1355.433" x2="3254.953" y1="-1355.433" x1="3241.684" gradientTransform="matrix(2.71597 0 0 2.71597 -4636.93 1371.494)" gradientUnits="userSpaceOnUse" id="cc" xlink:href="#b"/><linearGradient y2="-1355.433" x2="3254.953" y1="-1355.433" x1="3241.684" gradientTransform="matrix(2.71597 0 0 2.71597 -4636.93 1371.494)" gradientUnits="userSpaceOnUse" id="ca" xlink:href="#b"/><linearGradient y2="-1355.433" x2="3254.953" y1="-1355.433" x1="3241.684" gradientTransform="matrix(2.71597 0 0 2.71597 -5672.974 2281.24)" gradientUnits="userSpaceOnUse" id="bZ" xlink:href="#b"/><linearGradient y2="-1355.433" x2="3239.03" y1="-1355.433" x1="3225.76" gradientTransform="matrix(10.04932 0 0 10.04932 -32926.062 12985.439)" gradientUnits="userSpaceOnUse" id="ce" xlink:href="#c"/><linearGradient y2="-1355.433" x2="3239.03" y1="-1355.433" x1="3225.76" gradientTransform="matrix(2.71597 0 0 2.71597 -5672.974 2281.24)" gradientUnits="userSpaceOnUse" id="cd" xlink:href="#c"/><linearGradient y2="-1355.433" x2="3254.953" y1="-1355.433" x1="3241.684" gradientTransform="matrix(2.71597 0 0 2.71597 -4664.189 1503.33)" gradientUnits="userSpaceOnUse" id="ch" xlink:href="#b"/><linearGradient y2="-1355.433" x2="3254.953" y1="-1355.433" x1="3241.684" gradientTransform="matrix(2.71597 0 0 2.71597 -4664.189 1503.33)" gradientUnits="userSpaceOnUse" id="ci" xlink:href="#b"/><linearGradient y2="-1355.433" x2="3254.953" y1="-1355.433" x1="3241.684" gradientTransform="matrix(2.71597 0 0 2.71597 -4664.189 1503.33)" gradientUnits="userSpaceOnUse" id="cg" xlink:href="#b"/><linearGradient y2="-1355.433" x2="3254.953" y1="-1355.433" x1="3241.684" gradientTransform="matrix(2.71597 0 0 2.71597 -5679.935 2314.907)" gradientUnits="userSpaceOnUse" id="cf" xlink:href="#b"/><linearGradient y2="-1355.433" x2="3239.03" y1="-1355.433" x1="3225.76" gradientTransform="matrix(10.04932 0 0 10.04932 -32951.818 13110.01)" gradientUnits="userSpaceOnUse" id="ck" xlink:href="#c"/><linearGradient y2="-1355.433" x2="3239.03" y1="-1355.433" x1="3225.76" gradientTransform="matrix(2.71597 0 0 2.71597 -5679.935 2314.907)" gradientUnits="userSpaceOnUse" id="cj" xlink:href="#c"/><linearGradient y2="-1355.433" x2="3254.953" y1="-1355.433" x1="3241.684" gradientTransform="matrix(4.67543 0 0 4.67543 -8418.395 3038.572)" gradientUnits="userSpaceOnUse" id="cn" xlink:href="#b"/><linearGradient y2="-1355.433" x2="3254.953" y1="-1355.433" x1="3241.684" gradientTransform="matrix(4.67543 0 0 4.67543 -8418.395 3038.572)" gradientUnits="userSpaceOnUse" id="co" xlink:href="#b"/><linearGradient y2="-1355.433" x2="3254.953" y1="-1355.433" x1="3241.684" gradientTransform="matrix(4.67543 0 0 4.67543 -8418.395 3038.572)" gradientUnits="userSpaceOnUse" id="cm" xlink:href="#b"/><linearGradient y2="-1355.433" x2="3254.953" y1="-1355.433" x1="3241.684" gradientTransform="matrix(4.67543 0 0 4.67543 -11764.421 4911.956)" gradientUnits="userSpaceOnUse" id="cl" xlink:href="#b"/><linearGradient y2="-1355.433" x2="3239.03" y1="-1355.433" x1="3225.76" gradientTransform="matrix(17.29947 0 0 17.29947 -55464.925 22719.308)" gradientUnits="userSpaceOnUse" id="cq" xlink:href="#c"/><linearGradient y2="-1355.433" x2="3239.03" y1="-1355.433" x1="3225.76" gradientTransform="matrix(4.67543 0 0 4.67543 -11764.421 4911.956)" gradientUnits="userSpaceOnUse" id="cp" xlink:href="#c"/><linearGradient y2="-1355.433" x2="3254.953" y1="-1355.433" x1="3241.684" gradientTransform="matrix(4.67543 0 0 4.67543 -8552.678 3405.897)" gradientUnits="userSpaceOnUse" id="ct" xlink:href="#b"/><linearGradient y2="-1355.433" x2="3254.953" y1="-1355.433" x1="3241.684" gradientTransform="matrix(4.67543 0 0 4.67543 -8552.678 3405.897)" gradientUnits="userSpaceOnUse" id="cu" xlink:href="#b"/><linearGradient y2="-1355.433" x2="3254.953" y1="-1355.433" x1="3241.684" gradientTransform="matrix(4.67543 0 0 4.67543 -8552.678 3405.897)" gradientUnits="userSpaceOnUse" id="cs" xlink:href="#b"/><linearGradient y2="-1355.433" x2="3254.953" y1="-1355.433" x1="3241.684" gradientTransform="matrix(4.67543 0 0 4.67543 -11798.711 5005.759)" gradientUnits="userSpaceOnUse" id="cr" xlink:href="#b"/><linearGradient y2="-1355.433" x2="3239.03" y1="-1355.433" x1="3225.76" gradientTransform="matrix(17.29947 0 0 17.29947 -55591.807 23066.389)" gradientUnits="userSpaceOnUse" id="cw" xlink:href="#c"/><linearGradient y2="-1355.433" x2="3239.03" y1="-1355.433" x1="3225.76" gradientTransform="matrix(4.67543 0 0 4.67543 -11798.711 5005.759)" gradientUnits="userSpaceOnUse" id="cv" xlink:href="#c"/><linearGradient y2="-1355.433" x2="3254.953" y1="-1355.433" x1="3241.684" gradientTransform="matrix(4.67543 0 0 4.67543 -9780.675 2691.618)" gradientUnits="userSpaceOnUse" id="cz" xlink:href="#b"/><linearGradient y2="-1355.433" x2="3254.953" y1="-1355.433" x1="3241.684" gradientTransform="matrix(4.67543 0 0 4.67543 -9780.675 2691.618)" gradientUnits="userSpaceOnUse" id="cA" xlink:href="#b"/><linearGradient y2="-1355.433" x2="3254.953" y1="-1355.433" x1="3241.684" gradientTransform="matrix(4.67543 0 0 4.67543 -9780.675 2691.618)" gradientUnits="userSpaceOnUse" id="cy" xlink:href="#b"/><linearGradient y2="-1355.433" x2="3254.953" y1="-1355.433" x1="3241.684" gradientTransform="matrix(4.67543 0 0 4.67543 -12112.305 4823.355)" gradientUnits="userSpaceOnUse" id="cx" xlink:href="#b"/><linearGradient y2="-1355.433" x2="3239.03" y1="-1355.433" x1="3225.76" gradientTransform="matrix(17.29947 0 0 17.29947 -56752.122 22391.476)" gradientUnits="userSpaceOnUse" id="cC" xlink:href="#c"/><linearGradient y2="-1355.433" x2="3239.03" y1="-1355.433" x1="3225.76" gradientTransform="matrix(4.67543 0 0 4.67543 -12112.305 4823.355)" gradientUnits="userSpaceOnUse" id="cB" xlink:href="#c"/></defs><path d="M1.1 0h188.3c.61 0 1.1.49 1.1 1.1v97.813c0 .609-.49 1.1-1.1 1.1H1.1c-.61 0-1.1-.491-1.1-1.1V1.1C0 .49.49 0 1.1 0z" fill="#fafbff" paint-order="markers stroke fill"/><g stroke-width="3.013"><path d="M42.388 72.815c-.298 1.533-2.67 3.211-5.392 3.536-1.42.17-2.818.325-4.308.257-2.438-.112-4.362-.582-4.362-.582 0 .237.015.463.044.675.317 2.406 2.386 2.55 4.345 2.617 1.978.068 3.74-.488 3.74-.488l.08 1.788s-1.383.743-3.847.88c-1.36.074-3.047-.034-5.012-.555-4.262-1.128-4.995-5.671-5.108-10.281-.034-1.37-.013-2.66-.013-3.74 0-4.714 3.089-6.095 3.089-6.095 1.557-.716 4.23-1.016 7.008-1.039h.068c2.778.023 5.452.323 7.01 1.039 0 0 3.088 1.381 3.088 6.096 0 0 .039 3.478-.43 5.892" fill="#2b90d9"/><path d="M39.175 67.288v5.708h-2.261v-5.54c0-1.168-.492-1.76-1.475-1.76-1.086 0-1.631.703-1.631 2.093v3.033H31.56v-3.033c0-1.39-.545-2.094-1.632-2.094-.982 0-1.474.593-1.474 1.761v5.54h-2.261v-5.708c0-1.166.297-2.093.893-2.78.616-.685 1.421-1.037 2.422-1.037 1.157 0 2.033.445 2.613 1.335l.563.944.563-.944c.58-.89 1.456-1.335 2.613-1.335 1 0 1.806.352 2.422 1.038.596.686.893 1.613.893 2.78" fill="#fff"/></g><g style="line-height:476.69509888px;-inkscape-font-specification:'OTADESIGN Rounded'" fill="#2ba3bc" stroke-width="5.58"><path style="-inkscape-font-specification:'OTADESIGN Rounded'" d="M69.515 8.278c-.355 0-.692.059-1.013.177a2.89 2.89 0 00-1.418 1.089 2.89 2.89 0 00-.532 1.696v11.09c0 .81.287 1.51.861 2.101.591.574 1.292.861 2.102.861.827 0 1.527-.287 2.101-.86.591-.591.886-1.292.886-2.102v-2.017c.007-.437.457-.322.684 0 .426.738 1.329 1.371 2.38 1.368 1.051-.004 1.924-.524 2.38-1.368.173-.203.66-.55.709 0v2.017c0 .81.287 1.51.86 2.101.592.574 1.292.861 2.102.861.827 0 1.528-.287 2.102-.86.59-.591.886-1.292.886-2.102V11.24a2.8 2.8 0 00-.557-1.696 2.758 2.758 0 00-1.393-1.09 3.049 3.049 0 00-1.012-.176c-.912 0-1.68.354-2.304 1.063l-3.007 3.518c-.067.051-.29.438-.766.438-.475 0-.673-.387-.74-.438l-3.033-3.518c-.607-.709-1.367-1.063-2.278-1.063zm18.732 0c-.708 0-1.316.253-1.823.76-.489.489-.734 1.088-.734 1.797 0 .709.245 1.317.734 1.823a2.53 2.53 0 001.823.734 2.53 2.53 0 001.823-.734c.507-.506.76-1.114.76-1.823 0-.709-.253-1.308-.76-1.798a2.486 2.486 0 00-1.823-.76zm.026 5.62c-.71 0-1.317.254-1.823.76a2.486 2.486 0 00-.76 1.823v6.254c0 .709.253 1.317.76 1.823a2.53 2.53 0 001.823.734c.709 0 1.308-.244 1.797-.734.507-.506.76-1.114.76-1.823v-6.254c0-.709-.253-1.316-.76-1.823a2.404 2.404 0 00-1.797-.76z" aria-label="Mi" font-weight="400" font-size="141.034" font-family="OTADESIGN Rounded" letter-spacing="0" word-spacing="0" stroke-width="1.615"/></g><g style="line-height:1.25;-inkscape-font-specification:'GenEi Nu Gothic EB';text-align:center" aria-label="Mastodon" font-weight="400" font-size="8.279" font-family="GenEi Nu Gothic EB" letter-spacing="0" word-spacing="0" text-anchor="middle" fill="#2b90d9" stroke-width=".333"><path style="-inkscape-font-specification:'GenEi Nu Gothic EB'" d="M14.535 89.728l.468-5.588h1.328l.783 2.02q.385 1.014.552 1.61l.051.2q.173-.655.629-1.81l.776-2.02h1.328l.57 5.588h-1.192l-.206-2.175-.122-1.739q-.243.693-.635 1.739l-.782 2.104h-.745l-.763-2.104q-.372-1.033-.526-1.534l-.058-.198q0 .397-.09 1.732l-.166 2.175zM24.068 87.841l-.436.097q-.424.102-.558.218-.135.115-.135.32 0 .462.526.462.282 0 .443-.173.16-.173.16-.455zm-1.995-1.077V85.73q.205-.116.584-.193.378-.083.82-.083.893 0 1.322.385.43.385.43 1.193v2.695h-1.116v-.456q-.295.475-1.052.475-.61 0-.962-.347-.347-.346-.347-.853t.276-.795q.193-.2.712-.334.52-.141.764-.186l.564-.122v-.141q0-.59-.718-.59-.719 0-1.277.385zM28.796 85.647v.982q-.436-.25-1.026-.25-.231 0-.36.096-.121.09-.121.205 0 .116.038.186.045.064.141.129.097.064.18.109.09.038.244.115.154.07.243.116.405.198.642.462.237.263.237.68 0 .609-.436.943-.436.333-1.174.333-.731 0-1.257-.25v-1.02q.57.391 1.206.391.494 0 .494-.327 0-.167-.193-.282-.186-.122-.667-.32-.86-.412-.86-1.194 0-.597.456-.937.462-.34 1.116-.34.661 0 1.097.173zM30.971 88.361q0 .488.539.488.263 0 .532-.174v.95q-.32.141-.802.141-1.41 0-1.41-1.411v-1.996h-.61v-.84h.61v-.994h1.141v.994h1v.84h-1zM36.54 87.617q0 .943-.54 1.559-.532.616-1.507.616-.969 0-1.508-.597-.532-.597-.532-1.54 0-.943.558-1.565.565-.629 1.514-.629.95 0 1.482.603.533.603.533 1.553zm-1.18.02q0-.565-.213-.918-.205-.36-.648-.36-.436 0-.654.36-.212.353-.212.91 0 .552.225.912.224.359.648.359.43 0 .641-.347.212-.352.212-.917zM38.285 87.617q0 .552.269.879.276.32.686.32.417 0 .687-.327.276-.333.276-.904t-.295-.866q-.29-.295-.687-.295-.398 0-.667.32-.27.321-.27.873zm1.918-3.753h1.135v5.864h-1.135v-.59q-.424.64-1.258.64-.834 0-1.321-.634-.488-.635-.488-1.578 0-.943.507-1.52.513-.578 1.322-.578.808 0 1.238.641zM46.227 87.617q0 .943-.54 1.559-.532.616-1.507.616-.968 0-1.507-.597-.533-.597-.533-1.54 0-.943.558-1.565.565-.629 1.514-.629.95 0 1.482.603.533.603.533 1.553zm-1.18.02q0-.565-.212-.918-.206-.36-.648-.36-.437 0-.655.36-.211.353-.211.91 0 .552.224.912.225.359.648.359.43 0 .642-.347.211-.352.211-.917zM47.035 89.728v-4.209h1.136v.648q.352-.693 1.27-.693.648 0 1.02.385t.372 1.116v2.753H49.69v-2.54q0-.386-.186-.585-.18-.205-.52-.205-.333 0-.577.282-.237.276-.237.809v2.239z"/></g><g style="line-height:1.25;-inkscape-font-specification:'GenEi Nu Gothic EB';text-align:center" aria-label="Misskey" font-weight="400" font-size="8.279" font-family="GenEi Nu Gothic EB" letter-spacing="0" word-spacing="0" text-anchor="middle" fill="#2ba3bc" stroke-width=".326"><path style="-inkscape-font-specification:'GenEi Nu Gothic EB'" d="M63.768 33.388l.479-5.711h1.357l.8 2.065q.393 1.036.564 1.646l.052.203q.177-.669.643-1.849l.793-2.065h1.357l.584 5.71h-1.22l-.21-2.222-.124-1.777q-.25.708-.65 1.777l-.799 2.15h-.76l-.78-2.15q-.381-1.056-.539-1.567l-.059-.203q0 .406-.091 1.77l-.17 2.223zM71.4 33.388v-4.301h1.16v4.3zm.092-5.075q-.197-.197-.197-.479t.197-.478q.203-.204.485-.204t.485.204q.204.196.204.478t-.204.479q-.196.197-.485.197-.282 0-.485-.197zM76.298 29.218v1.003q-.446-.256-1.05-.256-.235 0-.366.099-.125.091-.125.21 0 .117.04.19.045.065.144.13.098.066.183.112.092.04.25.118.157.072.249.118.413.203.655.472.243.269.243.695 0 .623-.446.964-.446.341-1.2.341-.747 0-1.285-.256v-1.042q.584.4 1.233.4.505 0 .505-.335 0-.17-.197-.288-.19-.125-.682-.328-.879-.42-.879-1.22 0-.61.466-.957.472-.347 1.14-.347.676 0 1.122.177zM79.957 29.218v1.003q-.446-.256-1.05-.256-.235 0-.367.099-.124.091-.124.21 0 .117.04.19.045.065.143.13.099.066.184.112.092.04.25.118.157.072.248.118.413.203.656.472.243.269.243.695 0 .623-.446.964-.446.341-1.2.341-.748 0-1.285-.256v-1.042q.583.4 1.232.4.505 0 .505-.335 0-.17-.196-.288-.19-.125-.682-.328-.879-.42-.879-1.22 0-.61.466-.957.472-.347 1.14-.347.676 0 1.122.177zM84.894 33.388H83.55l-1.43-2.118v2.118h-1.16v-5.855h1.16v3.488l1.41-1.934h1.331l-1.528 2.058zM86.218 30.791h1.58v-.046q-.059-.806-.714-.806-.315 0-.55.23-.23.222-.316.622zm0 .833q.105.413.433.656.328.236.833.236.669 0 1.14-.36v.99q-.426.281-1.324.281-1.049 0-1.639-.61-.59-.616-.59-1.613 0-.996.564-1.573.564-.584 1.41-.584.845 0 1.344.505.498.498.498 1.43 0 .327-.053.642zM90.92 33.316l-1.666-4.23h1.272l.472 1.351q.394 1.102.472 1.443l.027.118q.091-.322.485-1.56l.439-1.351h1.193l-1.554 4.17q-.662 1.77-2.006 1.77-.262 0-.465-.04v-.93q.098.032.295.032.38 0 .622-.19.25-.183.414-.583z"/></g><g stroke-width="3.42"><g transform="matrix(.07309 0 0 .07309 -30.987 95.423)" fill="url(#e)" fill-rule="evenodd"><path d="M2450.431-937.137l51.962 30v12l-51.962 30v-12l41.57-24-41.57-24z" fill="url(#f)"/><path d="M2450.431-913.137l20.785 12-20.785 12z" fill="url(#g)"/></g><path transform="matrix(.07735 0 0 .07735 143.555 65.958)" d="M49.098-504.566L0-476.221v11.338l39.277-22.676v45.354l9.82 5.67zm-19.639 34.015l-19.64 11.338 19.64 11.338z" fill="url(#i)" fill-rule="evenodd"/><g><g color="#000" font-weight="700" font-stretch="condensed" font-size="8.522" font-family="PT Sans Narrow" letter-spacing=".223" word-spacing="2.6"><path transform="matrix(.07735 0 0 .07735 141.08 24.537)" d="M263.227 34.35c-1.667 0-2.953.477-3.858 1.43-.905.904-1.357 2.069-1.357 3.497 0 1.429.453 2.596 1.357 3.5.905.857 2.191 1.285 3.858 1.285 1.666 0 2.998-.428 3.998-1.285s1.5-2.024 1.5-3.5-.5-2.665-1.5-3.57c-1-.905-2.332-1.357-3.998-1.357zm43.95 0c-1.666 0-2.95.477-3.855 1.43-.904.904-1.357 2.069-1.357 3.497 0 1.429.453 2.596 1.357 3.5.905.857 2.19 1.285 3.856 1.285s3-.428 4-1.285 1.5-2.024 1.5-3.5-.5-2.665-1.5-3.57c-1-.905-2.334-1.357-4-1.357zm-118.46.357l-14.499 50.352h8.928l2.927-11.286h11.786l3.07 11.286h9.428l-14.57-50.352zm58.71 5.285l-8.497 2.643v6.713h-3.928v7.57h3.928v18.713c0 3.714.667 6.356 2 7.928 1.38 1.57 3.428 2.355 6.142 2.355 1.524 0 2.975-.19 4.356-.57 1.38-.334 2.595-.762 3.642-1.285L254 77.273c-.667.286-1.286.5-1.857.643a7.976 7.976 0 01-1.93.215c-1.048 0-1.784-.43-2.213-1.287-.38-.857-.572-2.308-.572-4.356v-15.57h6.927v-7.57h-6.927zm80.233 0l-8.498 2.643v6.713h-3.93v7.57h3.93v18.713c0 3.714.665 6.356 1.998 7.928 1.38 1.57 3.429 2.355 6.143 2.355 1.523 0 2.976-.19 4.357-.57 1.38-.334 2.595-.762 3.643-1.285l-1.073-6.786c-.666.286-1.286.5-1.857.643a7.96 7.96 0 01-1.928.215c-1.047 0-1.784-.43-2.213-1.287-.38-.857-.572-2.308-.572-4.356v-15.57h6.928v-7.57h-6.928zm-135.659 6.856h.285l1.145 7.857 2.855 11.64h-8.283l2.785-11.57zm31.946 1.572c-4.332 0-7.62 1.57-9.857 4.713-2.238 3.142-3.356 7.833-3.356 14.07 0 2.857.214 5.452.643 7.785.476 2.286 1.238 4.262 2.285 5.928 1.048 1.619 2.381 2.88 4 3.785 1.667.857 3.712 1.285 6.14 1.285 1.667 0 3.334-.238 5-.715 1.667-.476 3.096-1.19 4.286-2.142l-1.785-6.57c-.714.476-1.5.881-2.358 1.214-.81.286-1.81.428-3 .428-2.237 0-3.88-1.023-4.927-3.07-1-2.047-1.5-4.69-1.5-7.928 0-3.856.5-6.641 1.5-8.355 1-1.762 2.5-2.643 4.5-2.643 1.095 0 2.023.117 2.785.356.81.19 1.643.5 2.5.93l2-7.071c-1.048-.571-2.262-1.049-3.643-1.43-1.333-.38-3.07-.57-5.213-.57zm35.065.928v35.71h8.5v-35.71zm11.054 0l12.643 36.066h5.713l11.998-36.066h-9.14l-4.428 18.57-.788 5.713h-.285l-.857-5.643-4.928-18.64zm32.899 0v35.71h8.498v-35.71zm33.531 0l12.428 35.71c-.286 1.572-.644 2.833-1.072 3.786-.429.952-.93 1.642-1.5 2.07-.524.476-1.119.715-1.786.715a4.223 4.223 0 01-1.857-.287l-1.428 7.285c.667.38 1.453.642 2.358.785.952.19 1.928.287 2.927.287 1.429 0 2.643-.43 3.643-1.287 1.047-.81 1.976-1.999 2.785-3.57.81-1.571 1.571-3.475 2.285-5.713a281.038 281.038 0 002.285-7.57l8.928-32.211h-8.713l-4.142 19.998-.643 5.642h-.357l-.928-5.572-5-20.068z" style="line-height:2.53632545px;-inkscape-font-specification:'PT Sans Narrow Bold Condensed';isolation:auto;mix-blend-mode:normal;solid-color:#000;solid-opacity:1" overflow="visible" fill="url(#j)"/><path transform="matrix(.07735 0 0 .07735 141.08 24.537)" d="M386.908 34.35c-2.047 0-4.095.119-6.142.357-2.048.19-3.927.477-5.641.857V85.06h8.998V67.846c.19.047.5.095.928.142l1.43.143h2.285c2.047 0 4.023-.309 5.927-.928a13.327 13.327 0 005.143-3c1.476-1.38 2.641-3.165 3.498-5.355.905-2.19 1.357-4.858 1.357-8 0-3.476-.522-6.286-1.57-8.428-1.047-2.19-2.406-3.88-4.072-5.07-1.667-1.19-3.57-1.977-5.713-2.358a31.993 31.993 0 00-6.428-.642zm51.725.714V83.63c1.143.571 2.76 1.096 4.855 1.572 2.143.476 4.477.713 7 .713 4.619 0 8.26-1.57 10.926-4.713 2.666-3.19 4-8.165 4-14.926 0-6.237-.953-10.76-2.857-13.57-1.857-2.81-4.475-4.215-7.856-4.215-3.19 0-5.641 1.048-7.355 3.143h-.215V35.064zm-50.867 7.286c1 0 1.952.142 2.857.427a5.715 5.715 0 012.356 1.428c.714.619 1.261 1.477 1.642 2.572.429 1.095.643 2.43.643 4 0 1.857-.214 3.403-.643 4.641-.428 1.19-1.023 2.143-1.785 2.857a6.24 6.24 0 01-2.5 1.428c-.952.286-1.95.43-2.998.43-.286 0-.833-.025-1.643-.072-.761-.096-1.286-.19-1.572-.286V42.707c.952-.238 2.167-.357 3.643-.357zm20.318 6.998v23.21c0 2.667.214 4.882.643 6.643.428 1.714 1.046 3.07 1.855 4.07.81 1 1.787 1.692 2.93 2.073 1.142.428 2.451.642 3.927.642 2.286 0 4.19-.547 5.713-1.642a11.923 11.923 0 003.715-4.143h.213l1.5 4.858h6.428c-.381-1.524-.643-3.216-.785-5.073a77.33 77.33 0 01-.215-5.785V49.348h-8.498V73.2c-.381 1.38-1.025 2.573-1.93 3.572-.905.953-2.022 1.428-3.355 1.428-1.381 0-2.334-.547-2.858-1.642-.524-1.095-.785-3.047-.785-5.856V49.348zm43.832 6.927c1.619 0 2.809.859 3.57 2.573.762 1.666 1.143 4.307 1.143 7.925 0 4.095-.476 7.024-1.428 8.786-.952 1.714-2.333 2.572-4.142 2.572-1.62 0-2.928-.264-3.928-.787V59.99c.81-2.476 2.404-3.715 4.785-3.715z" style="line-height:2.53632545px;-inkscape-font-specification:'PT Sans Narrow Bold Condensed';isolation:auto;mix-blend-mode:normal;solid-color:#000;solid-opacity:1" overflow="visible" fill="url(#k)"/></g></g></g><g stroke-width="7.608"><path d="M130.026 42.393c-.118.607-1.057 1.272-2.135 1.4-.562.068-1.116.13-1.706.102-.966-.044-1.728-.23-1.728-.23 0 .094.006.183.018.267.125.953.944 1.01 1.72 1.036.784.027 1.481-.193 1.481-.193l.032.708s-.547.295-1.523.349a6.374 6.374 0 01-1.985-.22c-1.688-.447-1.979-2.246-2.023-4.072-.014-.542-.005-1.053-.005-1.48 0-1.868 1.223-2.415 1.223-2.415.617-.283 1.675-.402 2.775-.411h.027c1.1.009 2.16.128 2.776.411 0 0 1.224.547 1.224 2.414 0 0 .015 1.378-.17 2.334" fill="#2b90d9"/><path d="M128.754 40.204v2.26h-.896v-2.193c0-.463-.194-.698-.584-.698-.43 0-.646.279-.646.83v1.2h-.89v-1.2c0-.551-.216-.83-.646-.83-.39 0-.584.235-.584.698v2.194h-.896v-2.26c0-.463.118-.83.354-1.102.244-.271.563-.41.96-.41.457 0 .805.176 1.034.528l.223.374.223-.374c.23-.352.577-.528 1.035-.528.396 0 .715.139.959.41.236.272.354.64.354 1.101" fill="#fff"/></g><g style="line-height:476.69509888px;-inkscape-font-specification:'OTADESIGN Rounded'" fill="#2ba3bc" stroke-width="14.464"><path d="M93.167 62.453c-.137 0-.267.022-.39.068a1.115 1.115 0 00-.548.42 1.115 1.115 0 00-.205.654v4.279c0 .312.11.583.332.81.228.222.498.333.81.333.32 0 .59-.111.812-.332.228-.228.342-.499.342-.811v-.778c.002-.169.176-.124.263 0 .165.284.513.529.918.527.406-.001.743-.202.919-.527.066-.079.254-.212.273 0v.778c0 .312.11.583.332.81.228.222.498.333.811.333.32 0 .59-.111.81-.332.229-.228.343-.499.343-.811v-4.279c0-.24-.072-.459-.215-.654a1.064 1.064 0 00-.538-.42 1.176 1.176 0 00-.39-.068 1.14 1.14 0 00-.89.41l-1.159 1.357c-.026.02-.112.17-.296.17-.183 0-.26-.15-.285-.17l-1.17-1.357a1.11 1.11 0 00-.88-.41zm7.227 0a.96.96 0 00-.703.293.943.943 0 00-.284.693c0 .274.095.508.284.703.195.19.43.284.703.284a.976.976 0 00.703-.284.96.96 0 00.293-.703.927.927 0 00-.293-.693.96.96 0 00-.703-.293zm.01 2.168a.96.96 0 00-.704.293.96.96 0 00-.293.703v2.413a.96.96 0 00.293.703c.196.19.43.284.704.284a.943.943 0 00.693-.284.96.96 0 00.293-.703v-2.413a.96.96 0 00-.293-.703.927.927 0 00-.693-.293z" style="-inkscape-font-specification:'OTADESIGN Rounded'" aria-label="Mi" font-weight="400" font-size="141.034" font-family="OTADESIGN Rounded" letter-spacing="0" word-spacing="0" stroke-width="4.187"/></g><g stroke-width="4.982"><path d="M80.355 79.762c-.18.927-1.614 1.941-3.26 2.138-.859.102-1.704.197-2.606.155-1.474-.067-2.638-.352-2.638-.352 0 .144.01.28.027.408.192 1.455 1.443 1.542 2.628 1.583a7.587 7.587 0 002.26-.295l.05 1.081s-.837.45-2.327.532c-.822.046-1.842-.02-3.03-.335-2.578-.682-3.022-3.43-3.09-6.218-.02-.828-.008-1.608-.008-2.261 0-2.851 1.868-3.687 1.868-3.687.942-.432 2.558-.614 4.238-.628h.042c1.68.014 3.297.196 4.239.628 0 0 1.868.836 1.868 3.687 0 0 .023 2.103-.26 3.564" fill="#2b90d9"/><path d="M78.412 76.42v3.451h-1.367v-3.35c0-.707-.297-1.065-.892-1.065-.657 0-.986.425-.986 1.266v1.834h-1.36v-1.834c0-.841-.33-1.266-.987-1.266-.594 0-.891.358-.891 1.065v3.35H70.56V76.42c0-.705.18-1.266.54-1.68.373-.416.86-.628 1.465-.628.7 0 1.23.269 1.58.807l.34.57.342-.57c.35-.538.88-.807 1.58-.807.605 0 1.092.212 1.464.627.36.415.54.976.54 1.681" fill="#fff"/></g><g style="line-height:476.69509888px;-inkscape-font-specification:'OTADESIGN Rounded'" fill="#2ba3bc" stroke-width="10.769"><path style="-inkscape-font-specification:'OTADESIGN Rounded'" d="M134.945 49.62c-.184 0-.359.03-.525.092a1.498 1.498 0 00-.735.564 1.497 1.497 0 00-.275.879V56.9c0 .42.148.782.446 1.088.306.298.669.447 1.089.447.428 0 .791-.15 1.088-.447.307-.306.46-.669.46-1.088v-1.045c.003-.227.236-.167.354 0 .22.382.688.71 1.233.708.545-.002.997-.271 1.233-.708.09-.106.342-.285.367 0V56.9c0 .42.15.782.446 1.088.307.298.67.447 1.09.447.428 0 .79-.15 1.088-.447.306-.306.46-.669.46-1.088v-5.746a1.45 1.45 0 00-.29-.88 1.43 1.43 0 00-.72-.563 1.58 1.58 0 00-.526-.092c-.472 0-.87.183-1.193.55l-1.558 1.824c-.035.026-.15.227-.397.227-.246 0-.349-.201-.384-.227l-1.57-1.823a1.491 1.491 0 00-1.181-.551zm9.706 0c-.368 0-.683.131-.945.393-.254.254-.38.564-.38.932 0 .367.126.682.38.944.262.254.577.38.945.38.367 0 .682-.126.944-.38.262-.262.394-.577.394-.944 0-.368-.132-.678-.394-.932a1.288 1.288 0 00-.944-.393zm.013 2.912c-.368 0-.682.131-.945.394a1.288 1.288 0 00-.393.944v3.24c0 .368.13.683.393.945.263.254.577.38.945.38.367 0 .677-.126.931-.38.262-.262.394-.577.394-.944v-3.24c0-.368-.132-.683-.394-.945a1.246 1.246 0 00-.931-.394z" aria-label="Mi" font-weight="400" font-size="141.034" font-family="OTADESIGN Rounded" letter-spacing="0" word-spacing="0" stroke-width="3.118"/></g><g stroke-width="4.648"><path d="M149.632 81.651c-.194.994-1.73 2.081-3.495 2.292-.92.11-1.827.21-2.793.167-1.58-.073-2.828-.378-2.828-.378 0 .154.01.3.029.438.205 1.56 1.546 1.653 2.817 1.696 1.282.044 2.423-.316 2.423-.316l.053 1.16s-.897.48-2.494.57c-.881.048-1.975-.023-3.25-.36-2.762-.731-3.237-3.677-3.31-6.665-.022-.887-.009-1.724-.009-2.424 0-3.056 2.003-3.952 2.003-3.952 1.01-.463 2.742-.658 4.542-.673h.045c1.8.015 3.534.21 4.544.673 0 0 2.002.896 2.002 3.952 0 0 .025 2.255-.28 3.82" fill="#2b90d9"/><path d="M147.55 78.068v3.7h-1.467v-3.591c0-.757-.318-1.141-.956-1.141-.704 0-1.057.455-1.057 1.357v1.966h-1.457v-1.966c0-.902-.353-1.357-1.058-1.357-.637 0-.956.384-.956 1.14v3.592h-1.466v-3.7c0-.756.193-1.357.58-1.802.399-.444.92-.672 1.57-.672.75 0 1.318.288 1.693.865l.365.612.365-.612c.376-.577.944-.865 1.694-.865.649 0 1.17.228 1.57.672.387.445.58 1.046.58 1.802" fill="#fff"/></g><g stroke-width="5.467" fill="#fba457"><path d="M19.164 34.491v16.164h-4.016V35.75l1.258-1.259z"/><path d="M17.664 35.75a1.258 1.258 0 01-1.258 1.258 1.258 1.258 0 01-1.258-1.258 1.258 1.258 0 011.258-1.259 1.258 1.258 0 011.258 1.259zM25.262 41.315a1.258 1.258 0 01-1.258 1.258 1.258 1.258 0 01-1.258-1.258 1.258 1.258 0 011.258-1.258 1.258 1.258 0 011.258 1.258z"/><path d="M21.197 42.573v-8.082h4.065v6.824l-1.258 1.258zM25.262 49.397a1.258 1.258 0 01-1.258 1.258 1.258 1.258 0 01-1.258-1.258 1.258 1.258 0 011.258-1.258 1.258 1.258 0 011.258 1.258z"/><path d="M21.197 50.655v-4.017h4.065v2.759l-1.258 1.258z"/></g><g style="line-height:1.25;-inkscape-font-specification:'GenEi Nu Gothic EB';text-align:center" aria-label="Pleroma" font-weight="400" font-size="6.361" font-family="GenEi Nu Gothic EB" letter-spacing="0" word-spacing="0" text-anchor="middle" fill="#fba457" stroke-width=".265"><path style="-inkscape-font-specification:'GenEi Nu Gothic EB'" d="M29.072 42.318h.472q.522 0 .77-.242.249-.249.249-.665 0-.416-.243-.64-.236-.224-.72-.224h-.528zm-1.156-2.702h1.808q.907 0 1.46.503.553.503.553 1.33 0 .82-.578 1.31-.572.484-1.429.484h-.658v1.783h-1.156zM32.414 43.53v-4.182h1.1v4.125q0 .373.061.522.063.143.224.143.162 0 .36-.062v.9q-.192.075-.515.075-.677 0-.957-.379-.273-.372-.273-1.143zM35.42 42.566h1.498v-.043q-.056-.764-.678-.764-.298 0-.521.217-.218.211-.299.59zm0 .79q.1.39.41.62.311.224.79.224.633 0 1.08-.341v.938q-.403.267-1.255.267-.993 0-1.553-.578-.559-.584-.559-1.528 0-.945.535-1.491.534-.553 1.335-.553.802 0 1.274.478.472.472.472 1.355 0 .31-.05.608zM39.893 40.951v.696q.28-.72.994-.72.162 0 .354.043v1.044q-.236-.1-.49-.1-.38 0-.622.298-.236.292-.236.758v2.056h-1.1l.007-4.075zM45.41 42.983q0 .913-.522 1.51-.516.596-1.46.596-.938 0-1.46-.578-.516-.578-.516-1.491 0-.913.54-1.516.548-.609 1.467-.609.92 0 1.435.584.516.584.516 1.504zM44.267 43q0-.546-.205-.888-.2-.348-.628-.348-.422 0-.633.348-.205.342-.205.882 0 .534.217.882t.627.348q.417 0 .622-.335.205-.342.205-.889zM47.292 40.951v.578q.335-.621 1.155-.621.82 0 1.119.733.149-.36.472-.547.323-.186.758-.186.608 0 .95.385.342.379.342 1.093v2.64h-1.1V42.58q0-.36-.149-.566-.143-.21-.422-.21-.274 0-.504.242-.223.236-.223.813v2.168h-1.106V42.58q0-.36-.15-.566-.142-.21-.421-.21-.28 0-.504.242-.217.236-.217.813v2.168h-1.1v-4.075zM55.076 43.2l-.423.093q-.41.1-.54.211-.13.112-.13.311 0 .447.509.447.273 0 .428-.167.156-.168.156-.441zm-1.932-1.044v-1q.199-.112.565-.186.367-.08.795-.08.864 0 1.28.372.416.373.416 1.155v2.61h-1.08v-.442q-.287.46-1.02.46-.59 0-.931-.335-.336-.336-.336-.827 0-.49.267-.77.187-.193.69-.323.503-.137.74-.18l.546-.118v-.137q0-.571-.696-.571t-1.236.372z"/></g><g stroke-width="8.476" fill="#fba457"><path d="M103.35 39.027v10.426h-2.59v-9.614l.81-.812z"/><path d="M102.382 39.839a.812.812 0 01-.811.811.812.812 0 01-.812-.811.812.812 0 01.812-.812.812.812 0 01.811.812zM107.283 43.428a.812.812 0 01-.812.812.812.812 0 01-.811-.812.812.812 0 01.811-.811.812.812 0 01.812.811z"/><path d="M104.661 44.24v-5.213h2.622v4.401l-.812.812zM107.283 48.641a.812.812 0 01-.812.812.812.812 0 01-.811-.812.812.812 0 01.811-.812.812.812 0 01.812.812z"/><path d="M104.661 49.453v-2.591h2.622v1.779l-.812.812z"/></g><g stroke-width="2.716"><g transform="matrix(.09205 0 0 .09205 -116.936 111.703)" fill="url(#m)" fill-rule="evenodd"><path d="M2450.431-937.137l51.962 30v12l-51.962 30v-12l41.57-24-41.57-24z" fill="url(#n)"/><path d="M2450.431-913.137l20.785 12-20.785 12z" fill="url(#o)"/></g><path d="M49.098-504.566L0-476.221v11.338l39.277-22.676v45.354l9.82 5.67zm-19.639 34.015l-19.64 11.338 19.64 11.338z" transform="matrix(.09742 0 0 .09742 102.882 74.595)" fill="url(#q)" fill-rule="evenodd"/></g><g stroke-width="2.716"><g transform="matrix(.09205 0 0 .09205 -181.364 107.035)" fill="url(#s)" fill-rule="evenodd"><path d="M2450.431-937.137l51.962 30v12l-51.962 30v-12l41.57-24-41.57-24z" fill="url(#t)"/><path d="M2450.431-913.137l20.785 12-20.785 12z" fill="url(#u)"/></g><path transform="matrix(.09742 0 0 .09742 38.455 69.927)" d="M49.098-504.566L0-476.221v11.338l39.277-22.676v45.354l9.82 5.67zm-19.639 34.015l-19.64 11.338 19.64 11.338z" fill="url(#w)" fill-rule="evenodd"/></g><g stroke-width="4.675"><g transform="translate(-97.701 102.207) scale(.05347)" fill="url(#y)" fill-rule="evenodd"><path d="M2450.431-937.137l51.962 30v12l-51.962 30v-12l41.57-24-41.57-24z" fill="url(#z)"/><path d="M2450.431-913.137l20.785 12-20.785 12z" fill="url(#A)"/></g><path d="M49.098-504.566L0-476.221v11.338l39.277-22.676v45.354l9.82 5.67zm-19.639 34.015l-19.64 11.338 19.64 11.338z" transform="translate(29.992 80.65) scale(.05659)" fill="url(#C)" fill-rule="evenodd"/></g><g stroke-width="8.476" fill="#fba457"><path d="M99.57 79.093v10.425h-2.59v-9.614l.811-.811z"/><path d="M98.603 79.904a.812.812 0 01-.812.812.812.812 0 01-.811-.812.812.812 0 01.811-.811.812.812 0 01.812.811zM103.503 83.494a.812.812 0 01-.811.811.812.812 0 01-.812-.811.812.812 0 01.812-.812.812.812 0 01.811.812z"/><path d="M100.881 84.305v-5.212h2.622v4.4l-.811.812zM103.503 88.706a.812.812 0 01-.811.812.812.812 0 01-.812-.812.812.812 0 01.812-.811.812.812 0 01.811.811z"/><path d="M100.881 89.518v-2.59h2.622v1.778l-.811.812z"/></g><path d="M61.8 21.96L29.481 33.11M28.201 51.835l2.77 6.264M46.302 69.963L66.146 76.2M75.244 34.896l-31.02 27.697" fill="none" stroke="#cd6264" stroke-width=".635"/><g stroke-width="4.675"><g transform="translate(-75.36 121.266) scale(.05347)" fill="url(#E)" fill-rule="evenodd"><path d="M2450.431-937.137l51.962 30v12l-51.962 30v-12l41.57-24-41.57-24z" fill="url(#F)"/><path d="M2450.431-913.137l20.785 12-20.785 12z" fill="url(#G)"/></g><path transform="translate(52.334 99.71) scale(.05659)" d="M49.098-504.566L0-476.221v11.338l39.277-22.676v45.354l9.82 5.67zm-19.639 34.015l-19.64 11.338 19.64 11.338z" fill="url(#I)" fill-rule="evenodd"/></g><g stroke-width="2.716"><g transform="matrix(.09205 0 0 .09205 -168.388 137.356)" fill="url(#K)" fill-rule="evenodd"><path d="M2450.431-937.137l51.962 30v12l-51.962 30v-12l41.57-24-41.57-24z" fill="url(#L)"/><path d="M2450.431-913.137l20.785 12-20.785 12z" fill="url(#M)"/></g><path d="M49.098-504.566L0-476.221v11.338l39.277-22.676v45.354l9.82 5.67zm-19.639 34.015l-19.64 11.338 19.64 11.338z" transform="matrix(.09742 0 0 .09742 51.43 100.248)" fill="url(#O)" fill-rule="evenodd"/></g><path d="M57.013 42.735l41.198 2.774M102.632 52.171l-5.079 8.152M80.25 34.858l12.493 24.797" fill="none" stroke="#cd6264" stroke-width=".635"/><g stroke-width="4.675"><g transform="translate(-38.859 91.247) scale(.05347)" fill="url(#Q)" fill-rule="evenodd"><path d="M2450.431-937.137l51.962 30v12l-51.962 30v-12l41.57-24-41.57-24z" fill="url(#R)"/><path d="M2450.431-913.137l20.785 12-20.785 12z" fill="url(#S)"/></g><path transform="translate(88.834 69.69) scale(.05659)" d="M49.098-504.566L0-476.221v11.338l39.277-22.676v45.354l9.82 5.67zm-19.639 34.015l-19.64 11.338 19.64 11.338z" fill="url(#U)" fill-rule="evenodd"/></g><g stroke-width="4.675"><g transform="translate(-31.49 104.432) scale(.05347)" fill="url(#W)" fill-rule="evenodd"><path d="M2450.431-937.137l51.962 30v12l-51.962 30v-12l41.57-24-41.57-24z" fill="url(#X)"/><path d="M2450.431-913.137l20.785 12-20.785 12z" fill="url(#Y)"/></g><path d="M49.098-504.566L0-476.221v11.338l39.277-22.676v45.354l9.82 5.67zm-19.639 34.015l-19.64 11.338 19.64 11.338z" transform="translate(96.203 82.876) scale(.05659)" fill="url(#aa)" fill-rule="evenodd"/></g><g stroke-width="2.716"><g transform="matrix(.09205 0 0 .09205 -138.345 135.403)" fill="url(#ac)" fill-rule="evenodd"><path d="M2450.431-937.137l51.962 30v12l-51.962 30v-12l41.57-24-41.57-24z" fill="url(#ad)"/><path d="M2450.431-913.137l20.785 12-20.785 12z" fill="url(#ae)"/></g><path transform="matrix(.09742 0 0 .09742 81.474 98.295)" d="M49.098-504.566L0-476.221v11.338l39.277-22.676v45.354l9.82 5.67zm-19.639 34.015l-19.64 11.338 19.64 11.338z" fill="url(#ag)" fill-rule="evenodd"/></g><path d="M77.375 35.333l-2.139 35.28M83.522 77.83l12.027-7.084M83.254 79.7l12.161 3.742M47.173 66.07s26.727-1.604 33.542 2.137c6.816 3.742 14.7 11.226 14.7 11.226M98.088 70.746l1.336 7.217M108.244 82.506l26.593-2.004M94.613 23.707s14.7 4.544 18.442 11.493c3.742 6.949 1.336 35.146 6.014 37.952 4.677 2.806 15.902 4.41 15.902 4.41M109.58 44.287l11.36-1.737" fill="none" stroke="#cd6264" stroke-width=".635"/><path d="M103.166 65.401s11.092 11.76 14.433 12.16c3.34.402 16.303 1.204 16.303 1.204M107.977 80.368l28.33-20.179M102.765 64.332l27.663-8.82M132.833 43.084l4.81 5.345M139.247 59.655l2.272 12.16M124.681 47.36s-1.336 11.092.802 13.898c2.138 2.807 10.958 12.028 10.958 12.028" fill="none" stroke="#cd6264" stroke-width=".635"/><path d="M109.046 49.231s2.94 2.673 4.143 2.673c1.202 0 17.64 1.203 17.64 1.203M47.04 63.664s27.795-.936 32.072-.668c4.276.267 10.423 1.737 10.423 1.737M102.097 37.07l-7.617-8.552M105.739 52.104s1.89 4.536 3.024 7.276c1.134 2.74.85 11.434.378 13.89-.473 2.458-3.402 4.914-3.402 4.914" fill="none" stroke="#cd6264" stroke-width=".635"/><g stroke-width="4.675"><g transform="translate(-48.24 117.487) scale(.05347)" fill="url(#ai)" fill-rule="evenodd"><path d="M2450.431-937.137l51.962 30v12l-51.962 30v-12l41.57-24-41.57-24z" fill="url(#aj)"/><path d="M2450.431-913.137l20.785 12-20.785 12z" fill="url(#ak)"/></g><path d="M49.098-504.566L0-476.221v11.338l39.277-22.676v45.354l9.82 5.67zm-19.639 34.015l-19.64 11.338 19.64 11.338z" transform="translate(79.454 95.93) scale(.05659)" fill="url(#am)" fill-rule="evenodd"/></g><g stroke-width="4.675"><g transform="translate(-61.297 110.036) scale(.05347)" fill="url(#ao)" fill-rule="evenodd"><path d="M2450.431-937.137l51.962 30v12l-51.962 30v-12l41.57-24-41.57-24z" fill="url(#ap)"/><path d="M2450.431-913.137l20.785 12-20.785 12z" fill="url(#aq)"/></g><path transform="translate(66.397 88.48) scale(.05659)" d="M49.098-504.566L0-476.221v11.338l39.277-22.676v45.354l9.82 5.67zm-19.639 34.015l-19.64 11.338 19.64 11.338z" fill="url(#as)" fill-rule="evenodd"/></g><g stroke-width="4.675"><g transform="translate(-55.532 99.736) scale(.05347)" fill="url(#au)" fill-rule="evenodd"><path d="M2450.431-937.137l51.962 30v12l-51.962 30v-12l41.57-24-41.57-24z" fill="url(#av)"/><path d="M2450.431-913.137l20.785 12-20.785 12z" fill="url(#aw)"/></g><path d="M49.098-504.566L0-476.221v11.338l39.277-22.676v45.354l9.82 5.67zm-19.639 34.015l-19.64 11.338 19.64 11.338z" transform="translate(72.16 78.18) scale(.05659)" fill="url(#ay)" fill-rule="evenodd"/></g><g stroke-width="2.716"><g transform="matrix(.09205 0 0 .09205 -135.745 164.519)" fill="url(#aA)" fill-rule="evenodd"><path d="M2450.431-937.137l51.962 30v12l-51.962 30v-12l41.57-24-41.57-24z" fill="url(#aB)"/><path d="M2450.431-913.137l20.785 12-20.785 12z" fill="url(#aC)"/></g><path d="M49.098-504.566L0-476.221v11.338l39.277-22.676v45.354l9.82 5.67zm-19.639 34.015l-19.64 11.338 19.64 11.338z" transform="matrix(.09742 0 0 .09742 84.074 127.41)" fill="url(#aE)" fill-rule="evenodd"/></g><g stroke-width="2.716"><g transform="matrix(.09205 0 0 .09205 -104.596 166.436)" fill="url(#aG)" fill-rule="evenodd"><path d="M2450.431-937.137l51.962 30v12l-51.962 30v-12l41.57-24-41.57-24z" fill="url(#aH)"/><path d="M2450.431-913.137l20.785 12-20.785 12z" fill="url(#aI)"/></g><path transform="matrix(.09742 0 0 .09742 115.223 129.328)" d="M49.098-504.566L0-476.221v11.338l39.277-22.676v45.354l9.82 5.67zm-19.639 34.015l-19.64 11.338 19.64 11.338z" fill="url(#aK)" fill-rule="evenodd"/></g><g stroke-width="4.675"><g transform="translate(-22.703 105.944) scale(.05347)" fill="url(#aM)" fill-rule="evenodd"><path d="M2450.431-937.137l51.962 30v12l-51.962 30v-12l41.57-24-41.57-24z" fill="url(#aN)"/><path d="M2450.431-913.137l20.785 12-20.785 12z" fill="url(#aO)"/></g><path transform="translate(104.99 84.388) scale(.05659)" d="M49.098-504.566L0-476.221v11.338l39.277-22.676v45.354l9.82 5.67zm-19.639 34.015l-19.64 11.338 19.64 11.338z" fill="url(#aQ)" fill-rule="evenodd"/></g><g stroke-width="4.675"><g transform="translate(-10.985 125.504) scale(.05347)" fill="url(#aS)" fill-rule="evenodd"><path d="M2450.431-937.137l51.962 30v12l-51.962 30v-12l41.57-24-41.57-24z" fill="url(#aT)"/><path d="M2450.431-913.137l20.785 12-20.785 12z" fill="url(#aU)"/></g><path transform="translate(116.708 103.948) scale(.05659)" d="M49.098-504.566L0-476.221v11.338l39.277-22.676v45.354l9.82 5.67zm-19.639 34.015l-19.64 11.338 19.64 11.338z" fill="url(#aW)" fill-rule="evenodd"/></g><g stroke-width="4.675"><g transform="translate(-2.575 104.337) scale(.05347)" fill="url(#aY)" fill-rule="evenodd"><path d="M2450.431-937.137l51.962 30v12l-51.962 30v-12l41.57-24-41.57-24z" fill="url(#aZ)"/><path d="M2450.431-913.137l20.785 12-20.785 12z" fill="url(#ba)"/></g><path d="M49.098-504.566L0-476.221v11.338l39.277-22.676v45.354l9.82 5.67zm-19.639 34.015l-19.64 11.338 19.64 11.338z" transform="translate(125.118 82.781) scale(.05659)" fill="url(#bc)" fill-rule="evenodd"/></g><g stroke-width="4.675"><g transform="translate(-20.434 99.3) scale(.05347)" fill="url(#be)" fill-rule="evenodd"><path d="M2450.431-937.137l51.962 30v12l-51.962 30v-12l41.57-24-41.57-24z" fill="url(#bf)"/><path d="M2450.431-913.137l20.785 12-20.785 12z" fill="url(#bg)"/></g><path transform="translate(107.259 77.744) scale(.05659)" d="M49.098-504.566L0-476.221v11.338l39.277-22.676v45.354l9.82 5.67zm-19.639 34.015l-19.64 11.338 19.64 11.338z" fill="url(#bi)" fill-rule="evenodd"/></g><g stroke-width="4.675"><g transform="translate(-11.363 90.323) scale(.05347)" fill="url(#bk)" fill-rule="evenodd"><path d="M2450.431-937.137l51.962 30v12l-51.962 30v-12l41.57-24-41.57-24z" fill="url(#bl)"/><path d="M2450.431-913.137l20.785 12-20.785 12z" fill="url(#bm)"/></g><path d="M49.098-504.566L0-476.221v11.338l39.277-22.676v45.354l9.82 5.67zm-19.639 34.015l-19.64 11.338 19.64 11.338z" transform="translate(116.33 68.767) scale(.05659)" fill="url(#bo)" fill-rule="evenodd"/></g><g stroke-width="2.716"><g transform="matrix(.09205 0 0 .09205 -87.916 127.098)" fill="url(#bq)" fill-rule="evenodd"><path d="M2450.431-937.137l51.962 30v12l-51.962 30v-12l41.57-24-41.57-24z" fill="url(#br)"/><path d="M2450.431-913.137l20.785 12-20.785 12z" fill="url(#bs)"/></g><path d="M49.098-504.566L0-476.221v11.338l39.277-22.676v45.354l9.82 5.67zm-19.639 34.015l-19.64 11.338 19.64 11.338z" transform="matrix(.09742 0 0 .09742 131.902 89.99)" fill="url(#bu)" fill-rule="evenodd"/></g><g stroke-width="2.716"><g transform="matrix(.09205 0 0 .09205 -81.826 148.683)" fill="url(#bw)" fill-rule="evenodd"><path d="M2450.431-937.137l51.962 30v12l-51.962 30v-12l41.57-24-41.57-24z" fill="url(#bx)"/><path d="M2450.431-913.137l20.785 12-20.785 12z" fill="url(#by)"/></g><path transform="matrix(.09742 0 0 .09742 137.992 111.575)" d="M49.098-504.566L0-476.221v11.338l39.277-22.676v45.354l9.82 5.67zm-19.639 34.015l-19.64 11.338 19.64 11.338z" fill="url(#bA)" fill-rule="evenodd"/></g><g stroke-width="4.675"><g transform="translate(-6.94 118.464) scale(.05347)" fill="url(#bC)" fill-rule="evenodd"><path d="M2450.431-937.137l51.962 30v12l-51.962 30v-12l41.57-24-41.57-24z" fill="url(#bD)"/><path d="M2450.431-913.137l20.785 12-20.785 12z" fill="url(#bE)"/></g><path d="M49.098-504.566L0-476.221v11.338l39.277-22.676v45.354l9.82 5.67zm-19.639 34.015l-19.64 11.338 19.64 11.338z" transform="translate(120.753 96.907) scale(.05659)" fill="url(#bG)" fill-rule="evenodd"/></g><g stroke-width="4.675"><g transform="translate(.903 116.385) scale(.05347)" fill="url(#bI)" fill-rule="evenodd"><path d="M2450.431-937.137l51.962 30v12l-51.962 30v-12l41.57-24-41.57-24z" fill="url(#bJ)"/><path d="M2450.431-913.137l20.785 12-20.785 12z" fill="url(#bK)"/></g><path transform="translate(128.596 94.828) scale(.05659)" d="M49.098-504.566L0-476.221v11.338l39.277-22.676v45.354l9.82 5.67zm-19.639 34.015l-19.64 11.338 19.64 11.338z" fill="url(#bM)" fill-rule="evenodd"/></g><g style="line-height:1.25;-inkscape-font-specification:AbbeyRoad;text-align:center" aria-label="Fediverse" font-weight="400" font-size="17.287" font-family="AbbeyRoad" letter-spacing="0" word-spacing="0" text-anchor="middle" stroke-width=".265"><path style="-inkscape-font-specification:AbbeyRoad" d="M125.72 14.31h-5.394v11.426h1.78V20.62h2.801v-1.625h-2.8v-3.043h3.613zM130.788 22.746a3.25 3.25 0 01-.155.916c-.173.467-.45.743-.847.812-.778.052-1.176-.881-1.193-2.817h3.872c0-1.504-.104-2.541-.294-3.112-.38-1.106-1.158-1.66-2.334-1.66-1.953 0-2.938 1.47-2.938 4.391 0 3.095.985 4.616 2.938 4.599.502-.018.951-.139 1.383-.38.9-.536 1.314-1.453 1.245-2.75zm-1.002-4.46c.363.017.622.294.812.795.138.398.207.795.19 1.227h-2.16c.103-1.383.483-2.057 1.158-2.022zM139.452 14.31h-1.642v3.578c-.277-.657-.743-.985-1.417-.985-.917 0-1.608.588-2.04 1.746-.242.64-.363 1.538-.363 2.697 0 1.054.103 1.901.294 2.54.155.554.414 1.003.76 1.35.398.397.865.587 1.4.587a1.6 1.6 0 001.366-.709v.605h1.642zm-1.642 7.105c0 1.02-.052 1.728-.138 2.143-.139.623-.415.934-.83.934-.674 0-1.02-1.02-1.02-3.043 0-2.126.346-3.18 1.02-3.18.415 0 .691.328.83.968.086.432.138 1.158.138 2.178zM143.474 14.31h-1.677v1.521h1.677zm0 2.766h-1.677v8.66h1.677zM149.378 17.076l-1.244 6.396-1.228-6.396h-1.711l2.109 8.66h1.66l2.108-8.66zM156.313 22.746c-.017.363-.07.674-.156.916-.173.467-.45.743-.847.812-.778.052-1.175-.881-1.192-2.817h3.872c0-1.504-.104-2.541-.294-3.112-.38-1.106-1.158-1.66-2.334-1.66-1.953 0-2.939 1.47-2.939 4.391 0 3.095.986 4.616 2.94 4.599.5-.018.95-.139 1.382-.38.899-.536 1.314-1.453 1.245-2.75zm-1.003-4.46c.363.017.623.294.813.795.138.398.207.795.19 1.227h-2.16c.103-1.383.483-2.057 1.157-2.022zM163.957 16.938c-.12-.018-.242-.035-.363-.035-1.089 0-1.798.553-2.126 1.677v-1.504h-1.608v8.66h1.677v-5.652c0-.64.346-1.349.916-1.539.19-.052.432-.086.726-.086.26 0 .519.034.778.103zM168.787 21.19l-.052-.052v.017l-.933-.708-.657-.484c-.363-.26-.536-.554-.536-.882 0-.467.45-.743.933-.726.536.017.882.398 1.038 1.106l.017.035 1.504-.363-.017-.052c-.294-1.296-1.245-2.126-2.472-2.195a2.475 2.475 0 00-1.833.587c-.501.433-.76 1.003-.76 1.694 0 .83.38 1.522 1.14 2.092l1.608 1.21c.519.38.778.744.778 1.09 0 .051-.017.103-.035.19-.086.432-.605.725-1.158.639-.518-.086-.864-.536-1.054-1.348v-.052l-1.539.345.018.052c.328 1.435 1.089 2.248 2.316 2.455.156.017.328.035.484.035 1.176 0 2.195-.744 2.472-1.833.052-.207.07-.397.07-.587 0-.83-.45-1.59-1.332-2.265zM175.321 22.746a3.25 3.25 0 01-.155.916c-.173.467-.45.743-.847.812-.778.052-1.176-.881-1.193-2.817h3.872c0-1.504-.103-2.541-.294-3.112-.38-1.106-1.158-1.66-2.333-1.66-1.954 0-2.939 1.47-2.939 4.391 0 3.095.985 4.616 2.939 4.599.501-.018.95-.139 1.383-.38.899-.536 1.313-1.453 1.244-2.75zm-1.002-4.46c.363.017.622.294.812.795.139.398.208.795.19 1.227h-2.16c.103-1.383.484-2.057 1.158-2.022z"/></g><g style="line-height:1.25;text-align:center" aria-label="powered by" font-weight="400" font-size="3.631" font-family="sans-serif" letter-spacing="0" word-spacing="0" text-anchor="middle" stroke-width=".265"><path d="M121.856 29.729q0 .241-.07.441-.069.2-.195.337-.117.132-.276.204-.158.071-.335.071-.154 0-.28-.034-.124-.033-.254-.104v.83h-.333v-2.711h.333v.207q.133-.112.298-.186.167-.076.355-.076.358 0 .556.271.2.27.2.75zm-.344.009q0-.358-.123-.535-.122-.178-.375-.178-.144 0-.29.062-.145.062-.278.163v1.123q.142.064.243.087.103.023.232.023.279 0 .435-.188.156-.188.156-.557zM124.063 29.754q0 .484-.248.764t-.665.28q-.42 0-.668-.28-.247-.28-.247-.764t.247-.764q.248-.282.668-.282.417 0 .665.282.248.28.248.764zm-.344 0q0-.385-.15-.571-.151-.188-.419-.188-.271 0-.422.188-.149.186-.149.57 0 .373.15.566.152.192.421.192.266 0 .417-.19.152-.191.152-.567zM127.072 28.763l-.516 1.98h-.308l-.51-1.526-.505 1.526h-.306l-.522-1.98h.348l.363 1.533.495-1.533h.275l.507 1.533.344-1.533zM129.21 29.788h-1.459q0 .182.055.319.055.134.15.221.093.085.219.128.128.043.28.043.202 0 .406-.08.206-.082.293-.16h.017v.364q-.168.07-.344.118-.175.048-.368.048-.493 0-.77-.266-.277-.267-.277-.758 0-.486.265-.772.266-.285.698-.285.4 0 .617.234.218.234.218.665zm-.324-.256q-.002-.262-.133-.406-.13-.143-.396-.143-.267 0-.427.157-.158.158-.179.392zM130.951 29.126h-.017q-.075-.018-.146-.025-.069-.009-.165-.009-.154 0-.297.07-.144.067-.277.175v1.406h-.333v-1.98h.333v.292q.199-.16.35-.225.152-.067.31-.067.086 0 .125.005.04.004.117.016zM132.927 29.788h-1.46q0 .182.055.319.055.134.151.221.092.085.218.128.128.043.28.043.202 0 .406-.08.206-.082.293-.16h.018v.364q-.169.07-.344.118-.176.048-.37.048-.492 0-.769-.266-.276-.267-.276-.758 0-.486.264-.772.266-.285.699-.285.4 0 .617.234.218.234.218.665zm-.325-.256q-.002-.262-.133-.406-.13-.143-.395-.143-.268 0-.428.157-.157.158-.179.392zM135.038 30.743h-.333v-.207q-.144.124-.3.193-.156.07-.338.07-.355 0-.564-.274-.208-.273-.208-.757 0-.252.071-.449.073-.196.195-.335.12-.134.28-.205.162-.071.334-.071.156 0 .276.033.121.032.254.102v-.859h.333zm-.333-.487v-1.137q-.135-.06-.241-.083-.107-.023-.232-.023-.28 0-.437.195-.156.195-.156.553 0 .353.121.537.12.183.387.183.141 0 .287-.062.145-.064.271-.163zM138.714 29.738q0 .248-.071.447-.07.198-.188.333-.126.14-.277.211-.15.07-.331.07-.169 0-.294-.042-.126-.039-.249-.106l-.021.092h-.312v-2.759h.333v.986q.14-.115.298-.188.158-.074.355-.074.35 0 .553.27.204.269.204.76zm-.344.009q0-.355-.117-.537-.117-.185-.378-.185-.145 0-.294.064-.149.062-.277.161v1.135q.142.064.243.089.103.025.232.025.277 0 .433-.181.158-.183.158-.571zM140.94 28.763l-1.157 2.71h-.356l.368-.826-.789-1.884h.362l.608 1.468.614-1.468z"/></g><g stroke-width="4.648"><path d="M173.822 72.013c-.193.993-1.73 2.08-3.495 2.292-.92.11-1.827.21-2.793.166-1.58-.072-2.827-.377-2.827-.377 0 .154.01.3.028.437.206 1.56 1.547 1.653 2.817 1.697 1.282.044 2.424-.316 2.424-.316l.052 1.159s-.896.481-2.494.57c-.88.048-1.975-.022-3.249-.36-2.763-.73-3.238-3.676-3.31-6.665-.023-.887-.01-1.724-.01-2.423 0-3.056 2.003-3.952 2.003-3.952 1.01-.464 2.742-.659 4.543-.673h.044c1.801.014 3.535.21 4.544.673 0 0 2.002.896 2.002 3.952 0 0 .025 2.254-.279 3.82" fill="#2b90d9"/><path d="M171.74 68.43v3.7h-1.466v-3.591c0-.758-.319-1.142-.956-1.142-.705 0-1.058.456-1.058 1.357v1.966h-1.457v-1.966c0-.901-.353-1.357-1.057-1.357-.638 0-.956.384-.956 1.142v3.59h-1.466v-3.7c0-.755.192-1.356.58-1.801.398-.445.92-.673 1.569-.673.75 0 1.318.289 1.694.866l.365.612.365-.612c.375-.577.944-.866 1.694-.866.648 0 1.17.228 1.57.673.386.445.579 1.046.579 1.802" fill="#fff"/></g><path d="M131.725 41.048s2.079-5.67 10.583-2.268c8.505 3.402 20.789 23.435 20.789 23.435M148.545 55.033l11.906 8.127M153.08 79.98l7.182-3.024M107.723 86.783s21.734 6.615 28.537 5.481c6.804-1.134 26.407-13.972 26.407-13.972M103.3 68.475s21.248-9.488 25.257-7.617c4.009 1.87 7.082 8.686 10.29 9.488 3.207.801 20.446-1.738 20.446-1.738" fill="none" stroke="#cd6264" stroke-width=".635"/><g stroke-width="2.716"><g transform="matrix(.09205 0 0 .09205 -89.76 174.468)" fill="url(#bO)" fill-rule="evenodd"><path d="M2450.431-937.137l51.962 30v12l-51.962 30v-12l41.57-24-41.57-24z" fill="url(#bP)"/><path d="M2450.431-913.137l20.785 12-20.785 12z" fill="url(#bQ)"/></g><path d="M49.098-504.566L0-476.221v11.338l39.277-22.676v45.354l9.82 5.67zm-19.639 34.015l-19.64 11.338 19.64 11.338z" transform="matrix(.09742 0 0 .09742 130.058 137.36)" fill="url(#bS)" fill-rule="evenodd"/></g><g stroke-width="4.675"><g transform="translate(24.362 116.815) scale(.05347)" fill="url(#bU)" fill-rule="evenodd"><path d="M2450.431-937.137l51.962 30v12l-51.962 30v-12l41.57-24-41.57-24z" fill="url(#bV)"/><path d="M2450.431-913.137l20.785 12-20.785 12z" fill="url(#bW)"/></g><path d="M49.098-504.566L0-476.221v11.338l39.277-22.676v45.354l9.82 5.67zm-19.639 34.015l-19.64 11.338 19.64 11.338z" transform="translate(152.055 95.259) scale(.05659)" fill="url(#bY)" fill-rule="evenodd"/></g><g stroke-width="2.716"><g transform="matrix(.09205 0 0 .09205 -70.865 142.447)" fill="url(#ca)" fill-rule="evenodd"><path d="M2450.431-937.137l51.962 30v12l-51.962 30v-12l41.57-24-41.57-24z" fill="url(#cb)"/><path d="M2450.431-913.137l20.785 12-20.785 12z" fill="url(#cc)"/></g><path d="M49.098-504.566L0-476.221v11.338l39.277-22.676v45.354l9.82 5.67zm-19.639 34.015l-19.64 11.338 19.64 11.338z" transform="matrix(.09742 0 0 .09742 148.953 105.338)" fill="url(#ce)" fill-rule="evenodd"/></g><g stroke-width="2.716"><g transform="matrix(.09205 0 0 .09205 -68.356 130.311)" fill="url(#cg)" fill-rule="evenodd"><path d="M2450.431-937.137l51.962 30v12l-51.962 30v-12l41.57-24-41.57-24z" fill="url(#ch)"/><path d="M2450.431-913.137l20.785 12-20.785 12z" fill="url(#ci)"/></g><path transform="matrix(.09742 0 0 .09742 151.462 93.203)" d="M49.098-504.566L0-476.221v11.338l39.277-22.676v45.354l9.82 5.67zm-19.639 34.015l-19.64 11.338 19.64 11.338z" fill="url(#ck)" fill-rule="evenodd"/></g><path d="M91.018 62.607L56.582 45.192" fill="none" stroke="#cd6264" stroke-width=".635"/><g stroke-width="4.675"><g transform="translate(-47.545 106.214) scale(.05347)" fill="url(#cm)" fill-rule="evenodd"><path d="M2450.431-937.137l51.962 30v12l-51.962 30v-12l41.57-24-41.57-24z" fill="url(#cn)"/><path d="M2450.431-913.137l20.785 12-20.785 12z" fill="url(#co)"/></g><path d="M49.098-504.566L0-476.221v11.338l39.277-22.676v45.354l9.82 5.67zm-19.639 34.015l-19.64 11.338 19.64 11.338z" transform="translate(80.148 84.658) scale(.05659)" fill="url(#cq)" fill-rule="evenodd"/></g><path d="M46.772 61.927s7.484 1.069 12.428-1.604c4.945-2.673 9.355-17.239 12.696-18.575 3.34-1.337 14.7-4.677 18.976-4.01 4.276.669 6.414 2.673 6.414 2.673" fill="none" stroke="#cd6264" stroke-width=".635"/><g stroke-width="4.675"><g transform="translate(-40.365 86.573) scale(.05347)" fill="url(#cs)" fill-rule="evenodd"><path d="M2450.431-937.137l51.962 30v12l-51.962 30v-12l41.57-24-41.57-24z" fill="url(#ct)"/><path d="M2450.431-913.137l20.785 12-20.785 12z" fill="url(#cu)"/></g><path transform="translate(87.328 65.017) scale(.05659)" d="M49.098-504.566L0-476.221v11.338l39.277-22.676v45.354l9.82 5.67zm-19.639 34.015l-19.64 11.338 19.64 11.338z" fill="url(#cw)" fill-rule="evenodd"/></g><g style="line-height:1.25;-inkscape-font-specification:AbbeyRoad;text-align:center" aria-label="Image of" font-weight="400" font-size="6.552" font-family="AbbeyRoad" letter-spacing="0" word-spacing="0" text-anchor="middle" stroke-width=".265"><path style="-inkscape-font-specification:AbbeyRoad" d="M121.055 7.922h-.688v4.331h.688zM125.38 9.56a.633.633 0 00-.151-.42c-.131-.15-.328-.229-.597-.229-.32 0-.543.125-.655.38l-.026.06c-.079-.243-.255-.387-.537-.426a1.503 1.503 0 00-.17-.013c-.315 0-.538.124-.662.38l-.026.052V8.97h-.61v3.283h.636V9.829c0-.236.183-.426.419-.406a.312.312 0 01.256.163.558.558 0 01.078.302v2.365h.642l.007-2.457c0-.23.184-.393.413-.373a.312.312 0 01.256.163.558.558 0 01.078.302v2.365h.649zM128.121 8.885h-.622v.393c-.105-.249-.282-.373-.538-.373-.347 0-.609.223-.773.662-.092.242-.137.59-.137 1.028 0 .393.039.715.111.957.059.21.157.38.288.511.15.15.328.223.531.223a.606.606 0 00.518-.269v.236h.622zm-.622 1.737c0 .38-.02.648-.053.805-.052.236-.157.354-.314.354-.256 0-.387-.38-.387-1.146 0-.806.131-1.212.387-1.212.157 0 .262.124.314.373.033.164.053.439.053.826zM130.905 8.97h-.63v.308c-.104-.249-.28-.373-.53-.373-.354 0-.616.223-.78.662-.091.242-.137.583-.137 1.022 0 .4.04.72.111.963.06.203.157.367.295.504.15.151.328.23.524.23a.6.6 0 00.518-.262v.367a.5.5 0 01-.099.314.332.332 0 01-.288.144c-.033 0-.059 0-.085-.007-.177-.033-.262-.157-.269-.373h-.707c-.026.386.183.642.629.766.124.033.268.053.42.053.608 0 1.028-.308 1.028-.911zm-.63 1.645c0 .387-.019.655-.052.812-.052.236-.157.354-.314.354-.256 0-.38-.386-.38-1.153 0-.806.124-1.205.38-1.205.157 0 .262.124.314.366.033.164.053.44.053.826zM133.117 11.12a1.245 1.245 0 01-.059.347c-.065.177-.17.281-.321.308-.295.02-.446-.334-.452-1.068h1.468c0-.57-.04-.963-.112-1.18-.144-.419-.439-.629-.884-.629-.74 0-1.114.557-1.114 1.665 0 1.172.373 1.749 1.114 1.742.19-.007.36-.052.524-.144.34-.203.498-.55.472-1.041zm-.38-1.69c.138.006.236.11.308.3.052.151.079.302.072.466h-.819c.04-.524.184-.78.439-.767zM137.912 10.602c0-.4-.014-.695-.046-.872-.099-.556-.433-.832-1.01-.832-.576 0-.91.276-1.008.832a5.798 5.798 0 00-.053.872c0 .38.02.675.053.878.098.557.432.832 1.009.832.576 0 .91-.275 1.009-.832.032-.177.046-.472.046-.878zm-.643 0c0 .42-.007.675-.026.766-.052.282-.183.42-.386.42-.21 0-.341-.138-.387-.42-.02-.098-.026-.353-.026-.766 0-.406.007-.662.026-.76.046-.282.177-.42.387-.42.203 0 .334.138.386.42.02.092.026.347.026.76zM139.885 7.863a1.85 1.85 0 00-.19-.013c-.373 0-.622.098-.733.288-.086.138-.132.42-.132.832h-.406v.505h.406v2.778h.63V9.475h.393V8.97h-.394v-.412c0-.125.092-.19.282-.19.046 0 .092.007.144.013z"/></g><g stroke-width="4.675"><g transform="translate(25.297 124.766) scale(.05347)" fill="url(#cy)" fill-rule="evenodd"><path d="M2450.431-937.137l51.962 30v12l-51.962 30v-12l41.57-24-41.57-24z" fill="url(#cz)"/><path d="M2450.431-913.137l20.785 12-20.785 12z" fill="url(#cA)"/></g><path transform="translate(152.99 103.21) scale(.05659)" d="M49.098-504.566L0-476.221v11.338l39.277-22.676v45.354l9.82 5.67zm-19.639 34.015l-19.64 11.338 19.64 11.338z" fill="url(#cC)" fill-rule="evenodd"/></g></svg>