<?xml version="1.0" encoding="UTF-8" standalone="no"?>
<!-- Created with Inkscape (http://www.inkscape.org/) -->

<svg
   xmlns:dc="http://purl.org/dc/elements/1.1/"
   xmlns:cc="http://creativecommons.org/ns#"
   xmlns:rdf="http://www.w3.org/1999/02/22-rdf-syntax-ns#"
   xmlns:svg="http://www.w3.org/2000/svg"
   xmlns="http://www.w3.org/2000/svg"
   xmlns:sodipodi="http://sodipodi.sourceforge.net/DTD/sodipodi-0.dtd"
   xmlns:inkscape="http://www.inkscape.org/namespaces/inkscape"
   width="570.20691"
   height="98.706032"
   viewBox="0 0 150.86724 26.115972"
   version="1.1"
   id="svg8"
   inkscape:version="0.92.3 (2405546, 2018-03-11)"
   sodipodi:docname="aqztmin.svg">
  <defs
     id="defs2" />
  <sodipodi:namedview
     id="base"
     pagecolor="#ffffff"
     bordercolor="#666666"
     borderopacity="1.0"
     inkscape:pageopacity="0.0"
     inkscape:pageshadow="2"
     inkscape:zoom="1.4"
     inkscape:cx="244.26247"
     inkscape:cy="85.754274"
     inkscape:document-units="mm"
     inkscape:current-layer="layer1"
     showgrid="false"
     fit-margin-top="10"
     units="px"
     fit-margin-left="10"
     fit-margin-bottom="10"
     fit-margin-right="10"
     inkscape:window-width="1920"
     inkscape:window-height="965"
     inkscape:window-x="-8"
     inkscape:window-y="-8"
     inkscape:window-maximized="1" />
  <metadata
     id="metadata5">
    <rdf:RDF>
      <cc:Work
         rdf:about="">
        <dc:format>image/svg+xml</dc:format>
        <dc:type
           rdf:resource="http://purl.org/dc/dcmitype/StillImage" />
        <dc:title></dc:title>
      </cc:Work>
    </rdf:RDF>
  </metadata>
  <g
     inkscape:label="レイヤー 1"
     inkscape:groupmode="layer"
     id="layer1"
     transform="translate(-34.314514,-52.445529)">
    <g
       aria-label="aqz/tamaina"
       style="font-style:normal;font-variant:normal;font-weight:normal;font-stretch:normal;font-size:18.52696037px;line-height:62.62112045px;font-family:'Nu Hanafudaya';-inkscape-font-specification:'Nu Hanafudaya';letter-spacing:0px;word-spacing:0px;fill:#000000;fill-opacity:1;stroke:none;stroke-width:0.26458332px;stroke-linecap:butt;stroke-linejoin:miter;stroke-opacity:1"
       id="text817">
      <path
         d="m 43.203933,61.68696 c -3.446015,0 -5.650723,1.445103 -5.9101,2.779044 h 4.224146 c 0.03705,-0.85224 0.518755,-1.556264 1.685954,-1.556264 1.259833,0 1.685953,0.704024 1.760061,2.55672 h -1.908277 c -4.075931,0 -6.09537,1.611846 -6.09537,3.631284 0,1.945331 1.834169,3.408961 4.63174,3.408961 1.370995,0 2.538194,-0.370539 3.371907,-1.018983 v 0.722552 h 4.409417 v -5.483981 c 0,-3.501595 -2.427032,-5.039333 -6.169478,-5.039333 z m 0.09264,9.226427 c -0.963402,0 -1.667427,-0.852241 -1.667427,-1.723008 v -0.463174 c 0,-1.074564 0.741079,-1.815642 2.445559,-1.815642 h 0.889294 v 2.093547 c 0,0.963402 -0.704024,1.908277 -1.667426,1.908277 z"
         style="font-style:normal;font-variant:normal;font-weight:normal;font-stretch:normal;font-family:'Nu Hanafudaya';-inkscape-font-specification:'Nu Hanafudaya';stroke-width:0.26458332px"
         id="path819" />
      <path
         d="m 63.996683,62.242769 h -4.409417 l -0.01853,0.518755 c -0.741078,-0.481701 -1.778588,-0.815186 -2.890205,-0.815186 -3.260746,0 -5.280184,2.55672 -5.280184,5.280183 0,2.723464 2.000912,5.280184 5.261657,5.280184 1.111617,0 2.186181,-0.333485 2.927259,-0.815186 v 4.224147 h 4.409417 z m -6.169478,8.670618 c -0.981929,0 -1.760061,-0.629917 -1.760061,-2.149128 v -3.075475 c 0,-1.519211 0.778132,-2.149128 1.760061,-2.149128 0.981929,0 1.760061,0.629917 1.760061,2.149128 v 3.075475 c 0,1.519211 -0.778132,2.149128 -1.760061,2.149128 z"
         style="font-style:normal;font-variant:normal;font-weight:normal;font-stretch:normal;font-family:'Nu Hanafudaya';-inkscape-font-specification:'Nu Hanafudaya';stroke-width:0.26458332px"
         id="path821" />
      <path
         d="M 77.022294,63.687872 V 62.242769 H 66.202549 v 1.445103 h 5.446927 l -5.446927,7.095826 v 1.445103 h 10.819745 v -1.445103 h -5.446926 z"
         style="font-style:normal;font-variant:normal;font-weight:normal;font-stretch:normal;font-family:'Nu Hanafudaya';-inkscape-font-specification:'Nu Hanafudaya';stroke-width:0.26458332px"
         id="path823" />
      <path
         d="m 85.907709,55.091362 h -2.037965 l -5.928628,19.416255 h 2.037966 z"
         style="font-style:normal;font-variant:normal;font-weight:normal;font-stretch:normal;font-family:'Nu Hanafudaya';-inkscape-font-specification:'Nu Hanafudaya';stroke-width:0.26458332px"
         id="path825" />
      <path
         d="m 94.92455,62.242769 v -1.445103 h -2.445559 v -2.037965 h -4.409416 v 2.037965 h -2.445559 v 1.445103 h 2.445559 v 9.967505 h 4.409416 v -9.967505 z"
         style="font-style:normal;font-variant:normal;font-weight:normal;font-stretch:normal;font-family:'Nu Hanafudaya';-inkscape-font-specification:'Nu Hanafudaya';stroke-width:0.26458332px"
         id="path827" />
      <path
         d="m 101.64347,61.68696 c -3.446019,0 -5.650727,1.445103 -5.910104,2.779044 h 4.224147 c 0.03705,-0.85224 0.518757,-1.556264 1.685957,-1.556264 1.25983,0 1.68595,0.704024 1.76006,2.55672 h -1.90828 c -4.075931,0 -6.09537,1.611846 -6.09537,3.631284 0,1.945331 1.83417,3.408961 4.63174,3.408961 1.371,0 2.53819,-0.370539 3.37191,-1.018983 v 0.722552 h 4.40941 v -5.483981 c 0,-3.501595 -2.42703,-5.039333 -6.16947,-5.039333 z m 0.0926,9.226427 c -0.9634,0 -1.66743,-0.852241 -1.66743,-1.723008 v -0.463174 c 0,-1.074564 0.74108,-1.815642 2.44556,-1.815642 h 0.8893 v 2.093547 c 0,0.963402 -0.70403,1.908277 -1.66743,1.908277 z"
         style="font-style:normal;font-variant:normal;font-weight:normal;font-stretch:normal;font-family:'Nu Hanafudaya';-inkscape-font-specification:'Nu Hanafudaya';stroke-width:0.26458332px"
         id="path829" />
      <path
         d="m 126.43804,61.835176 c -1.61185,0 -3.22369,0.722551 -4.07593,2.297343 -0.85224,-1.574792 -2.46409,-2.297343 -4.07594,-2.297343 -1.27836,0 -2.57524,0.463174 -3.48306,1.445103 v -1.03751 h -4.40942 v 9.967505 h 4.40942 v -6.262113 c 0,-1.500684 0.98192,-2.075019 1.87122,-2.075019 0.88929,0 1.87122,0.574335 1.87122,2.075019 v 6.262113 h 4.40942 v -5.483981 c 0,-0.259377 -0.0185,-0.518754 -0.0371,-0.759605 l 0.0371,-0.01853 c 0,-1.500684 0.98193,-2.075019 1.87122,-2.075019 0.8893,0 1.87122,0.574335 1.87122,2.075019 v 6.262113 h 4.40942 v -5.483981 c 0,-3.40896 -2.35292,-4.891117 -4.66879,-4.891117 z"
         style="font-style:normal;font-variant:normal;font-weight:normal;font-stretch:normal;font-family:'Nu Hanafudaya';-inkscape-font-specification:'Nu Hanafudaya';stroke-width:0.26458332px"
         id="path831" />
      <path
         d="m 139.38491,61.68696 c -3.44601,0 -5.65072,1.445103 -5.9101,2.779044 h 4.22415 c 0.037,-0.85224 0.51875,-1.556264 1.68595,-1.556264 1.25983,0 1.68595,0.704024 1.76006,2.55672 h -1.90828 c -4.07593,0 -6.09537,1.611846 -6.09537,3.631284 0,1.945331 1.83417,3.408961 4.63174,3.408961 1.371,0 2.5382,-0.370539 3.37191,-1.018983 v 0.722552 h 4.40942 v -5.483981 c 0,-3.501595 -2.42703,-5.039333 -6.16948,-5.039333 z m 0.0926,9.226427 c -0.9634,0 -1.66742,-0.852241 -1.66742,-1.723008 v -0.463174 c 0,-1.074564 0.74108,-1.815642 2.44556,-1.815642 h 0.88929 v 2.093547 c 0,0.963402 -0.70402,1.908277 -1.66743,1.908277 z"
         style="font-style:normal;font-variant:normal;font-weight:normal;font-stretch:normal;font-family:'Nu Hanafudaya';-inkscape-font-specification:'Nu Hanafudaya';stroke-width:0.26458332px"
         id="path833" />
      <path
         d="m 152.54455,60.371546 v -2.982841 h -4.40941 v 2.982841 z m 0,11.838728 v -9.967505 h -4.40941 v 9.967505 z"
         style="font-style:normal;font-variant:normal;font-weight:normal;font-stretch:normal;font-family:'Nu Hanafudaya';-inkscape-font-specification:'Nu Hanafudaya';stroke-width:0.26458332px"
         id="path835" />
      <path
         d="m 163.23287,61.835176 c -1.35247,0 -2.72346,0.481701 -3.66834,1.500684 v -1.093091 h -4.40941 v 9.967505 h 4.40941 v -6.262113 c 0,-1.500684 1.07457,-2.075019 2.0565,-2.075019 0.98193,0 2.05649,0.574335 2.05649,2.075019 v 6.262113 h 4.40942 v -5.483981 c 0,-3.40896 -2.44556,-4.891117 -4.85407,-4.891117 z"
         style="font-style:normal;font-variant:normal;font-weight:normal;font-stretch:normal;font-family:'Nu Hanafudaya';-inkscape-font-specification:'Nu Hanafudaya';stroke-width:0.26458332px"
         id="path837" />
      <path
         d="m 176.36645,61.68696 c -3.44601,0 -5.65072,1.445103 -5.9101,2.779044 h 4.22415 c 0.037,-0.85224 0.51876,-1.556264 1.68595,-1.556264 1.25984,0 1.68596,0.704024 1.76007,2.55672 h -1.90828 c -4.07593,0 -6.09537,1.611846 -6.09537,3.631284 0,1.945331 1.83417,3.408961 4.63174,3.408961 1.37099,0 2.53819,-0.370539 3.37191,-1.018983 v 0.722552 h 4.40941 v -5.483981 c 0,-3.501595 -2.42703,-5.039333 -6.16948,-5.039333 z m 0.0926,9.226427 c -0.9634,0 -1.66743,-0.852241 -1.66743,-1.723008 v -0.463174 c 0,-1.074564 0.74108,-1.815642 2.44556,-1.815642 h 0.8893 v 2.093547 c 0,0.963402 -0.70403,1.908277 -1.66743,1.908277 z"
         style="font-style:normal;font-variant:normal;font-weight:normal;font-stretch:normal;font-family:'Nu Hanafudaya';-inkscape-font-specification:'Nu Hanafudaya';stroke-width:0.26458332px"
         id="path839" />
    </g>
  </g>
</svg>
