<svg xmlns="http://www.w3.org/2000/svg" width="570.207" height="98.706" viewBox="0 0 150.867 26.116"><g aria-label="aqz/tamaina" style="line-height:62.62112045px;-inkscape-font-specification:'Nu Hanafudaya'" font-weight="400" font-size="18.527" font-family="Nu Hanafudaya" letter-spacing="0" word-spacing="0" stroke-width=".265"><path d="M8.89 9.241c-3.447 0-5.651 1.446-5.91 2.78h4.223c.038-.853.52-1.557 1.686-1.557 1.26 0 1.686.704 1.76 2.557H8.741c-4.076 0-6.095 1.612-6.095 3.631 0 1.946 1.834 3.41 4.632 3.41 1.37 0 2.538-.371 3.371-1.02v.723h4.41V14.28c0-3.502-2.427-5.04-6.17-5.04zm.092 9.227c-.963 0-1.667-.852-1.667-1.723v-.463c0-1.075.74-1.816 2.445-1.816h.89v2.094c0 .963-.705 1.908-1.668 1.908zM29.682 9.797h-4.41l-.018.519c-.74-.482-1.778-.815-2.89-.815-3.26 0-5.28 2.557-5.28 5.28 0 2.723 2 5.28 5.261 5.28 1.112 0 2.187-.333 2.928-.815v4.224h4.41zm-6.17 8.67c-.981 0-1.76-.63-1.76-2.148v-3.076c0-1.519.779-2.149 1.76-2.149.983 0 1.76.63 1.76 2.15v3.075c0 1.519-.777 2.149-1.76 2.149zM42.708 11.242V9.797h-10.82v1.445h5.447l-5.447 7.096v1.445h10.82v-1.445H37.26zM51.593 2.646h-2.038l-5.928 19.416h2.038zM60.61 9.797V8.352h-2.446V6.314h-4.409v2.038H51.31v1.445h2.445v9.968h4.41V9.797zM67.329 9.241c-3.446 0-5.65 1.446-5.91 2.78h4.224c.037-.853.519-1.557 1.686-1.557 1.26 0 1.686.704 1.76 2.557h-1.908c-4.076 0-6.096 1.612-6.096 3.631 0 1.946 1.835 3.41 4.632 3.41 1.371 0 2.538-.371 3.372-1.02v.723h4.41V14.28c0-3.502-2.428-5.04-6.17-5.04zm.093 9.227c-.964 0-1.668-.852-1.668-1.723v-.463c0-1.075.741-1.816 2.446-1.816h.889v2.094c0 .963-.704 1.908-1.667 1.908zM92.124 9.39c-1.612 0-3.224.722-4.076 2.297-.853-1.575-2.464-2.297-4.076-2.297-1.279 0-2.576.463-3.483 1.445V9.797h-4.41v9.968h4.41v-6.262c0-1.501.982-2.075 1.87-2.075.89 0 1.872.574 1.872 2.075v6.262h4.41V14.28c0-.26-.019-.519-.038-.76l.037-.018c0-1.501.982-2.075 1.872-2.075.889 0 1.87.574 1.87 2.075v6.262h4.41V14.28c0-3.41-2.353-4.891-4.668-4.891zM105.07 9.241c-3.446 0-5.65 1.446-5.91 2.78h4.224c.037-.853.52-1.557 1.686-1.557 1.26 0 1.686.704 1.76 2.557h-1.908c-4.076 0-6.095 1.612-6.095 3.631 0 1.946 1.834 3.41 4.632 3.41 1.37 0 2.538-.371 3.371-1.02v.723h4.41V14.28c0-3.502-2.427-5.04-6.17-5.04zm.093 9.227c-.963 0-1.667-.852-1.667-1.723v-.463c0-1.075.74-1.816 2.445-1.816h.89v2.094c0 .963-.705 1.908-1.668 1.908zM118.23 7.926V4.943h-4.41v2.983zm0 11.839V9.797h-4.41v9.968zM128.918 9.39c-1.352 0-2.723.481-3.668 1.5V9.797h-4.41v9.968h4.41v-6.262c0-1.501 1.075-2.075 2.057-2.075.981 0 2.056.574 2.056 2.075v6.262h4.41V14.28c0-3.41-2.446-4.891-4.855-4.891zM142.052 9.241c-3.446 0-5.65 1.446-5.91 2.78h4.224c.037-.853.519-1.557 1.686-1.557 1.26 0 1.686.704 1.76 2.557h-1.908c-4.076 0-6.096 1.612-6.096 3.631 0 1.946 1.835 3.41 4.632 3.41 1.371 0 2.538-.371 3.372-1.02v.723h4.41V14.28c0-3.502-2.428-5.04-6.17-5.04zm.093 9.227c-.964 0-1.668-.852-1.668-1.723v-.463c0-1.075.741-1.816 2.446-1.816h.889v2.094c0 .963-.704 1.908-1.667 1.908z" style="-inkscape-font-specification:'Nu Hanafudaya'"/></g></svg>