<svg xmlns="http://www.w3.org/2000/svg" viewBox="0 0 150.867 26.116" height="98.706" width="570.207"><g style="line-height:62.62112045px;-inkscape-font-specification:'Nu Hanafudaya'" aria-label="aqz/tamaina" font-weight="400" font-size="18.527" font-family="Nu Hanafudaya" letter-spacing="0" word-spacing="0" stroke-width=".265"><path style="-inkscape-font-specification:'Nu Hanafudaya'" d="M11.43 19.765H9.74v-1.077q-.226.154-.615.434-.38.272-.742.435-.425.208-.977.343-.552.145-1.294.145-1.366 0-2.316-.904-.95-.905-.95-2.307 0-1.15.49-1.855.497-.714 1.41-1.122.923-.407 2.217-.551 1.293-.145 2.777-.217v-.263q0-.579-.208-.959-.2-.38-.58-.597-.361-.208-.868-.28-.506-.073-1.058-.073-.67 0-1.493.181-.823.172-1.7.507h-.09V9.877q.497-.136 1.438-.298.94-.163 1.854-.163 1.068 0 1.855.18.796.173 1.375.598.57.416.868 1.076.299.66.299 1.638zM9.74 17.277v-2.813q-.778.045-1.837.135-1.049.09-1.664.263-.733.208-1.185.651-.452.434-.452 1.203 0 .869.524 1.312.525.434 1.601.434.896 0 1.638-.344.742-.353 1.375-.841zM22.92 23.492h-1.701v-4.867q-.787.678-1.565 1.013-.778.326-1.683.326-1.8 0-2.877-1.384-1.067-1.393-1.067-3.836 0-1.303.37-2.298.38-1.004.996-1.682.597-.66 1.402-1.023.805-.361 1.7-.361.815 0 1.44.18.632.181 1.284.534l.108-.434h1.592zm-1.701-6.296v-5.718q-.706-.316-1.249-.443-.542-.127-1.176-.127-1.474 0-2.243 1.004-.77.996-.77 2.75 0 1.774.616 2.733.624.95 1.954.95.742 0 1.484-.317.741-.326 1.384-.832zM33.594 19.765h-8.16v-1.258l5.89-7.427H25.56V9.66h7.88v1.212l-5.917 7.454h6.07zM42.107 5.689L35.62 22.515h-1.565l6.459-16.826zM49.679 19.674q-.48.127-1.05.208-.56.082-1.004.082-1.547 0-2.352-.832-.805-.833-.805-2.67V11.09h-1.149V9.66h1.149V6.756h1.7V9.66h3.51v1.43h-3.51v4.604q0 .796.037 1.248.036.444.253.833.2.361.543.533.353.163 1.067.163.417 0 .869-.117.452-.127.651-.209h.09zM59.593 19.765h-1.691v-1.077q-.226.154-.615.434-.38.272-.742.435-.425.208-.977.343-.552.145-1.294.145-1.366 0-2.316-.904-.95-.905-.95-2.307 0-1.15.489-1.855.497-.714 1.411-1.122.923-.407 2.217-.551 1.293-.145 2.777-.217v-.263q0-.579-.208-.959-.2-.38-.58-.597-.361-.208-.868-.28-.506-.073-1.058-.073-.67 0-1.493.181-.823.172-1.7.507h-.091V9.877q.498-.136 1.438-.298.941-.163 1.855-.163 1.067 0 1.854.18.796.173 1.375.598.57.416.869 1.076.298.66.298 1.638zm-1.691-2.488v-2.813q-.778.045-1.837.135-1.049.09-1.664.263-.733.208-1.185.651-.453.434-.453 1.203 0 .869.525 1.312.525.434 1.601.434.896 0 1.638-.344.742-.353 1.375-.841zM77.632 19.765h-1.7V14.01q0-.651-.064-1.257-.054-.606-.244-.968-.208-.39-.597-.588-.39-.2-1.122-.2-.715 0-1.43.363-.714.352-1.429.904.027.208.045.489.018.271.018.543v6.468h-1.7V14.01q0-.67-.064-1.266-.054-.606-.244-.968-.208-.39-.597-.58Q68.115 11 67.382 11q-.696 0-1.402.344-.696.343-1.393.877v7.545h-1.7V9.66h1.7v1.122q.796-.66 1.583-1.032.796-.37 1.692-.37 1.031 0 1.746.434.723.434 1.076 1.203 1.032-.869 1.882-1.248.85-.39 1.818-.39 1.665 0 2.452 1.014.796 1.004.796 2.813zM88.759 19.765h-1.692v-1.077q-.226.154-.615.434-.38.272-.742.435-.425.208-.977.343-.552.145-1.293.145-1.366 0-2.316-.904-.95-.905-.95-2.307 0-1.15.488-1.855.498-.714 1.412-1.122.922-.407 2.216-.551 1.294-.145 2.777-.217v-.263q0-.579-.208-.959-.199-.38-.579-.597-.362-.208-.868-.28-.507-.073-1.059-.073-.67 0-1.492.181-.824.172-1.701.507h-.09V9.877q.497-.136 1.438-.298.94-.163 1.854-.163 1.068 0 1.855.18.796.173 1.375.598.57.416.868 1.076.299.66.299 1.638zm-1.692-2.488v-2.813q-.778.045-1.836.135-1.05.09-1.665.263-.732.208-1.185.651-.452.434-.452 1.203 0 .869.525 1.312.524.434 1.6.434.896 0 1.638-.344.742-.353 1.375-.841zM93.88 7.968H91.96V6.204h1.918zm-.11 11.797h-1.7V9.66h1.7zM105.603 19.765h-1.7V14.01q0-.696-.082-1.302-.081-.616-.298-.96-.227-.38-.652-.56-.425-.19-1.103-.19-.697 0-1.457.344-.76.343-1.456.877v7.545h-1.701V9.66h1.7v1.122q.797-.66 1.647-1.032.85-.37 1.746-.37 1.637 0 2.497.986.86.986.86 2.84zM116.73 19.765h-1.691v-1.077q-.227.154-.616.434-.38.272-.741.435-.426.208-.977.343-.552.145-1.294.145-1.366 0-2.316-.904-.95-.905-.95-2.307 0-1.15.489-1.855.497-.714 1.411-1.122.923-.407 2.216-.551 1.294-.145 2.778-.217v-.263q0-.579-.208-.959-.2-.38-.58-.597-.361-.208-.868-.28-.506-.073-1.058-.073-.67 0-1.493.181-.823.172-1.7.507h-.091V9.877q.497-.136 1.438-.298.941-.163 1.855-.163 1.067 0 1.854.18.796.173 1.375.598.57.416.869 1.076.298.66.298 1.638zm-1.691-2.488v-2.813q-.778.045-1.837.135-1.05.09-1.664.263-.733.208-1.185.651-.453.434-.453 1.203 0 .869.525 1.312.525.434 1.601.434.896 0 1.638-.344.741-.353 1.375-.841z"/></g></svg>